<svg width="375" height="410" viewBox="0 0 375 410" fill="none" xmlns="http://www.w3.org/2000/svg">
<path opacity="0.01" d="M142.845 204.224C143.821 148.307 149.893 97.8372 158.892 61.4561C163.395 43.2496 168.605 28.681 174.212 18.7393C177.016 13.7673 179.867 10.0464 182.7 7.60218C185.519 5.16851 188.215 4.08462 190.788 4.12954C193.362 4.17447 196.018 5.35177 198.751 7.88236C201.496 10.424 204.216 14.242 206.845 19.3089C212.101 29.4402 216.8 44.1818 220.665 62.5344C228.388 99.2074 232.695 149.859 231.719 205.776C230.743 261.692 224.671 312.162 215.672 348.544C211.169 366.75 205.959 381.319 200.353 391.26C197.549 396.232 194.697 399.953 191.865 402.398C189.045 404.831 186.35 405.915 183.776 405.87C181.202 405.825 178.546 404.648 175.813 402.117C173.068 399.576 170.348 395.758 167.719 390.691C162.463 380.559 157.765 365.818 153.9 347.465C146.176 310.792 141.869 260.141 142.845 204.224Z" stroke="url(#paint0_linear_60_453)" stroke-width="4"/>
<path opacity="0.0204082" d="M143.81 195.76C155.254 141.921 170.678 94.3194 186.331 60.8912C194.164 44.1623 202.008 31.0858 209.372 22.5556C213.054 18.2898 216.549 15.2416 219.785 13.4222C223.006 11.6111 225.86 11.0751 228.388 11.6125C230.916 12.1499 233.305 13.8001 235.511 16.7649C237.728 19.7434 239.68 23.9492 241.309 29.3441C244.567 40.132 246.414 55.2683 246.766 73.7371C247.469 110.642 242.199 160.401 230.755 214.24C219.311 268.079 203.887 315.681 188.234 349.109C180.4 365.838 172.557 378.914 165.193 387.444C161.51 391.71 158.016 394.758 154.78 396.578C151.558 398.389 148.705 398.925 146.176 398.388C143.648 397.85 141.26 396.2 139.053 393.235C136.837 390.257 134.884 386.051 133.255 380.656C129.998 369.868 128.151 354.732 127.799 336.263C127.095 299.358 132.366 249.599 143.81 195.76Z" stroke="url(#paint1_linear_60_453)" stroke-width="4"/>
<path opacity="0.0408163" d="M146.372 187.635C167.534 137.782 191.444 94.735 212.96 65.4416C223.727 50.7818 233.828 39.6586 242.618 32.8392C251.56 25.902 258.487 23.9112 263.286 25.9482C268.085 27.9852 271.465 34.3509 272.686 45.6021C273.886 56.6622 272.902 71.6552 269.836 89.5843C263.711 125.41 249.355 172.513 228.193 222.366C207.032 272.219 183.122 315.265 161.606 344.559C150.838 359.218 140.737 370.342 131.947 377.161C123.006 384.098 116.079 386.089 111.28 384.052C106.481 382.015 103.101 375.649 101.88 364.398C100.679 353.338 101.664 338.345 104.729 320.416C110.855 284.59 125.211 237.488 146.372 187.635Z" stroke="url(#paint2_linear_60_453)" stroke-width="4"/>
<path opacity="0.0612245" d="M150.439 180.148C180.23 135.981 211.466 98.9511 237.85 74.7818C251.054 62.6863 262.959 53.8896 272.795 49.0062C282.793 44.0423 289.935 43.4627 294.27 46.3871C298.606 49.3114 300.743 56.1498 299.886 67.2794C299.043 78.2284 295.347 92.5619 289.078 109.335C276.553 142.852 253.921 185.686 224.13 229.853C194.339 274.02 163.102 311.049 136.718 335.218C123.514 347.314 111.609 356.111 101.773 360.994C91.7752 365.958 84.6339 366.538 80.2984 363.613C75.9629 360.689 73.825 353.85 74.6822 342.721C75.5254 331.772 79.2219 317.438 85.4903 300.665C98.016 267.148 120.648 224.314 150.439 180.148Z" stroke="url(#paint3_linear_60_453)" stroke-width="4"/>
<path opacity="0.0816327" d="M155.856 173.574C192.902 136.527 230.064 106.704 260.163 88.4231C275.227 79.2742 288.424 73.0763 298.893 70.2725C309.527 67.4247 316.6 68.2633 320.31 71.9728C324.019 75.6823 324.858 82.7555 322.01 93.3893C319.206 103.859 313.008 117.056 303.859 132.119C285.578 162.219 255.755 199.38 218.709 236.426C181.663 273.473 144.501 303.296 114.402 321.577C99.3381 330.726 86.1412 336.924 75.6717 339.728C65.0379 342.575 57.9647 341.737 54.2552 338.027C50.5457 334.318 49.7071 327.245 52.5549 316.611C55.3587 306.141 61.5566 292.944 70.7055 277.881C88.9868 247.781 118.81 210.62 155.856 173.574Z" stroke="url(#paint4_linear_60_453)" stroke-width="4"/>
<path opacity="0.102041" d="M162.431 168.155C205.132 139.352 246.637 117.615 279.19 105.737C295.481 99.7918 309.422 96.3564 320.097 95.6904C330.931 95.0144 337.659 97.2222 340.602 101.585C343.545 105.948 343.072 113.014 338.386 122.806C333.77 132.454 325.362 144.093 313.748 156.971C290.539 182.703 254.837 213.043 212.136 241.846C169.434 270.648 127.929 292.385 95.3767 304.264C79.0856 310.208 65.1449 313.644 54.4697 314.31C43.6355 314.986 36.9073 312.778 33.9644 308.415C31.0215 304.052 31.4949 296.987 36.1802 287.194C40.7968 277.546 49.2043 265.907 60.8189 253.03C84.027 227.297 119.729 196.957 162.431 168.155Z" stroke="url(#paint5_linear_60_453)" stroke-width="4"/>
<path opacity="0.122449" d="M169.919 164.089C216.518 144.309 260.671 131.204 294.356 125.98C311.214 123.366 325.337 122.744 335.792 124.188C346.394 125.652 352.516 129.127 354.579 133.987C356.642 138.847 354.889 145.666 348.577 154.309C342.353 162.833 332.096 172.56 318.505 182.87C291.347 203.473 251.249 226.13 204.65 245.911C158.05 265.691 113.898 278.796 80.2122 284.02C63.3538 286.634 49.2315 287.256 38.7767 285.812C28.1745 284.348 22.0519 280.873 19.9889 276.013C17.926 271.153 19.6794 264.334 25.9911 255.691C32.215 247.167 42.4724 237.44 56.0637 227.129C83.2213 206.527 123.319 183.87 169.919 164.089Z" stroke="url(#paint6_linear_60_453)" stroke-width="4"/>
<path opacity="0.142857" d="M178.042 161.528C226.695 151.186 271.753 146.913 305.248 148.332C322.011 149.042 335.761 151.174 345.588 154.616C355.546 158.105 360.829 162.697 361.93 167.878C363.032 173.059 360.073 179.402 352.395 186.639C344.818 193.781 333.123 201.322 318.098 208.788C288.076 223.708 245.175 238.131 196.523 248.473C147.87 258.814 102.811 263.088 69.3166 261.669C52.5537 260.959 38.8033 258.827 28.9761 255.384C19.0184 251.896 13.7354 247.304 12.6341 242.123C11.5328 236.942 14.4915 230.598 22.1694 223.361C29.7467 216.219 41.4412 208.679 56.4662 201.212C86.4881 186.292 129.389 171.869 178.042 161.528Z" stroke="url(#paint7_linear_60_453)" stroke-width="4"/>
<path opacity="0.163265" d="M186.507 160.563C235.356 159.711 279.6 164.127 311.628 171.919C327.657 175.819 340.512 180.538 349.339 185.791C358.276 191.111 362.52 196.626 362.613 201.94C362.706 207.253 358.656 212.913 349.911 218.542C341.273 224.1 328.59 229.265 312.707 233.721C280.971 242.627 236.907 248.584 188.059 249.437C139.21 250.29 94.9656 245.874 62.9378 238.081C46.909 234.181 34.0538 229.463 25.227 224.209C16.2901 218.889 12.0456 213.374 11.9528 208.061C11.8601 202.747 15.9096 197.087 24.6554 191.459C33.2934 185.9 45.9761 180.736 61.859 176.279C93.5953 167.374 137.659 161.416 186.507 160.563Z" stroke="url(#paint8_linear_60_453)" stroke-width="4"/>
<path opacity="0.183673" d="M195 161.231C242.243 169.562 284.043 182.199 313.423 195.857C328.127 202.692 339.614 209.734 347.116 216.544C354.706 223.433 357.756 229.645 356.83 234.896C355.904 240.147 350.914 244.94 341.425 248.818C332.046 252.652 318.844 255.34 302.689 256.734C270.409 259.519 226.807 257.099 179.564 248.768C132.322 240.438 90.5214 227.8 61.1409 214.143C46.4368 207.308 34.9501 200.266 27.4478 193.456C19.858 186.566 16.8078 180.355 17.7337 175.104C18.6596 169.853 23.6502 165.059 33.1387 161.181C42.5177 157.348 55.7201 154.659 71.8752 153.266C104.155 150.48 147.757 152.901 195 161.231Z" stroke="url(#paint9_linear_60_453)" stroke-width="4"/>
<path opacity="0.204082" d="M203.21 163.508C247.17 180.383 285.042 200.477 310.735 219.279C323.594 228.689 333.306 237.707 339.221 245.762C345.199 253.904 346.947 260.559 345.03 265.554C343.113 270.548 337.361 274.324 327.47 276.374C317.685 278.403 304.433 278.605 288.58 276.994C256.906 273.776 215.315 263.366 171.355 246.492C127.395 229.617 89.5225 209.523 63.8296 190.721C50.9712 181.31 41.2586 172.292 35.3442 164.238C29.3656 156.096 27.6174 149.44 29.5345 144.446C31.4517 139.452 37.2041 135.676 47.0952 133.626C56.88 131.597 70.1321 131.395 85.9844 133.006C117.659 136.224 159.25 146.633 203.21 163.508Z" stroke="url(#paint10_linear_60_453)" stroke-width="4"/>
<path opacity="0.22449" d="M210.835 167.31C250.018 191.794 282.681 218.32 303.823 241.369C314.403 252.905 322.018 263.484 326.15 272.43C330.325 281.465 330.716 288.297 327.871 292.849C325.027 297.401 318.715 300.044 308.764 300.253C298.912 300.46 286.066 298.254 271.06 293.801C241.075 284.904 202.915 267.174 163.732 242.69C124.55 218.206 91.8863 191.681 70.745 168.631C60.1645 157.095 52.55 146.516 48.4172 137.57C44.2428 128.535 43.8518 121.703 46.6962 117.151C49.5406 112.599 55.8522 109.956 65.8033 109.747C75.6554 109.54 88.5015 111.746 103.508 116.199C133.493 125.096 171.653 142.826 210.835 167.31Z" stroke="url(#paint11_linear_60_453)" stroke-width="4"/>
<path opacity="0.244898" d="M217.593 172.496C250.737 203.403 277.153 235.127 293.084 261.389C301.057 274.533 306.342 286.208 308.576 295.664C310.83 305.208 309.863 311.944 306.19 315.883C302.516 319.821 295.864 321.256 286.187 319.673C276.598 318.105 264.583 313.647 250.915 306.61C223.605 292.55 190.116 268.411 156.972 237.504C123.828 206.596 97.412 174.873 81.481 148.61C73.508 135.467 68.223 123.792 65.9893 114.336C63.735 104.792 64.7024 98.0563 68.3755 94.1173C72.0486 90.1784 78.7006 88.7435 88.3783 90.3266C97.9673 91.8951 109.983 96.3529 123.65 103.39C150.96 117.45 184.449 141.588 217.593 172.496Z" stroke="url(#paint12_linear_60_453)" stroke-width="4"/>
<path opacity="0.265306" d="M223.239 178.877C249.357 214.825 268.763 250.357 279.051 278.705C284.199 292.892 287.023 305.169 287.318 314.744C287.617 324.4 285.344 330.774 280.971 333.951C276.599 337.127 269.834 337.32 260.743 334.052C251.728 330.812 240.925 324.333 229.023 315.052C205.242 296.508 177.445 267.072 151.327 231.123C125.209 195.175 105.803 159.643 95.5158 131.295C90.3673 117.108 87.5438 104.831 87.248 95.2562C86.9496 85.6004 89.2229 79.2259 93.595 76.0493C97.9672 72.8728 104.732 72.6806 113.823 75.9482C122.838 79.1884 133.641 85.6674 145.543 94.9479C169.325 113.492 197.121 142.928 223.239 178.877Z" stroke="url(#paint13_linear_60_453)" stroke-width="4"/>
<path opacity="0.285714" d="M227.562 186.217C245.967 225.687 257.898 263.542 262.344 292.804C264.569 307.448 264.9 319.824 263.299 329.13C261.685 338.508 258.209 344.272 253.295 346.564C248.38 348.856 241.73 347.813 233.509 343.022C225.35 338.266 216.083 330.058 206.295 318.94C186.737 296.725 165.407 263.252 147.002 223.783C128.597 184.313 116.666 146.457 112.22 117.196C109.995 102.551 109.664 90.1759 111.265 80.8695C112.879 71.4917 116.355 65.7274 121.27 63.4356C126.184 61.1438 132.834 62.1864 141.055 66.9781C149.214 71.7333 158.481 79.942 168.269 91.0596C187.827 113.274 209.157 146.747 227.562 186.217Z" stroke="url(#paint14_linear_60_453)" stroke-width="4"/>
<path opacity="0.306122" d="M230.406 194.248C240.727 235.646 245.023 274.304 243.666 303.311C242.986 317.828 240.896 329.81 237.512 338.482C234.106 347.213 229.578 352.144 224.298 353.461C219.018 354.777 212.704 352.549 205.597 346.439C198.539 340.371 191.068 330.773 183.653 318.274C168.836 293.3 154.48 257.15 144.159 215.752C133.837 174.354 129.541 135.696 130.899 106.688C131.578 92.1714 133.669 80.1894 137.052 71.5181C140.458 62.787 144.987 57.8555 150.267 56.539C155.547 55.2225 161.86 57.451 168.967 63.5608C176.025 69.6288 183.496 79.2268 190.911 91.7256C205.728 116.7 220.084 152.85 230.406 194.248Z" stroke="url(#paint15_linear_60_453)" stroke-width="4"/>
<path opacity="0.326531" d="M231.665 202.674C233.852 244.397 230.651 282.364 223.756 309.998C220.305 323.828 215.957 334.955 210.977 342.659C205.966 350.411 200.576 354.322 195.123 354.608C189.67 354.893 183.9 351.567 178.107 344.382C172.349 337.24 166.862 326.628 161.984 313.235C152.238 286.473 145.086 249.049 142.9 207.326C140.713 165.603 143.914 127.637 150.809 100.002C154.26 86.1726 158.608 75.0452 163.588 67.341C168.598 59.5896 173.988 55.6784 179.442 55.3926C184.895 55.1068 190.665 58.4331 196.458 65.6184C202.216 72.7598 207.703 83.3718 212.581 96.765C222.327 123.527 229.479 160.951 231.665 202.674Z" stroke="url(#paint16_linear_60_453)" stroke-width="4"/>
<path opacity="0.346939" d="M231.294 211.185C225.602 251.683 215.328 287.546 203.37 312.781C197.386 325.41 191.03 335.271 184.699 341.723C178.333 348.21 172.304 350.956 166.877 350.193C161.45 349.43 156.411 345.129 152.08 337.139C147.773 329.191 144.38 317.961 142.109 304.172C137.57 276.618 137.58 239.312 143.271 198.815C148.963 158.317 159.237 122.453 171.194 97.2184C177.179 84.5897 183.535 74.7294 189.866 68.2769C196.232 61.7897 202.261 59.0443 207.688 59.807C213.115 60.5697 218.154 64.8705 222.485 72.8611C226.792 80.8088 230.184 92.0391 232.456 105.828C236.995 133.382 236.985 170.688 231.294 211.185Z" stroke="url(#paint17_linear_60_453)" stroke-width="4"/>
<path opacity="0.367347" d="M229.306 219.469C216.28 257.3 199.614 289.786 183.253 311.726C175.066 322.706 167.024 330.95 159.634 335.924C152.211 340.922 145.788 342.403 140.589 340.613C135.389 338.822 131.24 333.701 128.467 325.193C125.706 316.723 124.445 305.276 124.753 291.583C125.368 264.221 132.235 228.361 145.261 190.53C158.288 152.7 174.954 120.214 191.315 98.2738C199.502 87.294 207.544 79.0495 214.933 74.0754C222.357 69.0782 228.779 67.5968 233.979 69.3872C239.179 71.1777 243.327 76.2989 246.101 84.8074C248.862 93.2765 250.123 104.724 249.815 118.417C249.199 145.779 242.332 181.639 229.306 219.469Z" stroke="url(#paint18_linear_60_453)" stroke-width="4"/>
<path opacity="0.387755" d="M225.772 227.222C206.209 261.105 184.052 289.119 164.1 307.032C154.115 315.996 144.768 322.352 136.65 325.687C128.5 329.035 121.945 329.206 117.165 326.446C112.386 323.686 109.256 317.924 108.08 309.192C106.909 300.494 107.74 289.222 110.511 276.093C116.048 249.857 129.23 216.661 148.793 182.778C168.355 148.895 190.512 120.881 210.465 102.968C220.45 94.0036 229.796 87.6475 237.914 84.3128C246.065 80.9649 252.619 80.7944 257.399 83.5539C262.179 86.3135 265.309 92.0755 266.484 100.808C267.655 109.506 266.824 120.778 264.053 133.907C258.517 160.143 245.334 193.339 225.772 227.222Z" stroke="url(#paint19_linear_60_453)" stroke-width="4"/>
<path opacity="0.408163" d="M220.826 234.158C195.738 263.017 169.171 285.684 146.551 299.023C135.232 305.698 125.001 309.979 116.505 311.584C107.982 313.195 101.557 312.06 97.3768 308.426C93.1966 304.792 91.1786 298.588 91.5873 289.923C91.9947 281.286 94.8093 270.559 99.8443 258.421C109.906 234.165 128.654 204.702 153.742 175.842C178.829 146.982 205.396 124.316 228.016 110.977C239.335 104.301 249.566 100.021 258.062 98.4158C266.585 96.8052 273.01 97.9401 277.191 101.574C281.371 105.208 283.389 111.412 282.98 120.077C282.573 128.713 279.758 139.44 274.723 151.578C264.661 175.834 245.913 205.298 220.826 234.158Z" stroke="url(#paint20_linear_60_453)" stroke-width="4"/>
<path opacity="0.428571" d="M214.645 240.022C185.209 263.019 155.438 279.706 131.15 288.129C118.996 292.343 108.324 294.45 99.8083 294.309C91.2703 294.168 85.2312 291.785 81.8088 287.405C78.3864 283.024 77.5353 276.588 79.4637 268.27C81.3871 259.972 86.0133 250.127 93.0431 239.354C107.091 217.825 130.485 192.975 159.92 169.978C189.355 146.98 219.126 130.293 243.414 121.871C255.568 117.656 266.24 115.549 274.756 115.69C283.294 115.832 289.333 118.214 292.756 122.595C296.178 126.975 297.029 133.411 295.101 141.73C293.178 150.027 288.551 159.873 281.522 170.646C267.473 192.175 244.08 217.025 214.645 240.022Z" stroke="url(#paint21_linear_60_453)" stroke-width="4"/>
<path opacity="0.44898" d="M207.46 244.6C174.967 261.156 143.275 271.492 118.347 274.864C105.873 276.552 95.2062 276.48 87.0194 274.647C78.8166 272.811 73.4017 269.287 70.8689 264.316C68.3361 259.345 68.6677 252.893 72.0039 245.178C75.3335 237.477 81.5452 228.805 90.2423 219.706C107.623 201.52 134.613 181.957 167.106 165.401C199.599 148.844 231.291 138.508 256.219 135.136C268.693 133.449 279.36 133.521 287.547 135.353C295.75 137.189 301.165 140.713 303.698 145.684C306.23 150.655 305.899 157.107 302.563 164.823C299.233 172.523 293.021 181.195 284.324 190.295C266.943 208.48 239.953 228.044 207.46 244.6Z" stroke="url(#paint22_linear_60_453)" stroke-width="4"/>
<path opacity="0.469388" d="M199.533 247.722C165.33 257.53 133.021 261.408 108.468 259.805C96.1826 259.003 85.9523 256.836 78.4217 253.435C70.881 250.03 66.3019 245.515 64.7585 240.133C63.2152 234.751 64.7063 228.496 69.2966 221.612C73.8808 214.738 81.408 207.478 91.4016 200.288C111.374 185.917 140.829 172.086 175.032 162.278C209.236 152.47 241.545 148.592 266.097 150.194C278.383 150.996 288.613 153.164 296.144 156.565C303.684 159.97 308.263 164.484 309.807 169.867C311.35 175.249 309.859 181.504 305.269 188.388C300.685 195.262 293.157 202.522 283.164 209.712C263.191 224.082 233.737 237.914 199.533 247.722Z" stroke="url(#paint23_linear_60_453)" stroke-width="4"/>
<path opacity="0.489796" d="M191.156 249.275C156.593 252.299 124.938 249.872 101.724 243.567C90.1082 240.413 80.7138 236.316 74.1312 231.532C67.5433 226.743 63.9768 221.429 63.487 215.831C62.9972 210.233 65.5867 204.38 71.243 198.52C76.8949 192.665 85.4351 187 96.3263 181.876C118.093 171.636 148.846 163.749 183.409 160.725C217.973 157.702 249.628 160.128 272.842 166.433C284.458 169.587 293.852 173.684 300.435 178.468C307.023 183.257 310.589 188.571 311.079 194.169C311.569 199.768 308.979 205.621 303.323 211.48C297.671 217.335 289.131 223.001 278.24 228.124C256.472 238.364 225.72 246.251 191.156 249.275Z" stroke="url(#paint24_linear_60_453)" stroke-width="4"/>
<path opacity="0.510204" d="M182.637 249.2C149.013 245.666 119.203 237.33 98.1969 226.777C87.687 221.497 79.4802 215.711 74.0906 209.78C68.6997 203.847 66.2807 197.953 66.8703 192.344C67.4598 186.735 71.0514 181.473 77.558 176.79C84.0629 172.109 93.2933 168.157 104.671 165.177C127.412 159.222 158.305 157.266 191.928 160.8C225.552 164.334 255.363 172.67 276.369 183.223C286.879 188.503 295.085 194.289 300.475 200.22C305.866 206.153 308.285 212.046 307.695 217.656C307.106 223.265 303.514 228.527 297.008 233.209C290.503 237.89 281.272 241.843 269.894 244.823C247.153 250.778 216.261 252.734 182.637 249.2Z" stroke="url(#paint25_linear_60_453)" stroke-width="4"/>
<path opacity="0.530612" d="M174.288 247.502C142.805 237.876 115.901 224.241 97.8512 210.049C88.8206 202.949 82.0918 195.776 78.0849 188.977C74.079 182.179 72.8956 175.948 74.5507 170.535C76.2057 165.121 80.6713 160.617 87.7935 157.221C94.9173 153.825 104.507 151.641 115.964 150.805C138.864 149.132 168.793 152.873 200.277 162.498C231.76 172.124 258.664 185.759 276.714 199.951C285.744 207.051 292.473 214.224 296.48 221.023C300.486 227.821 301.669 234.052 300.014 239.466C298.359 244.879 293.894 249.383 286.772 252.779C279.648 256.175 270.058 258.359 258.601 259.195C235.701 260.868 205.772 257.127 174.288 247.502Z" stroke="url(#paint26_linear_60_453)" stroke-width="4"/>
<path opacity="0.55102" d="M166.417 244.241C138.132 229.202 115.034 211.063 100.536 193.966C93.283 185.413 88.2517 177.201 85.7548 169.842C83.2596 162.488 83.3498 156.173 86.0171 151.156C88.6845 146.14 93.8691 142.534 101.361 140.49C108.859 138.445 118.48 138.024 129.627 139.254C151.908 141.713 179.862 150.719 208.147 165.759C236.432 180.798 259.53 198.937 274.028 216.034C281.281 224.587 286.313 232.799 288.81 240.158C291.305 247.513 291.215 253.827 288.547 258.844C285.88 263.86 280.695 267.466 273.203 269.51C265.706 271.555 256.085 271.976 244.938 270.746C222.656 268.287 194.702 259.281 166.417 244.241Z" stroke="url(#paint27_linear_60_453)" stroke-width="4"/>
<path opacity="0.571429" d="M159.314 239.539C135.108 219.938 116.52 198.233 106 179.054C100.738 169.461 97.5453 160.591 96.6197 152.994C95.6951 145.406 97.0453 139.264 100.634 134.833C104.223 130.401 109.95 127.803 117.564 127.13C125.187 126.456 134.527 127.735 145.005 130.887C165.951 137.19 191.047 150.859 215.253 170.461C239.459 190.062 258.047 211.767 268.566 230.946C273.829 240.539 277.021 249.409 277.947 257.005C278.872 264.594 277.521 270.735 273.933 275.167C270.344 279.599 264.617 282.197 257.002 282.87C249.38 283.544 240.04 282.265 229.562 279.112C208.615 272.81 183.52 259.141 159.314 239.539Z" stroke="url(#paint28_linear_60_453)" stroke-width="4"/>
<path opacity="0.591837" d="M153.238 233.568C133.788 210.388 120.198 186.153 113.902 165.77C110.753 155.575 109.458 146.441 110.098 138.933C110.737 131.435 113.283 125.713 117.667 122.034C122.052 118.356 128.129 116.842 135.623 117.514C143.129 118.188 151.899 121.049 161.393 125.921C180.372 135.661 201.879 153.252 221.33 176.432C240.78 199.612 254.369 223.847 260.666 244.23C263.815 254.425 265.109 263.559 264.47 271.067C263.831 278.565 261.285 284.287 256.9 287.966C252.516 291.644 246.439 293.158 238.944 292.486C231.439 291.812 222.668 288.951 213.175 284.079C194.195 274.339 172.688 256.748 153.238 233.568Z" stroke="url(#paint29_linear_60_453)" stroke-width="4"/>
<path opacity="0.612245" d="M148.412 226.547C134.173 200.858 125.846 175.181 123.832 154.485C122.824 144.134 123.406 135.127 125.54 128.02C127.67 120.926 131.3 115.853 136.324 113.068C141.349 110.283 147.574 109.892 154.72 111.846C161.877 113.802 169.823 118.082 178.068 124.421C194.552 137.096 211.915 157.765 226.154 183.453C240.394 209.141 248.72 234.819 250.734 255.515C251.742 265.866 251.16 274.873 249.027 281.98C246.896 289.074 243.266 294.147 238.242 296.932C233.218 299.717 226.992 300.108 219.847 298.154C212.689 296.198 204.743 291.918 196.498 285.579C180.014 272.903 162.651 252.235 148.412 226.547Z" stroke="url(#paint30_linear_60_453)" stroke-width="4"/>
<path opacity="0.632653" d="M145.015 218.734C136.214 191.646 133.186 165.619 135.332 145.476C136.405 135.402 138.762 126.895 142.258 120.478C145.746 114.074 150.306 109.852 155.789 108.071C161.273 106.289 167.443 107.024 174.029 110.155C180.629 113.292 187.536 118.789 194.326 126.308C207.901 141.342 220.751 164.178 229.552 191.266C238.353 218.354 241.381 244.382 239.235 264.525C238.162 274.599 235.805 283.105 232.309 289.522C228.821 295.926 224.261 300.148 218.778 301.93C213.294 303.711 207.124 302.976 200.538 299.845C193.938 296.708 187.031 291.212 180.241 283.693C166.666 268.658 153.816 245.822 145.015 218.734Z" stroke="url(#paint31_linear_60_453)" stroke-width="4"/>
<path opacity="0.653061" d="M143.171 210.416C139.808 183.03 141.898 157.703 147.912 138.92C153.984 119.958 163.765 108.422 175.252 107.011C186.739 105.601 199.021 114.428 209.499 131.358C219.878 148.128 228.033 172.197 231.396 199.584C234.759 226.971 232.669 252.297 226.655 271.08C220.583 290.042 210.802 301.579 199.315 302.989C187.828 304.4 175.546 295.572 165.068 278.642C154.689 261.872 146.534 237.803 143.171 210.416Z" stroke="url(#paint32_linear_60_453)" stroke-width="4"/>
<path opacity="0.673469" d="M142.946 201.9C144.809 175.262 151.634 151.604 161.073 134.896C170.593 118.043 182.366 108.891 193.945 109.701C205.525 110.511 215.909 121.212 222.992 139.225C230.014 157.085 233.48 181.463 231.617 208.1C229.754 234.738 222.929 258.396 213.49 275.105C203.97 291.957 192.197 301.109 180.618 300.299C169.038 299.489 158.654 288.788 151.571 270.775C144.549 252.915 141.083 228.537 142.946 201.9Z" stroke="url(#paint33_linear_60_453)" stroke-width="4"/>
<path opacity="0.693878" d="M144.353 193.497C151.033 168.565 162.035 147.422 174.33 133.383C186.72 119.237 199.935 112.794 211.181 115.808C222.427 118.821 230.651 131.008 234.307 149.454C237.935 167.759 236.892 191.57 230.211 216.503C223.531 241.435 212.529 262.578 200.234 276.617C187.845 290.763 174.629 297.206 163.383 294.192C152.137 291.179 143.913 278.992 140.257 260.546C136.629 242.241 137.672 218.43 144.353 193.497Z" stroke="url(#paint34_linear_60_453)" stroke-width="4"/>
<path opacity="0.714286" d="M147.337 185.517C158.261 163.118 172.738 145.188 187.222 134.274C201.804 123.286 215.864 119.756 226.362 124.876C236.859 129.996 242.734 143.249 243.053 161.504C243.37 179.637 238.153 202.084 227.228 224.483C216.304 246.881 201.827 264.812 187.343 275.726C172.761 286.714 158.701 290.243 148.204 285.124C137.706 280.004 131.832 266.751 131.512 248.496C131.196 230.363 136.412 207.916 147.337 185.517Z" stroke="url(#paint35_linear_60_453)" stroke-width="4"/>
<path opacity="0.734694" d="M151.789 178.253C166.25 159.063 183.392 144.866 199.334 137.377C215.368 129.845 229.653 129.304 239.011 136.355C248.368 143.406 251.786 157.287 248.964 174.777C246.159 192.165 237.238 212.557 222.777 231.747C208.317 250.937 191.174 265.133 175.232 272.622C159.198 280.155 144.913 280.696 135.555 273.645C126.198 266.594 122.78 252.712 125.602 235.223C128.407 217.835 137.328 197.443 151.789 178.253Z" stroke="url(#paint36_linear_60_453)" stroke-width="4"/>
<path opacity="0.755102" d="M157.544 171.972C174.737 156.491 193.67 146.364 210.307 142.438C227.026 138.492 240.92 140.888 248.785 149.623C256.651 158.359 257.581 172.427 251.91 188.641C246.265 204.777 234.215 222.548 217.022 238.028C199.828 253.509 180.895 263.636 164.258 267.563C147.54 271.509 133.646 269.113 125.78 260.377C117.915 251.642 116.984 237.574 122.656 221.359C128.3 205.224 140.351 187.453 157.544 171.972Z" stroke="url(#paint37_linear_60_453)" stroke-width="4"/>
<path opacity="0.77551" d="M164.393 166.904C183.458 155.449 203.279 149.532 219.854 149.144C236.496 148.754 249.411 153.911 255.485 164.02C261.56 174.129 260.049 187.954 251.892 202.464C243.768 216.916 229.238 231.64 210.173 243.096C191.109 254.551 171.287 260.467 154.712 260.856C138.071 261.246 125.156 256.089 119.081 245.98C113.007 235.87 114.517 222.046 122.674 207.536C130.799 193.083 145.328 178.359 164.393 166.904Z" stroke="url(#paint38_linear_60_453)" stroke-width="4"/>
<path opacity="0.795918" d="M172.081 163.237C192.141 155.936 211.964 154.181 227.757 157.151C243.599 160.131 255.002 167.758 259.05 178.879C263.097 189.999 259.265 203.172 249.044 215.638C238.855 228.064 222.542 239.463 202.483 246.763C182.424 254.064 162.6 255.819 146.807 252.849C130.965 249.87 119.562 242.242 115.514 231.121C111.467 220.001 115.299 206.828 125.52 194.362C135.709 181.936 152.022 170.538 172.081 163.237Z" stroke="url(#paint39_linear_60_453)" stroke-width="4"/>
<path opacity="0.816327" d="M180.33 161.104C200.528 157.904 219.522 160.085 233.88 166.093C248.271 172.115 257.705 181.823 259.562 193.552C261.42 205.281 255.449 217.43 243.622 227.604C231.823 237.755 214.433 245.697 194.235 248.897C174.037 252.096 155.044 249.915 140.686 243.908C126.294 237.886 116.861 228.177 115.003 216.448C113.145 204.719 119.117 192.571 130.943 182.396C142.742 172.245 160.132 164.303 180.33 161.104Z" stroke="url(#paint40_linear_60_453)" stroke-width="4"/>
<path opacity="0.836735" d="M188.835 160.583C208.375 161.266 225.793 166.994 238.159 175.597C250.545 184.215 257.644 195.532 257.229 207.442C256.813 219.352 248.941 230.147 235.984 237.88C223.048 245.6 205.273 250.099 185.732 249.417C166.192 248.734 148.774 243.006 136.408 234.402C124.022 225.785 116.922 214.467 117.338 202.557C117.754 190.647 125.625 179.853 138.583 172.12C151.519 164.4 169.294 159.901 188.835 160.583Z" stroke="url(#paint41_linear_60_453)" stroke-width="4"/>
<path opacity="0.857143" d="M197.279 161.695C215.454 165.891 230.671 174.646 240.605 185.307C250.547 195.979 255.055 208.372 252.365 220.026C249.674 231.679 240.19 240.842 226.575 246.075C212.974 251.302 195.458 252.501 177.284 248.305C159.11 244.109 143.892 235.354 133.959 224.693C124.016 214.022 119.509 201.628 122.199 189.975C124.889 178.321 134.374 169.158 147.988 163.925C161.59 158.698 179.105 157.5 197.279 161.695Z" stroke="url(#paint42_linear_60_453)" stroke-width="4"/>
<path opacity="0.877551" d="M205.36 164.399C221.576 171.619 234.107 182.777 241.298 194.887C248.493 207.003 250.269 219.903 245.386 230.869C240.504 241.835 229.729 249.147 215.911 251.908C202.099 254.667 185.422 252.821 169.207 245.601C152.991 238.382 140.46 227.224 133.269 215.113C126.074 202.997 124.298 190.097 129.18 179.131C134.063 168.165 144.838 160.853 158.656 158.092C172.468 155.333 189.144 157.179 205.36 164.399Z" stroke="url(#paint43_linear_60_453)" stroke-width="4"/>
<path opacity="0.897959" d="M212.775 168.594C226.574 178.257 236.088 191.125 240.37 204.04C244.652 216.955 243.677 229.78 236.767 239.649C229.856 249.518 218.138 254.821 204.537 255.214C190.936 255.607 175.591 251.069 161.791 241.406C147.991 231.744 138.478 218.876 134.196 205.961C129.913 193.045 130.889 180.22 137.799 170.351C144.709 160.482 156.427 155.179 170.028 154.786C183.629 154.393 198.975 158.931 212.775 168.594Z" stroke="url(#paint44_linear_60_453)" stroke-width="4"/>
<path opacity="0.918367" d="M219.252 174.127C241.536 197.202 244.378 229.402 227.027 246.157C209.676 262.913 177.596 258.949 155.312 235.873C133.028 212.797 130.186 180.598 147.536 163.842C164.887 147.087 196.968 151.051 219.252 174.127Z" stroke="url(#paint45_linear_60_453)" stroke-width="4"/>
<path opacity="0.938776" d="M224.557 180.794C241.007 206.125 237.011 237.121 216.706 250.307C196.401 263.493 166.46 254.536 150.01 229.206C133.56 203.875 137.556 172.879 157.861 159.693C178.166 146.506 208.107 155.463 224.557 180.794Z" stroke="url(#paint46_linear_60_453)" stroke-width="4"/>
<path opacity="0.959184" d="M228.489 188.351C239.099 214.611 228.864 243.021 206.323 252.128C183.782 261.236 156.684 247.909 146.074 221.649C135.465 195.389 145.7 166.979 168.241 157.871C190.782 148.764 217.88 162.091 228.489 188.351Z" stroke="url(#paint47_linear_60_453)" stroke-width="4"/>
<path opacity="0.979592" d="M230.909 196.52C235.954 222.47 220.345 247.101 196.372 251.761C172.398 256.421 148.699 239.431 143.655 213.48C138.611 187.53 154.219 162.898 178.193 158.238C202.166 153.578 225.865 170.569 230.909 196.52Z" stroke="url(#paint48_linear_60_453)" stroke-width="4"/>
<circle cx="187.282" cy="205" r="44.4437" stroke="url(#paint49_linear_60_453)" stroke-width="4"/>
<defs>
<linearGradient id="paint0_linear_60_453" x1="183.741" y1="407.87" x2="191.089" y2="-13.0854" gradientUnits="userSpaceOnUse">
<stop stop-color="#8144B3"/>
<stop offset="1" stop-color="#F1E4FD"/>
</linearGradient>
<linearGradient id="paint1_linear_60_453" x1="145.761" y1="400.344" x2="231.918" y2="-4.99459" gradientUnits="userSpaceOnUse">
<stop stop-color="#8144B3"/>
<stop offset="1" stop-color="#F1E4FD"/>
</linearGradient>
<linearGradient id="paint2_linear_60_453" x1="110.498" y1="385.893" x2="269.826" y2="10.5402" gradientUnits="userSpaceOnUse">
<stop stop-color="#8144B3"/>
<stop offset="1" stop-color="#F1E4FD"/>
</linearGradient>
<linearGradient id="paint3_linear_60_453" x1="79.18" y1="365.271" x2="303.496" y2="32.7087" gradientUnits="userSpaceOnUse">
<stop stop-color="#8144B3"/>
<stop offset="1" stop-color="#F1E4FD"/>
</linearGradient>
<linearGradient id="paint4_linear_60_453" x1="52.841" y1="339.441" x2="331.807" y2="60.4754" gradientUnits="userSpaceOnUse">
<stop stop-color="#8144B3"/>
<stop offset="1" stop-color="#F1E4FD"/>
</linearGradient>
<linearGradient id="paint5_linear_60_453" x1="32.3064" y1="309.533" x2="353.883" y2="92.6268" gradientUnits="userSpaceOnUse">
<stop stop-color="#8144B3"/>
<stop offset="1" stop-color="#F1E4FD"/>
</linearGradient>
<linearGradient id="paint6_linear_60_453" x1="18.1479" y1="276.794" x2="369.106" y2="127.821" gradientUnits="userSpaceOnUse">
<stop stop-color="#8144B3"/>
<stop offset="1" stop-color="#F1E4FD"/>
</linearGradient>
<linearGradient id="paint7_linear_60_453" x1="10.6778" y1="242.539" x2="377.132" y2="164.646" gradientUnits="userSpaceOnUse">
<stop stop-color="#8144B3"/>
<stop offset="1" stop-color="#F1E4FD"/>
</linearGradient>
<linearGradient id="paint8_linear_60_453" x1="9.95312" y1="208.095" x2="377.913" y2="201.673" gradientUnits="userSpaceOnUse">
<stop stop-color="#8144B3"/>
<stop offset="1" stop-color="#F1E4FD"/>
</linearGradient>
<linearGradient id="paint9_linear_60_453" x1="15.7641" y1="174.757" x2="371.664" y2="237.511" gradientUnits="userSpaceOnUse">
<stop stop-color="#8144B3"/>
<stop offset="1" stop-color="#F1E4FD"/>
</linearGradient>
<linearGradient id="paint10_linear_60_453" x1="27.6674" y1="143.729" x2="358.869" y2="270.866" gradientUnits="userSpaceOnUse">
<stop stop-color="#8144B3"/>
<stop offset="1" stop-color="#F1E4FD"/>
</linearGradient>
<linearGradient id="paint11_linear_60_453" x1="45.0001" y1="116.091" x2="340.239" y2="300.577" gradientUnits="userSpaceOnUse">
<stop stop-color="#8144B3"/>
<stop offset="1" stop-color="#F1E4FD"/>
</linearGradient>
<linearGradient id="paint12_linear_60_453" x1="66.9128" y1="92.7533" x2="316.68" y2="325.665" gradientUnits="userSpaceOnUse">
<stop stop-color="#8144B3"/>
<stop offset="1" stop-color="#F1E4FD"/>
</linearGradient>
<linearGradient id="paint13_linear_60_453" x1="92.4194" y1="74.4313" x2="289.262" y2="345.361" gradientUnits="userSpaceOnUse">
<stop stop-color="#8144B3"/>
<stop offset="1" stop-color="#F1E4FD"/>
</linearGradient>
<linearGradient id="paint14_linear_60_453" x1="120.424" y1="61.623" x2="259.154" y2="359.13" gradientUnits="userSpaceOnUse">
<stop stop-color="#8144B3"/>
<stop offset="1" stop-color="#F1E4FD"/>
</linearGradient>
<linearGradient id="paint15_linear_60_453" x1="149.783" y1="54.5984" x2="227.594" y2="366.682" gradientUnits="userSpaceOnUse">
<stop stop-color="#8144B3"/>
<stop offset="1" stop-color="#F1E4FD"/>
</linearGradient>
<linearGradient id="paint16_linear_60_453" x1="179.337" y1="53.3953" x2="195.824" y2="367.975" gradientUnits="userSpaceOnUse">
<stop stop-color="#8144B3"/>
<stop offset="1" stop-color="#F1E4FD"/>
</linearGradient>
<linearGradient id="paint17_linear_60_453" x1="207.966" y1="57.8264" x2="165.047" y2="363.211" gradientUnits="userSpaceOnUse">
<stop stop-color="#8144B3"/>
<stop offset="1" stop-color="#F1E4FD"/>
</linearGradient>
<linearGradient id="paint18_linear_60_453" x1="234.63" y1="67.4962" x2="136.387" y2="352.816" gradientUnits="userSpaceOnUse">
<stop stop-color="#8144B3"/>
<stop offset="1" stop-color="#F1E4FD"/>
</linearGradient>
<linearGradient id="paint19_linear_60_453" x1="258.399" y1="81.8219" x2="110.832" y2="337.416" gradientUnits="userSpaceOnUse">
<stop stop-color="#8144B3"/>
<stop offset="1" stop-color="#F1E4FD"/>
</linearGradient>
<linearGradient id="paint20_linear_60_453" x1="278.503" y1="100.064" x2="89.2233" y2="317.806" gradientUnits="userSpaceOnUse">
<stop stop-color="#8144B3"/>
<stop offset="1" stop-color="#F1E4FD"/>
</linearGradient>
<linearGradient id="paint21_linear_60_453" x1="294.332" y1="121.364" x2="72.2041" y2="294.909" gradientUnits="userSpaceOnUse">
<stop stop-color="#8144B3"/>
<stop offset="1" stop-color="#F1E4FD"/>
</linearGradient>
<linearGradient id="paint22_linear_60_453" x1="305.48" y1="144.776" x2="60.2222" y2="269.741" gradientUnits="userSpaceOnUse">
<stop stop-color="#8144B3"/>
<stop offset="1" stop-color="#F1E4FD"/>
</linearGradient>
<linearGradient id="paint23_linear_60_453" x1="311.729" y1="169.315" x2="53.5025" y2="243.361" gradientUnits="userSpaceOnUse">
<stop stop-color="#8144B3"/>
<stop offset="1" stop-color="#F1E4FD"/>
</linearGradient>
<linearGradient id="paint24_linear_60_453" x1="313.071" y1="193.995" x2="52.0605" y2="216.83" gradientUnits="userSpaceOnUse">
<stop stop-color="#8144B3"/>
<stop offset="1" stop-color="#F1E4FD"/>
</linearGradient>
<linearGradient id="paint25_linear_60_453" x1="309.684" y1="217.865" x2="55.7011" y2="191.17" gradientUnits="userSpaceOnUse">
<stop stop-color="#8144B3"/>
<stop offset="1" stop-color="#F1E4FD"/>
</linearGradient>
<linearGradient id="paint26_linear_60_453" x1="301.927" y1="240.05" x2="64.0397" y2="167.321" gradientUnits="userSpaceOnUse">
<stop stop-color="#8144B3"/>
<stop offset="1" stop-color="#F1E4FD"/>
</linearGradient>
<linearGradient id="paint27_linear_60_453" x1="290.313" y1="259.783" x2="76.5239" y2="146.109" gradientUnits="userSpaceOnUse">
<stop stop-color="#8144B3"/>
<stop offset="1" stop-color="#F1E4FD"/>
</linearGradient>
<linearGradient id="paint28_linear_60_453" x1="275.487" y1="276.426" x2="92.4645" y2="128.217" gradientUnits="userSpaceOnUse">
<stop stop-color="#8144B3"/>
<stop offset="1" stop-color="#F1E4FD"/>
</linearGradient>
<linearGradient id="paint29_linear_60_453" x1="258.186" y1="289.498" x2="111.064" y2="114.165" gradientUnits="userSpaceOnUse">
<stop stop-color="#8144B3"/>
<stop offset="1" stop-color="#F1E4FD"/>
</linearGradient>
<linearGradient id="paint30_linear_60_453" x1="239.211" y1="298.681" x2="131.46" y2="104.293" gradientUnits="userSpaceOnUse">
<stop stop-color="#8144B3"/>
<stop offset="1" stop-color="#F1E4FD"/>
</linearGradient>
<linearGradient id="paint31_linear_60_453" x1="219.396" y1="303.832" x2="152.763" y2="98.7561" gradientUnits="userSpaceOnUse">
<stop stop-color="#8144B3"/>
<stop offset="1" stop-color="#F1E4FD"/>
</linearGradient>
<linearGradient id="paint32_linear_60_453" x1="199.559" y1="304.974" x2="174.088" y2="97.5281" gradientUnits="userSpaceOnUse">
<stop stop-color="#8144B3"/>
<stop offset="1" stop-color="#F1E4FD"/>
</linearGradient>
<linearGradient id="paint33_linear_60_453" x1="180.478" y1="302.294" x2="194.595" y2="100.409" gradientUnits="userSpaceOnUse">
<stop stop-color="#8144B3"/>
<stop offset="1" stop-color="#F1E4FD"/>
</linearGradient>
<linearGradient id="paint34_linear_60_453" x1="162.865" y1="296.124" x2="213.53" y2="107.041" gradientUnits="userSpaceOnUse">
<stop stop-color="#8144B3"/>
<stop offset="1" stop-color="#F1E4FD"/>
</linearGradient>
<linearGradient id="paint35_linear_60_453" x1="147.327" y1="286.921" x2="230.235" y2="116.935" gradientUnits="userSpaceOnUse">
<stop stop-color="#8144B3"/>
<stop offset="1" stop-color="#F1E4FD"/>
</linearGradient>
<linearGradient id="paint36_linear_60_453" x1="134.352" y1="275.242" x2="244.184" y2="129.489" gradientUnits="userSpaceOnUse">
<stop stop-color="#8144B3"/>
<stop offset="1" stop-color="#F1E4FD"/>
</linearGradient>
<linearGradient id="paint37_linear_60_453" x1="124.294" y1="261.716" x2="254.996" y2="144.031" gradientUnits="userSpaceOnUse">
<stop stop-color="#8144B3"/>
<stop offset="1" stop-color="#F1E4FD"/>
</linearGradient>
<linearGradient id="paint38_linear_60_453" x1="117.367" y1="247.01" x2="262.443" y2="159.839" gradientUnits="userSpaceOnUse">
<stop stop-color="#8144B3"/>
<stop offset="1" stop-color="#F1E4FD"/>
</linearGradient>
<linearGradient id="paint39_linear_60_453" x1="113.635" y1="231.805" x2="266.453" y2="176.184" gradientUnits="userSpaceOnUse">
<stop stop-color="#8144B3"/>
<stop offset="1" stop-color="#F1E4FD"/>
</linearGradient>
<linearGradient id="paint40_linear_60_453" x1="113.028" y1="216.761" x2="267.107" y2="192.357" gradientUnits="userSpaceOnUse">
<stop stop-color="#8144B3"/>
<stop offset="1" stop-color="#F1E4FD"/>
</linearGradient>
<linearGradient id="paint41_linear_60_453" x1="115.34" y1="202.488" x2="264.623" y2="207.701" gradientUnits="userSpaceOnUse">
<stop stop-color="#8144B3"/>
<stop offset="1" stop-color="#F1E4FD"/>
</linearGradient>
<linearGradient id="paint42_linear_60_453" x1="120.25" y1="189.525" x2="259.341" y2="221.636" gradientUnits="userSpaceOnUse">
<stop stop-color="#8144B3"/>
<stop offset="1" stop-color="#F1E4FD"/>
</linearGradient>
<linearGradient id="paint43_linear_60_453" x1="127.353" y1="178.317" x2="251.708" y2="233.684" gradientUnits="userSpaceOnUse">
<stop stop-color="#8144B3"/>
<stop offset="1" stop-color="#F1E4FD"/>
</linearGradient>
<linearGradient id="paint44_linear_60_453" x1="136.16" y1="169.204" x2="242.239" y2="243.481" gradientUnits="userSpaceOnUse">
<stop stop-color="#8144B3"/>
<stop offset="1" stop-color="#F1E4FD"/>
</linearGradient>
<linearGradient id="paint45_linear_60_453" x1="146.147" y1="162.404" x2="231.502" y2="250.791" gradientUnits="userSpaceOnUse">
<stop stop-color="#8144B3"/>
<stop offset="1" stop-color="#F1E4FD"/>
</linearGradient>
<linearGradient id="paint46_linear_60_453" x1="156.771" y1="158.015" x2="220.084" y2="255.508" gradientUnits="userSpaceOnUse">
<stop stop-color="#8144B3"/>
<stop offset="1" stop-color="#F1E4FD"/>
</linearGradient>
<linearGradient id="paint47_linear_60_453" x1="167.492" y1="156.017" x2="208.557" y2="257.657" gradientUnits="userSpaceOnUse">
<stop stop-color="#8144B3"/>
<stop offset="1" stop-color="#F1E4FD"/>
</linearGradient>
<linearGradient id="paint48_linear_60_453" x1="177.811" y1="156.275" x2="197.464" y2="257.379" gradientUnits="userSpaceOnUse">
<stop stop-color="#8144B3"/>
<stop offset="1" stop-color="#F1E4FD"/>
</linearGradient>
<linearGradient id="paint49_linear_60_453" x1="187.282" y1="158.556" x2="187.282" y2="254.927" gradientUnits="userSpaceOnUse">
<stop stop-color="#8144B3"/>
<stop offset="1" stop-color="#F1E4FD"/>
</linearGradient>
</defs>
</svg>
