<svg width="390" height="346" viewBox="0 0 390 346" fill="none" xmlns="http://www.w3.org/2000/svg">
<path opacity="0.010101" d="M125.821 157.914L184.743 47.0976C188.505 40.0211 196.397 36.1722 204.29 37.5639L327.89 59.358C335.783 60.7497 341.882 67.0655 342.998 75.0022L360.465 199.288C361.58 207.224 357.458 214.977 350.255 218.49L237.45 273.509C230.246 277.022 221.6 275.498 216.032 269.732L128.848 179.45C123.28 173.685 122.058 164.99 125.821 157.914Z" stroke="url(#paint0_linear_59_195)" stroke-width="3"/>
<path opacity="0.020202" d="M124.53 156.233L185.24 46.7087C189.126 39.6989 197.083 35.9883 204.951 37.5176L327.875 61.4116C335.742 62.9409 341.73 69.3622 342.707 77.3172L357.968 201.609C358.945 209.564 354.688 217.243 347.424 220.63L233.932 273.552C226.668 276.939 218.05 275.264 212.584 269.403L127.18 177.819C121.714 171.957 120.644 163.243 124.53 156.233Z" stroke="url(#paint1_linear_59_195)" stroke-width="3"/>
<path opacity="0.030303" d="M123.277 154.559L185.748 46.3557C189.756 39.4148 197.777 35.8437 205.616 37.51L327.829 63.4871C335.668 65.1534 341.543 71.6782 342.381 79.649L355.441 203.907C356.279 211.878 351.889 219.482 344.567 222.742L230.426 273.561C223.104 276.82 214.516 274.995 209.153 269.039L125.55 176.188C120.187 170.232 119.27 161.5 123.277 154.559Z" stroke="url(#paint2_linear_59_195)" stroke-width="3"/>
<path opacity="0.040404" d="M122.063 152.894L186.268 46.039C190.396 39.169 198.478 35.7384 206.288 37.5413L327.753 65.5839C335.563 67.3868 341.323 74.0132 342.021 81.9974L352.886 206.184C353.585 214.168 349.063 221.694 341.685 224.826L226.934 273.534C219.557 276.666 211.002 274.691 205.744 268.642L123.959 174.559C118.701 168.511 117.935 159.764 122.063 152.894Z" stroke="url(#paint3_linear_59_195)" stroke-width="3"/>
<path opacity="0.050505" d="M120.887 151.237L186.798 45.7579C191.045 38.9611 199.185 35.672 206.962 37.611L327.646 67.7009C335.423 69.6398 341.066 76.3657 341.626 84.3609L350.302 208.437C350.861 216.432 346.208 223.878 338.777 226.88L223.455 273.473C216.024 276.475 207.505 274.351 202.353 268.212L122.404 172.932C117.252 166.793 116.64 158.034 120.887 151.237Z" stroke="url(#paint4_linear_59_195)" stroke-width="3"/>
<path opacity="0.0606061" d="M119.746 149.589L187.334 45.5125C191.699 38.7908 199.896 35.6443 207.638 37.7187L327.506 69.8373C335.247 71.9116 340.773 78.735 341.192 86.7387L347.687 210.665C348.106 218.669 343.324 226.033 335.842 228.905L219.988 273.377C212.506 276.249 204.025 273.977 198.981 267.748L120.884 171.307C115.841 165.078 115.381 156.31 119.746 149.589Z" stroke="url(#paint5_linear_59_195)" stroke-width="3"/>
<path opacity="0.0707071" d="M118.646 147.95L187.882 45.303C192.364 38.6586 200.615 35.6556 208.319 37.8648L327.337 71.9927C335.041 74.2019 340.447 81.1206 340.726 89.1304L345.048 212.87C345.327 220.879 340.418 228.158 332.886 230.9L216.538 273.247C209.007 275.988 200.567 273.568 195.633 267.252L119.405 169.685C114.471 163.369 114.164 154.594 118.646 147.95Z" stroke="url(#paint6_linear_59_195)" stroke-width="3"/>
<path opacity="0.0808081" d="M117.58 146.322L188.435 45.1305C193.033 38.5652 201.334 35.7067 208.999 38.05L327.133 74.1674C334.798 76.5107 340.082 83.5227 340.222 91.5362L342.378 215.05C342.518 223.063 337.482 230.256 329.904 232.865L213.101 273.083C205.523 275.692 197.127 273.125 192.303 266.725L117.96 168.067C113.136 161.666 112.983 152.888 117.58 146.322Z" stroke="url(#paint7_linear_59_195)" stroke-width="3"/>
<path opacity="0.0909091" d="M116.552 144.705L188.997 44.9937C193.708 38.5097 202.058 35.7965 209.681 38.2732L326.899 76.3597C334.521 78.8363 339.682 85.9395 339.682 93.9542V217.205C339.682 225.219 334.521 232.323 326.899 234.799L209.681 272.886C202.058 275.362 193.708 272.649 188.997 266.165L116.552 166.454C111.841 159.97 111.841 151.189 116.552 144.705Z" stroke="url(#paint8_linear_59_195)" stroke-width="3"/>
<path opacity="0.10101" d="M115.561 143.1L189.565 44.8929C194.389 38.492 202.785 35.925 210.363 38.5343L326.632 78.5689C334.21 81.1783 339.246 88.3704 339.106 96.3839L336.96 219.334C336.82 227.347 331.536 234.359 323.872 236.702L206.277 272.655C198.612 274.998 190.31 272.14 185.713 265.574L115.182 164.845C110.585 158.279 110.738 149.501 115.561 143.1Z" stroke="url(#paint9_linear_59_195)" stroke-width="3"/>
<path opacity="0.111111" d="M114.605 141.507L190.138 44.8291C195.072 38.5134 203.512 36.0933 211.044 38.8345L326.331 80.7957C333.862 83.5369 338.772 90.8159 338.492 98.8257L334.211 221.437C333.931 229.447 328.526 236.366 320.821 238.575L202.888 272.392C195.183 274.601 186.933 271.598 182.451 264.954L113.846 163.242C109.364 156.598 109.67 147.823 114.605 141.507Z" stroke="url(#paint10_linear_59_195)" stroke-width="3"/>
<path opacity="0.121212" d="M113.684 139.927L190.716 44.8009C195.76 38.5723 204.241 36.2999 211.723 39.1721L325.997 83.0378C333.479 85.9101 338.261 93.2736 337.842 101.277L331.436 223.514C331.016 231.518 325.491 238.341 317.749 240.415L199.516 272.096C191.774 274.17 183.577 271.024 179.212 264.302L112.546 161.645C108.181 154.923 108.641 146.155 113.684 139.927Z" stroke="url(#paint11_linear_59_195)" stroke-width="3"/>
<path opacity="0.131313" d="M112.801 138.361L191.3 44.8097C196.452 38.6701 204.971 36.546 212.402 39.5484L325.632 85.2962C333.063 88.2985 337.715 95.7444 337.156 103.74L328.638 225.564C328.078 233.56 322.435 240.285 314.658 242.224L196.163 271.768C188.387 273.707 180.246 270.418 175.999 263.621L111.284 160.056C107.037 153.259 107.649 144.5 112.801 138.361Z" stroke="url(#paint12_linear_59_195)" stroke-width="3"/>
<path opacity="0.141414" d="M111.953 136.809L191.888 44.8547C197.146 38.8059 205.701 36.8308 213.078 39.9624L325.233 87.5692C332.611 90.7008 337.133 98.2267 336.434 106.211L325.815 227.587C325.116 235.572 319.356 242.198 311.547 244.001L192.83 271.409C185.02 273.212 176.938 269.781 172.81 262.911L110.058 158.474C105.93 151.604 106.695 142.857 111.953 136.809Z" stroke="url(#paint13_linear_59_195)" stroke-width="3"/>
<path opacity="0.151515" d="M111.14 135.271L192.478 44.9356C197.841 38.9796 206.429 37.1541 213.751 40.4139L324.8 89.8561C332.121 93.116 336.511 100.72 335.674 108.69L322.967 229.583C322.13 237.553 316.255 244.078 308.415 245.745L189.513 271.018C181.674 272.684 173.653 269.113 169.645 262.172L108.866 156.9C104.859 149.959 105.777 141.227 111.14 135.271Z" stroke="url(#paint14_linear_59_195)" stroke-width="3"/>
<path opacity="0.161616" d="M110.36 133.749L193.07 45.0533C198.536 39.1917 207.155 37.5164 214.418 40.9036L324.332 92.1571C331.596 95.5442 335.852 103.223 334.876 111.178L320.096 231.55C319.119 239.505 313.131 245.927 305.264 247.456L186.216 270.597C178.348 272.126 170.391 268.415 166.505 261.405L107.709 155.335C103.824 148.325 104.894 139.611 110.36 133.749Z" stroke="url(#paint15_linear_59_195)" stroke-width="3"/>
<path opacity="0.171717" d="M109.615 132.243L193.665 45.2074C199.232 39.4421 207.879 37.9175 215.083 41.4309L323.831 94.4712C331.035 97.9846 335.157 105.737 334.041 113.674L317.202 233.49C316.087 241.427 309.988 247.743 302.095 249.134L182.939 270.145C175.046 271.536 167.155 267.688 163.392 260.611L106.589 153.78C102.826 146.703 104.048 138.009 109.615 132.243Z" stroke="url(#paint16_linear_59_195)" stroke-width="3"/>
<path opacity="0.181818" d="M108.905 130.754L194.261 45.3974C199.928 39.7301 208.6 38.3566 215.741 41.9952L323.296 96.7973C330.438 100.436 334.424 108.259 333.17 116.175L314.286 235.401C313.033 243.317 306.824 249.525 298.908 250.779L179.682 269.662C171.766 270.916 163.943 266.93 160.305 259.789L105.503 152.234C101.864 145.093 103.238 136.421 108.905 130.754Z" stroke="url(#paint17_linear_59_195)" stroke-width="3"/>
<path opacity="0.191919" d="M108.227 129.281L194.857 45.6238C200.622 40.0564 209.317 38.8344 216.393 42.5971L322.727 99.1355C329.803 102.898 333.652 110.79 332.26 118.683L311.348 237.283C309.956 245.176 303.64 251.275 295.704 252.39L176.446 269.151C168.509 270.266 160.757 266.144 157.243 258.941L104.45 150.699C100.937 143.496 102.462 134.849 108.227 129.281Z" stroke="url(#paint18_linear_59_195)" stroke-width="3"/>
<path opacity="0.20202" d="M107.583 127.826L195.453 45.8857C201.315 40.4197 210.029 39.3497 217.039 43.2353L322.123 101.484C329.133 105.37 332.843 113.327 331.314 121.195L308.389 239.135C306.859 247.002 300.438 252.99 292.483 253.967L173.231 268.609C165.276 269.586 157.597 265.329 154.209 258.066L103.433 149.175C100.046 141.911 101.721 133.292 107.583 127.826Z" stroke="url(#paint19_linear_59_195)" stroke-width="3"/>
<path opacity="0.212121" d="M106.972 126.39L196.049 46.1845C202.005 40.8217 210.737 39.9039 217.678 43.9113L321.485 103.844C328.426 107.851 331.997 115.872 330.331 123.712L305.409 240.958C303.743 248.798 297.218 254.673 289.247 255.511L170.038 268.04C162.067 268.878 154.464 264.488 151.204 257.166L102.45 147.663C99.1901 140.341 101.016 131.753 106.972 126.39Z" stroke="url(#paint20_linear_59_195)" stroke-width="3"/>
<path opacity="0.222222" d="M106.393 124.973L196.644 46.5185C202.692 41.2604 211.439 40.4952 218.309 44.6231L320.812 106.213C327.682 110.341 331.113 118.423 329.31 126.232L302.409 242.751C300.607 250.561 293.98 256.321 285.996 257.019L166.867 267.442C158.883 268.14 151.357 263.618 148.226 256.241L101.5 146.163C98.3689 138.786 100.344 130.231 106.393 124.973Z" stroke="url(#paint21_linear_59_195)" stroke-width="3"/>
<path opacity="0.232323" d="M105.846 123.575L197.236 46.889C203.376 41.7373 212.135 41.1248 218.932 45.372L320.105 108.592C326.902 112.839 330.191 120.98 328.252 128.757L299.39 244.515C297.451 252.291 290.726 257.935 282.73 258.494L163.719 266.816C155.724 267.375 148.278 262.722 145.276 255.291L100.585 144.677C97.5824 137.246 99.7065 128.726 105.846 123.575Z" stroke="url(#paint22_linear_59_195)" stroke-width="3"/>
<path opacity="0.242424" d="M105.331 122.197L197.827 47.2952C204.055 42.2514 212.823 41.7919 219.545 46.157L319.363 110.98C326.085 115.345 329.231 123.542 327.157 131.283L296.352 246.247C294.278 253.989 287.455 259.514 279.451 259.934L160.595 266.163C152.591 266.582 145.227 261.8 142.355 254.318L99.7022 143.204C96.83 135.721 99.1024 127.24 105.331 122.197Z" stroke="url(#paint23_linear_59_195)" stroke-width="3"/>
<path opacity="0.252525" d="M104.847 120.839L198.413 47.7366C204.729 42.8022 213.504 42.4958 220.148 46.9776L318.586 113.375C325.231 117.857 328.234 126.107 326.024 133.811L293.296 247.949C291.087 255.653 284.168 261.059 276.158 261.339L157.493 265.482C149.483 265.762 142.204 260.852 139.463 253.321L98.8524 141.744C96.1112 134.213 98.5313 125.773 104.847 120.839Z" stroke="url(#paint24_linear_59_195)" stroke-width="3"/>
<path opacity="0.262626" d="M104.394 119.502L198.997 48.2134C205.398 43.39 214.177 43.2368 220.742 47.8338L317.775 115.777C324.34 120.374 327.199 128.676 324.855 136.34L290.222 249.62C287.879 257.284 280.867 262.568 272.853 262.708L154.416 264.775C146.403 264.915 139.21 259.879 136.601 252.301L98.0358 140.299C95.4264 132.721 97.9935 124.325 104.394 119.502Z" stroke="url(#paint25_linear_59_195)" stroke-width="3"/>
<path opacity="0.272727" d="M103.971 118.187L199.576 48.7259C206.06 44.015 214.84 44.015 221.324 48.726L316.928 118.187C323.412 122.897 326.125 131.248 323.648 138.87L287.131 251.26C284.654 258.882 277.551 264.043 269.536 264.043L151.363 264.043C143.348 264.043 136.245 258.882 133.768 251.26L97.2508 138.87C94.7741 131.248 97.4873 122.897 103.971 118.187Z" stroke="url(#paint26_linear_59_195)" stroke-width="3"/>
<path opacity="0.282828" d="M103.577 116.893L200.148 49.2735C206.714 44.6765 215.492 44.8297 221.893 49.653L316.045 120.602C322.446 125.425 325.013 133.822 322.404 141.4L284.022 252.868C281.413 260.446 274.221 265.482 266.207 265.342L148.334 263.285C140.32 263.145 133.308 257.861 130.965 250.196L96.497 137.456C94.1537 129.792 97.0122 121.49 103.577 116.893Z" stroke="url(#paint27_linear_59_195)" stroke-width="3"/>
<path opacity="0.292929" d="M103.213 115.623L200.716 49.8564C207.36 45.3747 216.135 45.6811 222.45 50.6154L315.128 123.023C321.443 127.957 323.864 136.397 321.122 143.929L280.898 254.445C278.156 261.976 270.878 266.886 262.868 266.606L145.33 262.502C137.32 262.222 130.401 256.817 128.192 249.113L95.7748 136.059C93.5657 128.355 96.5686 120.104 103.213 115.623Z" stroke="url(#paint28_linear_59_195)" stroke-width="3"/>
<path opacity="0.30303" d="M102.879 114.375L201.278 50.4736C207.999 46.1084 216.767 46.5679 222.996 51.6118L314.176 125.448C320.405 130.492 322.677 138.973 319.805 146.455L277.759 255.99C274.886 263.472 267.523 268.254 259.519 267.834L142.353 261.694C134.349 261.275 127.526 255.749 125.451 248.008L95.0848 134.678C93.0105 126.936 96.157 118.74 102.879 114.375Z" stroke="url(#paint29_linear_59_195)" stroke-width="3"/>
<path opacity="0.313131" d="M102.572 113.15L201.832 51.1259C208.628 46.8788 217.387 47.4913 223.527 52.643L313.188 127.878C319.328 133.03 321.452 141.549 318.45 148.98L274.604 257.503C271.602 264.934 264.156 269.586 256.16 269.027L139.4 260.863C131.405 260.304 124.679 254.66 122.74 246.883L94.4246 133.315C92.4857 125.538 95.7747 117.398 102.572 113.15Z" stroke="url(#paint30_linear_59_195)" stroke-width="3"/>
<path opacity="0.323232" d="M102.294 111.949L202.38 51.812C209.25 47.6842 217.996 48.4494 224.045 53.7075L312.167 130.311C318.216 135.569 320.191 144.124 317.06 151.502L271.437 258.983C268.305 266.36 260.779 270.882 252.795 270.184L136.476 260.007C128.492 259.309 121.865 253.548 120.063 245.739L93.7966 131.969C91.9937 124.159 95.4243 116.077 102.294 111.949Z" stroke="url(#paint31_linear_59_195)" stroke-width="3"/>
<path opacity="0.333333" d="M102.043 110.774L202.919 52.533C209.86 48.5257 218.591 49.4434 224.548 54.8063L311.11 132.747C317.066 138.11 318.891 146.698 315.632 154.02L268.254 260.431C264.995 267.753 257.391 272.143 249.42 271.305L133.577 259.129C125.606 258.292 119.081 252.417 117.415 244.577L93.1974 130.641C91.531 122.802 95.1022 114.781 102.043 110.774Z" stroke="url(#paint32_linear_59_195)" stroke-width="3"/>
<path opacity="0.343434" d="M101.82 109.622L203.45 53.2875C210.459 49.4019 219.174 50.4719 225.035 55.9379L310.018 135.185C315.88 140.651 317.555 149.27 314.168 156.534L265.06 261.846C261.673 269.11 253.994 273.366 246.039 272.39L130.706 258.229C122.751 257.252 116.33 251.264 114.8 243.396L92.6285 129.332C91.0992 121.465 94.8098 113.508 101.82 109.622Z" stroke="url(#paint33_linear_59_195)" stroke-width="3"/>
<path opacity="0.353535" d="M101.621 108.496L203.97 54.0765C211.046 50.3138 219.741 51.5358 225.506 57.1032L308.89 137.626C314.655 143.193 316.18 151.84 312.666 159.044L261.852 263.229C258.338 270.433 250.586 274.555 242.649 273.439L127.861 257.307C119.924 256.191 113.608 250.092 112.216 242.199L92.0875 128.043C90.6958 120.15 94.5447 112.259 101.621 108.496Z" stroke="url(#paint34_linear_59_195)" stroke-width="3"/>
<path opacity="0.363636" d="M101.449 107.396L204.481 54.8985C211.622 51.2599 220.294 52.6334 225.961 58.3007L307.727 140.067C313.395 145.734 314.768 154.406 311.13 161.547L258.632 264.579C254.994 271.72 247.171 275.706 239.255 274.452L125.044 256.363C117.128 255.109 110.919 248.901 109.665 240.985L91.5761 126.773C90.3223 118.857 94.3083 111.034 101.449 107.396Z" stroke="url(#paint35_linear_59_195)" stroke-width="3"/>
<path opacity="0.373737" d="M101.304 106.322L204.982 55.7542C212.186 52.2408 220.832 53.7655 226.4 59.5308L306.531 142.509C312.098 148.274 313.32 156.968 309.557 164.045L255.402 265.896C251.64 272.972 243.748 276.821 235.855 275.429L122.255 255.398C114.362 254.007 108.263 247.691 107.148 239.754L91.0937 125.524C89.9782 117.587 94.1002 109.835 101.304 106.322Z" stroke="url(#paint36_linear_59_195)" stroke-width="3"/>
<path opacity="0.383838" d="M101.183 105.273L205.472 56.6424C212.736 53.2553 221.355 54.9306 226.821 60.7921L305.299 144.95C310.765 150.811 311.835 159.526 307.949 166.536L252.162 267.179C248.276 274.188 240.319 277.899 232.451 276.37L119.495 254.413C111.627 252.884 105.639 246.463 104.663 238.508L90.6389 124.295C89.6622 116.34 93.9188 108.661 101.183 105.273Z" stroke="url(#paint37_linear_59_195)" stroke-width="3"/>
<path opacity="0.393939" d="M101.086 104.253L205.95 57.5638C213.272 54.3039 221.86 56.1294 227.223 62.0855L304.032 147.39C309.395 153.346 310.312 162.078 306.305 169.019L248.911 268.429C244.903 275.37 236.882 278.941 229.043 277.275L116.762 253.409C108.923 251.742 103.048 245.218 102.21 237.247L90.2115 123.087C89.3737 115.116 93.7637 107.512 101.086 104.253Z" stroke="url(#paint38_linear_59_195)" stroke-width="3"/>
<path opacity="0.40404" d="M101.013 103.258L206.417 58.5171C213.794 55.3855 222.349 57.3606 227.608 63.4093L302.731 149.829C307.989 155.877 308.754 164.624 304.626 171.494L245.651 269.645C241.523 276.515 233.441 279.946 225.632 278.143L114.06 252.384C106.251 250.582 100.49 243.955 99.7918 235.971L89.8119 121.9C89.1134 113.916 93.6354 106.39 101.013 103.258Z" stroke="url(#paint39_linear_59_195)" stroke-width="3"/>
<path opacity="0.414141" d="M100.965 102.293L206.872 59.5033C214.303 56.501 222.822 58.6251 227.974 64.7647L301.396 152.266C306.548 158.405 307.16 167.164 302.913 173.961L242.383 270.829C238.136 277.626 229.995 280.915 222.219 278.976L111.387 251.342C103.611 249.403 97.9668 242.678 97.4078 234.682L89.4399 120.736C88.8808 112.741 93.5335 105.295 100.965 102.293Z" stroke="url(#paint40_linear_59_195)" stroke-width="3"/>
<path opacity="0.424242" d="M100.937 101.355L207.311 60.5213C214.794 57.6491 223.275 59.9215 228.318 66.1501L300.025 154.7C305.069 160.929 305.528 169.697 301.163 176.418L239.105 271.979C234.74 278.7 226.543 281.847 218.802 279.772L108.742 250.282C101 248.207 95.4748 241.384 95.0553 233.38L89.092 119.594C88.6726 111.59 93.4545 104.227 100.937 101.355Z" stroke="url(#paint41_linear_59_195)" stroke-width="3"/>
<path opacity="0.434343" d="M100.932 100.445L207.738 61.5706C215.27 58.8294 223.71 61.2495 228.644 67.5652L298.62 157.131C303.555 163.447 303.861 172.221 299.379 178.866L235.821 273.094C231.339 279.739 223.089 282.742 215.385 280.533L106.127 249.204C98.4229 246.995 93.0174 240.076 92.7377 232.066L88.771 118.475C88.4913 110.465 93.401 103.186 100.932 100.445Z" stroke="url(#paint42_linear_59_195)" stroke-width="3"/>
<path opacity="0.444444" d="M100.95 99.5639L208.151 62.6515C215.729 60.0422 224.125 62.6092 228.949 69.01L297.182 159.558C302.005 165.959 302.158 174.738 297.561 181.303L232.53 274.177C227.933 280.742 219.631 283.601 211.967 281.257L103.542 248.109C95.878 245.766 90.594 238.753 90.4542 230.74L88.4754 117.379C88.3355 109.365 93.3716 102.173 100.95 99.5639Z" stroke="url(#paint43_linear_59_195)" stroke-width="3"/>
<path opacity="0.454545" d="M100.986 98.7123L208.547 63.7636C216.17 61.2869 224.52 64.0001 229.231 70.4841L295.707 161.981C300.418 168.465 300.418 177.245 295.707 183.729L229.231 275.226C224.52 281.71 216.17 284.423 208.547 281.946L100.986 246.998C93.3638 244.521 88.2031 237.418 88.2031 229.403L88.2031 116.307C88.2031 108.292 93.3638 101.189 100.986 98.7123Z" stroke="url(#paint44_linear_59_195)" stroke-width="3"/>
<path opacity="0.464646" d="M101.046 97.8897L208.931 64.906C216.595 62.5627 224.897 65.4212 229.494 71.9864L294.201 164.399C298.798 170.964 298.645 179.742 293.822 186.143L225.929 276.241C221.105 282.642 212.709 285.209 205.131 282.599L98.4627 245.871C90.8847 243.261 85.8487 236.069 85.9886 228.056L87.9575 115.258C88.0973 107.245 93.3813 100.233 101.046 97.8897Z" stroke="url(#paint45_linear_59_195)" stroke-width="3"/>
<path opacity="0.474747" d="M101.125 97.0965L209.298 66.0785C217.002 63.8693 225.252 66.8723 229.734 73.5167L292.661 166.81C297.143 173.455 296.837 182.229 291.902 188.545L222.621 277.222C217.686 283.537 209.246 285.957 201.715 283.216L95.9695 244.728C88.4381 241.987 83.5284 234.708 83.8081 226.698L87.7354 114.234C88.0151 106.224 93.4206 99.3057 101.125 97.0965Z" stroke="url(#paint46_linear_59_195)" stroke-width="3"/>
<path opacity="0.484848" d="M101.222 96.3336L209.647 67.2811C217.389 65.2067 225.586 68.3532 229.951 75.0749L291.087 169.216C295.452 175.937 294.992 184.705 289.949 190.934L219.307 278.169C214.263 284.397 205.783 286.67 198.3 283.798L93.5057 243.571C86.0234 240.699 81.2414 233.335 81.6609 225.331L87.5356 113.235C87.9551 105.231 93.4805 98.4079 101.222 96.3336Z" stroke="url(#paint47_linear_59_195)" stroke-width="3"/>
<path opacity="0.494949" d="M101.34 95.6006L209.982 68.513C217.759 66.5741 225.9 69.8632 230.147 76.66L289.481 171.614C293.728 178.411 293.115 187.17 287.964 193.309L215.992 279.082C210.84 285.222 202.321 287.346 194.89 284.343L91.075 242.399C83.6439 239.397 78.9912 231.951 79.5503 223.956L87.3608 112.261C87.9198 104.265 93.5635 97.5395 101.34 95.6006Z" stroke="url(#paint48_linear_59_195)" stroke-width="3"/>
<path opacity="0.50505" d="M101.476 94.8987L210.299 69.7748C218.108 67.9719 226.19 71.4026 230.318 78.2725L287.841 174.006C291.969 180.876 291.204 189.623 285.945 195.671L212.673 279.962C207.415 286.011 198.86 287.986 191.482 284.854L88.6746 241.215C81.297 238.083 76.775 230.557 77.4735 222.573L87.2076 111.312C87.9061 103.328 93.6663 96.7017 101.476 94.8987Z" stroke="url(#paint49_linear_59_195)" stroke-width="3"/>
<path opacity="0.515152" d="M101.627 94.2275L210.597 71.0653C218.436 69.399 226.457 72.9701 230.465 79.9111L286.167 176.39C290.174 183.331 289.256 192.063 283.893 198.019L209.349 280.808C203.987 286.764 195.398 288.59 188.077 285.33L86.304 240.018C78.9823 236.758 74.5922 229.154 75.43 221.183L87.0749 110.389C87.9127 102.419 93.7876 95.8939 101.627 94.2275Z" stroke="url(#paint50_linear_59_195)" stroke-width="3"/>
<path opacity="0.525253" d="M101.796 93.5871L210.877 72.384C218.744 70.8548 226.702 74.5654 230.587 81.5752L284.46 178.765C288.346 185.774 287.276 194.489 281.81 200.351L206.025 281.62C200.559 287.482 191.94 289.157 184.676 285.77L83.9657 238.808C76.7019 235.42 72.4453 227.741 73.422 219.786L86.9644 109.493C87.9411 101.538 93.9291 95.1164 101.796 93.5871Z" stroke="url(#paint51_linear_59_195)" stroke-width="3"/>
<path opacity="0.535354" d="M101.983 92.9782L211.139 73.7311C219.032 72.3393 226.924 76.1882 230.686 83.2648L282.722 181.131C286.485 188.207 285.263 196.902 279.696 202.667L202.7 282.398C197.132 288.164 188.486 289.688 181.282 286.175L81.6599 237.586C74.4564 234.073 70.3344 226.32 71.4498 218.384L86.8757 108.622C87.9912 100.686 94.0903 94.3699 101.983 92.9782Z" stroke="url(#paint52_linear_59_195)" stroke-width="3"/>
<path opacity="0.545455" d="M102.185 92.4007L211.382 75.1056C219.298 73.8518 227.121 77.8379 230.759 84.979L280.952 183.487C284.59 190.628 283.217 199.3 277.549 204.967L199.373 283.143C193.706 288.81 185.034 290.184 177.893 286.545L79.3852 236.353C72.2441 232.715 68.258 224.892 69.5118 216.976L86.8069 107.779C88.0606 99.8628 94.2691 93.6544 102.185 92.4007Z" stroke="url(#paint53_linear_59_195)" stroke-width="3"/>
<path opacity="0.555556" d="M102.402 91.8548L211.604 76.5073C219.541 75.3919 227.293 79.5139 230.807 86.7174L279.148 185.833C282.662 193.036 281.137 201.683 275.372 207.25L196.046 283.854C190.281 289.422 181.586 290.644 174.51 286.881L77.142 235.11C70.0655 231.347 66.2166 223.456 67.6083 215.563L86.7575 106.962C88.1492 99.0693 94.4651 92.9702 102.402 91.8548Z" stroke="url(#paint54_linear_59_195)" stroke-width="3"/>
<path opacity="0.565657" d="M102.634 91.3412L211.808 77.9363C219.763 76.9596 227.442 81.2162 230.829 88.48L277.314 188.168C280.702 195.432 279.026 204.051 273.165 209.517L192.72 284.532C186.859 289.998 178.144 291.068 171.134 287.183L74.9318 233.857C67.922 229.971 64.2114 222.014 65.7407 214.146L86.7284 106.173C88.2577 98.3059 94.679 92.3179 102.634 91.3412Z" stroke="url(#paint55_linear_59_195)" stroke-width="3"/>
<path opacity="0.575758" d="M102.879 90.8593L211.99 79.3913C219.961 78.5535 227.565 82.9435 230.824 90.2653L275.448 190.492C278.708 197.814 276.883 206.402 270.927 211.765L189.395 285.176C183.439 290.539 174.707 291.457 167.766 287.449L72.7529 232.594C65.812 228.586 62.2408 220.565 63.9072 212.726L86.7175 105.412C88.3839 97.572 94.9087 91.697 102.879 90.8593Z" stroke="url(#paint56_linear_59_195)" stroke-width="3"/>
<path opacity="0.585859" d="M103.138 90.4102L212.151 80.8728C220.135 80.1743 227.661 84.6963 230.793 92.0739L273.55 192.804C276.682 200.182 274.707 208.737 268.658 213.995L186.071 285.787C180.022 291.045 171.275 291.811 164.405 287.683L70.6059 231.322C63.736 227.194 60.3053 219.112 62.1082 211.303L86.7245 104.678C88.5274 96.869 95.1538 91.1087 103.138 90.4102Z" stroke="url(#paint57_linear_59_195)" stroke-width="3"/>
<path opacity="0.59596" d="M103.41 89.9933L212.292 82.3795C220.287 81.8205 227.733 86.4732 230.735 93.9042L271.623 195.104C274.625 202.535 272.501 211.054 266.361 216.206L182.75 286.365C176.61 291.516 167.851 292.129 161.054 287.882L68.4921 230.042C61.6953 225.795 58.4062 217.655 60.3451 209.878L86.7503 103.973C88.6892 96.1961 95.4151 90.5523 103.41 89.9933Z" stroke="url(#paint58_linear_59_195)" stroke-width="3"/>
<path opacity="0.606061" d="M103.695 89.6093L212.411 83.9117C220.415 83.4922 227.779 88.2742 230.651 95.7565L269.665 197.391C272.537 204.874 270.264 213.354 264.036 218.398L179.432 286.909C173.203 291.953 164.435 292.413 157.713 288.048L66.411 228.755C59.6894 224.39 56.5429 216.193 58.6172 208.452L86.7937 103.296C88.868 95.5542 95.6914 90.0287 103.695 89.6093Z" stroke="url(#paint59_linear_59_195)" stroke-width="3"/>
<path opacity="0.616162" d="M103.991 89.2578L212.508 85.4683C220.518 85.1886 227.797 90.0983 230.538 97.6297L267.676 199.665C270.417 207.196 267.997 215.636 261.682 220.57L176.117 287.421C169.801 292.355 161.026 292.662 154.382 288.18L64.3622 227.461C57.7177 222.979 54.7148 214.729 56.9239 207.024L86.8536 102.647C89.0627 94.943 95.9815 89.5375 103.991 89.2578Z" stroke="url(#paint60_linear_59_195)" stroke-width="3"/>
<path opacity="0.626263" d="M104.297 88.9397L212.581 87.0496C220.595 86.9097 227.787 91.9457 230.396 99.5237L265.656 201.925C268.265 209.503 265.698 217.899 259.297 222.722L172.804 287.9C166.403 292.723 157.625 292.876 151.059 288.279L62.3441 226.16C55.7788 221.563 52.9203 213.262 55.2636 205.597L86.9279 102.028C89.2711 94.3635 96.2832 89.0796 104.297 88.9397Z" stroke="url(#paint61_linear_59_195)" stroke-width="3"/>
<path opacity="0.636364" d="M104.614 88.6547L212.633 88.6547C220.648 88.6547 227.751 93.8155 230.228 101.438L263.607 204.17C266.084 211.793 263.371 220.143 256.887 224.854L169.498 288.346C163.014 293.057 154.233 293.057 147.749 288.346L60.36 224.854C53.876 220.143 51.1629 211.793 53.6395 204.17L87.0193 101.438C89.496 93.8155 96.5992 88.6547 104.614 88.6547Z" stroke="url(#paint62_linear_59_195)" stroke-width="3"/>
<path opacity="0.646465" d="M104.941 88.4025L212.662 90.2828C220.675 90.4226 227.687 95.7066 230.03 103.371L261.53 206.401C263.873 214.065 261.015 222.367 254.449 226.964L166.196 288.759C159.631 293.356 150.852 293.203 144.451 288.38L58.4086 223.542C52.0078 218.719 49.4408 210.322 52.0501 202.744L87.1259 100.877C89.7352 93.2986 96.9274 88.2626 104.941 88.4025Z" stroke="url(#paint63_linear_59_195)" stroke-width="3"/>
<path opacity="0.656566" d="M105.276 88.184L212.665 91.9341C220.675 92.2138 227.594 97.6193 229.803 105.324L259.422 208.616C261.631 216.32 258.628 224.571 251.983 229.053L162.899 289.141C156.254 293.622 147.48 293.316 141.164 288.382L56.4883 222.226C50.1726 217.291 47.7526 208.852 50.4937 201.32L87.2456 100.345C89.9867 92.814 97.2657 87.9043 105.276 88.184Z" stroke="url(#paint64_linear_59_195)" stroke-width="3"/>
<path opacity="0.666667" d="M105.62 87.9982L212.646 93.6072C220.65 94.0267 227.473 99.5521 229.547 107.294L257.286 210.815C259.36 218.557 256.214 226.753 249.492 231.119L159.609 289.489C152.887 293.854 144.119 293.395 137.891 288.351L54.6016 220.905C48.373 215.861 46.1005 207.38 48.9727 199.898L87.3801 99.8431C90.2523 92.3607 97.6159 87.5788 105.62 87.9982Z" stroke="url(#paint65_linear_59_195)" stroke-width="3"/>
<path opacity="0.676768" d="M105.972 87.8465L212.603 95.3028C220.598 95.8619 227.324 101.506 229.263 109.282L255.122 212.998C257.061 220.775 253.772 228.915 246.975 233.163L156.326 289.806C149.529 294.053 140.771 293.441 134.631 288.289L52.7479 219.581C46.6082 214.429 44.4842 205.91 47.4865 198.479L87.5286 99.3712C90.531 91.9401 97.9768 87.2874 105.972 87.8465Z" stroke="url(#paint66_linear_59_195)" stroke-width="3"/>
<path opacity="0.686869" d="M106.33 87.7281L212.533 97.0197C220.517 97.7182 227.144 103.478 228.946 111.288L252.928 215.164C254.731 222.974 251.301 231.056 244.431 235.183L153.049 290.091C146.179 294.219 137.432 293.454 131.384 288.196L50.9247 218.254C44.876 212.996 42.9009 204.441 46.0325 197.063L87.6879 98.9291C90.8195 91.5516 98.3455 87.0295 106.33 87.7281Z" stroke="url(#paint67_linear_59_195)" stroke-width="3"/>
<path opacity="0.69697" d="M106.695 87.6431L212.44 98.7573C220.411 99.5951 226.935 105.47 228.602 113.31L250.708 217.313C252.375 225.153 248.804 233.174 241.863 237.181L149.781 290.344C142.84 294.352 134.108 293.434 128.152 288.071L49.1356 216.924C43.1795 211.562 41.3541 202.973 44.6139 195.652L87.861 98.5171C91.1209 91.1954 98.7246 86.8054 106.695 87.6431Z" stroke="url(#paint68_linear_59_195)" stroke-width="3"/>
<path opacity="0.707071" d="M107.067 87.5925L212.321 100.516C220.276 101.493 226.698 107.481 228.227 115.348L248.461 219.445C249.991 227.312 246.28 235.27 239.27 239.155L146.521 290.567C139.511 294.452 130.797 293.382 124.935 287.916L47.379 215.594C41.5174 210.128 39.8421 201.509 43.2293 194.245L88.0458 98.1361C91.4329 90.8724 99.1121 86.6157 107.067 87.5925Z" stroke="url(#paint69_linear_59_195)" stroke-width="3"/>
<path opacity="0.717172" d="M107.444 87.5747L212.177 102.294C220.114 103.409 226.43 109.509 227.821 117.402L246.187 221.558C247.579 229.45 243.73 237.342 236.653 241.105L143.27 290.757C136.194 294.52 127.499 293.298 121.734 287.73L45.6545 214.261C39.8892 208.694 38.3645 200.047 41.8779 192.844L88.2413 97.7848C91.7547 90.5813 99.507 86.4593 107.444 87.5747Z" stroke="url(#paint70_linear_59_195)" stroke-width="3"/>
<path opacity="0.727273" d="M107.825 87.5912L212.007 104.092C219.923 105.346 226.132 111.554 227.385 119.47L243.886 223.652C245.14 231.568 241.154 239.391 234.013 243.03L140.029 290.917C132.888 294.556 124.216 293.182 118.549 287.515L43.9624 212.929C38.2952 207.262 36.9217 198.59 40.5603 191.449L88.4475 97.4646C92.0861 90.3235 99.9092 86.3375 107.825 87.5912Z" stroke="url(#paint71_linear_59_195)" stroke-width="3"/>
<path opacity="0.737374" d="M108.21 87.6412L211.811 105.909C219.704 107.301 225.803 113.616 226.918 121.553L241.559 225.728C242.675 233.665 238.553 241.417 231.349 244.93L136.797 291.046C129.594 294.56 120.947 293.035 115.38 287.27L42.3024 211.596C36.7349 205.831 35.513 197.136 39.2756 190.06L88.6634 97.1749C92.4261 90.0984 100.318 86.2495 108.21 87.6412Z" stroke="url(#paint72_linear_59_195)" stroke-width="3"/>
<path opacity="0.747475" d="M108.599 87.7253L211.589 107.744C219.456 109.274 225.444 115.695 226.421 123.65L239.207 227.784C240.184 235.739 235.927 243.419 228.663 246.806L133.576 291.145C126.313 294.533 117.694 292.857 112.228 286.996L40.6749 210.264C35.2089 204.403 34.1389 195.688 38.0245 188.679L88.8891 96.9164C92.7747 89.9066 100.732 86.196 108.599 87.7253Z" stroke="url(#paint73_linear_59_195)" stroke-width="3"/>
<path opacity="0.757576" d="M108.992 87.8424L211.34 109.597C219.18 111.263 225.055 117.788 225.893 125.759L236.83 229.82C237.668 237.791 233.278 245.395 225.956 248.655L130.367 291.214C123.046 294.473 114.457 292.648 109.095 286.692L39.0804 208.933C33.7176 202.977 32.7998 194.245 36.8071 187.304L89.1244 96.6881C93.1318 89.7472 101.153 86.176 108.992 87.8424Z" stroke="url(#paint74_linear_59_195)" stroke-width="3"/>
<path opacity="0.767677" d="M109.386 87.9936L211.064 111.468C218.873 113.271 224.633 119.897 225.332 127.881L234.427 231.837C235.125 239.821 230.603 247.347 223.226 250.478L127.169 291.252C119.791 294.384 111.236 292.409 105.978 286.36L37.5165 207.604C32.2584 201.555 31.4932 192.809 35.621 185.939L89.3665 96.4912C93.4944 89.6213 101.576 86.1907 109.386 87.9936Z" stroke="url(#paint75_linear_59_195)" stroke-width="3"/>
<path opacity="0.777778" d="M109.781 88.1787L210.76 113.356C218.537 115.295 224.18 122.02 224.739 130.016L231.999 233.833C232.558 241.828 227.905 249.274 220.474 252.276L123.982 291.261C116.551 294.264 108.032 292.14 102.88 286L35.9846 206.277C30.8329 200.138 30.2204 191.379 34.4676 184.582L89.6165 96.3256C93.8636 89.5288 102.004 86.2398 109.781 88.1787Z" stroke="url(#paint76_linear_59_195)" stroke-width="3"/>
<path opacity="0.787879" d="M110.178 88.3973L210.43 115.26C218.171 117.334 223.697 124.157 224.116 132.161L229.548 235.807C229.968 243.811 225.186 251.175 217.703 254.047L120.808 291.241C113.326 294.113 104.845 291.841 99.8014 285.612L34.4853 204.954C29.4415 198.725 28.982 189.957 33.3471 183.235L89.8743 96.1911C94.2394 89.4695 102.436 86.323 110.178 88.3973Z" stroke="url(#paint77_linear_59_195)" stroke-width="3"/>
<path opacity="0.79798" d="M110.575 88.649L210.071 117.179C217.775 119.388 223.181 126.307 223.461 134.317L227.073 237.76C227.353 245.77 222.443 253.049 214.912 255.79L117.647 291.191C110.116 293.933 101.676 291.512 96.7419 285.197L33.017 203.633C28.0827 197.317 27.7763 188.542 32.258 181.898L90.138 96.0873C94.6198 89.4428 102.87 86.4399 110.575 88.649Z" stroke="url(#paint78_linear_59_195)" stroke-width="3"/>
<path opacity="0.808081" d="M110.972 88.9348L209.686 119.115C217.35 121.458 222.634 128.47 222.774 136.483L224.576 239.692C224.716 247.705 219.68 254.898 212.102 257.507L114.501 291.113C106.923 293.723 98.5266 291.156 93.7033 284.755L31.5814 202.316C26.758 195.916 26.6048 187.137 31.2018 180.572L90.4088 96.0152C95.0058 89.45 103.308 86.5915 110.972 88.9348Z" stroke="url(#paint79_linear_59_195)" stroke-width="3"/>
<path opacity="0.818182" d="M111.366 89.2534L209.27 121.064C216.893 123.541 222.053 130.644 222.053 138.659L222.053 241.601C222.053 249.616 216.893 256.719 209.27 259.196L111.366 291.006C103.744 293.483 95.3936 290.77 90.6827 284.286L30.1748 201.004C25.4639 194.52 25.4639 185.74 30.1748 179.256L90.6827 95.9739C95.3936 89.4899 103.744 86.7767 111.366 89.2534Z" stroke="url(#paint80_linear_59_195)" stroke-width="3"/>
<path opacity="0.828283" d="M111.762 89.6057L208.829 123.029C216.407 125.638 221.443 132.83 221.303 140.844L219.511 243.488C219.371 251.501 214.087 258.514 206.423 260.857L108.248 290.872C100.584 293.215 92.2823 290.356 87.6852 283.791L28.8018 199.697C24.2048 193.132 24.358 184.353 29.1813 177.952L90.9638 95.9642C95.7871 89.5634 104.183 86.9964 111.762 89.6057Z" stroke="url(#paint81_linear_59_195)" stroke-width="3"/>
<path opacity="0.838384" d="M112.155 89.9908L208.359 125.006C215.89 127.747 220.8 135.026 220.52 143.036L216.947 245.352C216.667 253.362 211.262 260.28 203.558 262.49L105.146 290.709C97.4413 292.918 89.1908 289.915 84.709 283.27L27.4599 198.395C22.9782 191.751 23.2846 182.976 28.2189 176.66L91.2491 95.9854C96.1835 89.6697 104.623 87.2496 112.155 89.9908Z" stroke="url(#paint82_linear_59_195)" stroke-width="3"/>
<path opacity="0.848485" d="M112.543 90.4095L207.858 126.997C215.34 129.87 220.122 137.233 219.703 145.237L214.359 247.193C213.94 255.197 208.415 262.02 200.673 264.094L102.056 290.519C94.3142 292.593 86.1173 289.447 81.7522 282.725L26.1467 197.1C21.7816 190.378 22.2411 181.61 27.2849 175.382L91.536 96.0383C96.5798 89.8097 105.061 87.5373 112.543 90.4095Z" stroke="url(#paint83_linear_59_195)" stroke-width="3"/>
<path opacity="0.858586" d="M112.93 90.8607L207.331 129.001C214.762 132.003 219.415 139.449 218.855 147.444L211.753 249.01C211.194 257.005 205.551 263.731 197.774 265.67L98.9842 290.301C91.2076 292.24 83.0669 288.951 78.8198 282.154L24.8666 195.811C20.6195 189.014 21.2319 180.256 26.3837 174.116L91.8284 96.122C96.9802 89.9824 105.499 87.8583 112.93 90.8607Z" stroke="url(#paint84_linear_59_195)" stroke-width="3"/>
<path opacity="0.868687" d="M113.312 91.3451L206.773 131.017C214.15 134.148 218.672 141.674 217.974 149.658L209.125 250.804C208.426 258.788 202.666 265.415 194.857 267.217L95.9272 290.057C88.1179 291.86 80.0359 288.429 75.908 281.56L23.6152 194.53C19.4873 187.66 20.2526 178.913 25.5107 172.864L92.1216 96.2373C97.3797 90.1886 105.935 88.2135 113.312 91.3451Z" stroke="url(#paint85_linear_59_195)" stroke-width="3"/>
<path opacity="0.878788" d="M113.69 91.8623L206.187 133.044C213.509 136.304 217.899 143.908 217.061 151.879L206.477 252.574C205.64 260.545 199.765 267.069 191.925 268.736L92.8877 289.787C85.0482 291.453 77.0272 287.882 73.0199 280.941L22.3949 193.256C18.3876 186.315 19.3054 177.583 24.6682 171.627L92.4176 96.384C97.7805 90.4279 106.369 88.6024 113.69 91.8623Z" stroke="url(#paint86_linear_59_195)" stroke-width="3"/>
<path opacity="0.888889" d="M114.062 92.4117L205.57 135.083C212.834 138.47 217.091 146.149 216.114 154.104L203.809 254.319C202.832 262.274 196.844 268.695 188.977 270.225L89.864 289.49C81.9966 291.019 74.0392 287.309 70.1536 280.299L21.2034 191.991C17.3178 184.981 18.3878 176.266 23.8539 170.405L92.7137 96.5615C98.1797 90.6999 106.798 89.0246 114.062 92.4117Z" stroke="url(#paint87_linear_59_195)" stroke-width="3"/>
<path opacity="0.89899" d="M114.431 92.9937L204.926 137.131C212.13 140.645 216.252 148.397 215.136 156.334L201.124 256.04C200.008 263.976 193.909 270.292 186.016 271.684L86.8602 289.168C78.9673 290.56 71.0758 286.711 67.3131 279.634L20.0441 190.734C16.2814 183.657 17.5033 174.963 23.0708 169.197L93.013 96.7702C98.5804 91.0049 107.227 89.4803 114.431 92.9937Z" stroke="url(#paint88_linear_59_195)" stroke-width="3"/>
<path opacity="0.909091" d="M114.792 93.6084L204.252 139.191C211.393 142.829 215.379 150.652 214.126 158.568L198.419 257.736C197.165 265.652 190.957 271.86 183.041 273.114L83.8734 288.821C75.9574 290.074 68.1343 286.088 64.4957 278.947L18.9134 189.487C15.2748 182.346 16.6483 173.674 22.3156 168.007L93.3117 97.0105C98.9789 91.3433 107.651 89.9698 114.792 93.6084Z" stroke="url(#paint89_linear_59_195)" stroke-width="3"/>
<path opacity="0.919192" d="M115.146 94.2541L203.549 141.258C210.625 145.021 214.474 152.912 213.082 160.805L195.696 259.406C194.305 267.299 187.989 273.398 180.052 274.513L80.9049 288.448C72.9682 289.563 65.2159 285.441 61.7025 278.238L17.812 188.249C14.2986 181.045 15.8233 172.399 21.5886 166.831L93.61 97.2809C99.3753 91.7134 108.07 90.4915 115.146 94.2541Z" stroke="url(#paint90_linear_59_195)" stroke-width="3"/>
<path opacity="0.929293" d="M115.493 94.9323L202.815 143.335C209.825 147.221 213.535 155.178 212.006 163.046L192.956 261.051C191.426 268.918 185.005 274.906 177.05 275.883L77.9547 288.051C69.9997 289.027 62.3206 284.771 58.9334 277.507L16.7394 187.022C13.3523 179.758 15.0276 171.139 20.8891 165.673L93.9071 97.5827C99.7687 92.1167 108.483 91.0467 115.493 94.9323Z" stroke="url(#paint91_linear_59_195)" stroke-width="3"/>
<path opacity="0.939394" d="M115.832 95.642L202.052 145.421C208.992 149.428 212.564 157.449 210.897 165.289L190.198 262.67C188.532 270.51 182.007 276.385 174.036 277.223L75.0241 287.629C67.0533 288.467 59.4496 284.077 56.1897 276.755L15.696 185.805C12.4362 178.483 14.2616 169.895 20.2177 164.532L94.2033 97.9153C100.159 92.5524 108.891 91.6346 115.832 95.642Z" stroke="url(#paint92_linear_59_195)" stroke-width="3"/>
<path opacity="0.949495" d="M116.164 96.3836L201.26 147.514C208.13 151.642 211.56 159.724 209.757 167.533L187.425 264.264C185.622 272.074 178.996 277.834 171.012 278.532L72.1141 287.185C64.1299 287.883 56.604 283.361 53.4724 275.984L14.6824 184.6C11.5508 177.223 13.5259 168.668 19.5746 163.41L94.4987 98.2791C100.547 93.021 109.294 92.2557 116.164 96.3836Z" stroke="url(#paint93_linear_59_195)" stroke-width="3"/>
<path opacity="0.959596" d="M116.486 97.1556L200.437 149.614C207.234 153.861 210.523 162.002 208.584 169.779L184.635 265.831C182.696 273.608 175.97 279.252 167.975 279.811L69.223 286.716C61.2278 287.275 53.7819 282.623 50.7796 275.191L13.696 183.406C10.6937 175.975 12.8177 167.456 18.9574 162.304L94.7907 98.6727C100.93 93.5209 109.689 92.9085 116.486 97.1556Z" stroke="url(#paint94_linear_59_195)" stroke-width="3"/>
<path opacity="0.969697" d="M116.797 97.9591L199.583 151.721C206.305 156.086 209.451 164.283 207.377 172.025L181.828 267.372C179.754 275.114 172.931 280.64 164.927 281.059L66.3509 286.225C58.3472 286.645 50.9837 281.863 48.1115 274.38L12.7365 182.225C9.86428 174.743 12.1367 166.262 18.3653 161.218L95.0784 99.0973C101.307 94.0535 110.075 93.594 116.797 97.9591Z" stroke="url(#paint95_linear_59_195)" stroke-width="3"/>
<path opacity="0.979798" d="M117.1 98.7925L198.701 153.833C205.346 158.315 208.349 166.566 206.14 174.27L179.009 268.886C176.8 276.59 169.881 281.996 161.871 282.276L63.5019 285.711C55.4921 285.99 48.2131 281.081 45.472 273.549L11.8072 181.056C9.06599 173.525 11.4861 165.085 17.8017 160.151L95.365 99.5515C101.681 94.6172 110.455 94.3107 117.1 98.7925Z" stroke="url(#paint96_linear_59_195)" stroke-width="3"/>
<path opacity="0.989899" d="M117.392 99.6571L197.789 155.952C204.354 160.549 207.213 168.851 204.87 176.515L176.174 270.374C173.831 278.038 166.819 283.322 158.805 283.462L60.6732 285.175C52.6597 285.315 45.4676 280.279 42.8583 272.701L10.9047 179.901C8.29533 172.323 10.8624 163.926 17.2632 159.103L95.647 100.037C102.048 95.2132 110.826 95.06 117.392 99.6571Z" stroke="url(#paint97_linear_59_195)" stroke-width="3"/>
<path d="M117.672 100.552L196.846 158.075C203.33 162.786 206.043 171.137 203.567 178.759L173.325 271.834C170.848 279.457 163.745 284.618 155.73 284.618H57.865C49.8503 284.618 42.7471 279.457 40.2705 271.834L10.0285 178.759C7.55179 171.137 10.265 162.786 16.749 158.075L95.9235 100.552C102.408 95.8409 111.188 95.8409 117.672 100.552Z" stroke="url(#paint98_linear_59_195)" stroke-width="3"/>
<defs>
<linearGradient id="paint0_linear_59_195" x1="258.826" y1="227.676" x2="237.059" y2="72.7982" gradientUnits="userSpaceOnUse">
<stop stop-color="#7938AE"/>
<stop offset="1" stop-color="#F1E4FD"/>
</linearGradient>
<linearGradient id="paint1_linear_59_195" x1="256.041" y1="228.196" x2="237.016" y2="73.2454" gradientUnits="userSpaceOnUse">
<stop stop-color="#7938AE"/>
<stop offset="1" stop-color="#F1E4FD"/>
</linearGradient>
<linearGradient id="paint2_linear_59_195" x1="253.259" y1="228.692" x2="236.97" y2="73.7174" gradientUnits="userSpaceOnUse">
<stop stop-color="#7938AE"/>
<stop offset="1" stop-color="#F1E4FD"/>
</linearGradient>
<linearGradient id="paint3_linear_59_195" x1="250.48" y1="229.166" x2="236.923" y2="74.2145" gradientUnits="userSpaceOnUse">
<stop stop-color="#7938AE"/>
<stop offset="1" stop-color="#F1E4FD"/>
</linearGradient>
<linearGradient id="paint4_linear_59_195" x1="247.703" y1="229.615" x2="236.873" y2="74.7358" gradientUnits="userSpaceOnUse">
<stop stop-color="#7938AE"/>
<stop offset="1" stop-color="#F1E4FD"/>
</linearGradient>
<linearGradient id="paint5_linear_59_195" x1="244.928" y1="230.041" x2="236.817" y2="75.2811" gradientUnits="userSpaceOnUse">
<stop stop-color="#7938AE"/>
<stop offset="1" stop-color="#F1E4FD"/>
</linearGradient>
<linearGradient id="paint6_linear_59_195" x1="242.159" y1="230.443" x2="236.761" y2="75.8506" gradientUnits="userSpaceOnUse">
<stop stop-color="#7938AE"/>
<stop offset="1" stop-color="#F1E4FD"/>
</linearGradient>
<linearGradient id="paint7_linear_59_195" x1="239.392" y1="230.823" x2="236.697" y2="76.4449" gradientUnits="userSpaceOnUse">
<stop stop-color="#7938AE"/>
<stop offset="1" stop-color="#F1E4FD"/>
</linearGradient>
<linearGradient id="paint8_linear_59_195" x1="236.631" y1="231.179" x2="236.631" y2="77.0629" gradientUnits="userSpaceOnUse">
<stop stop-color="#7938AE"/>
<stop offset="1" stop-color="#F1E4FD"/>
</linearGradient>
<linearGradient id="paint9_linear_59_195" x1="233.874" y1="231.512" x2="236.559" y2="77.7044" gradientUnits="userSpaceOnUse">
<stop stop-color="#7938AE"/>
<stop offset="1" stop-color="#F1E4FD"/>
</linearGradient>
<linearGradient id="paint10_linear_59_195" x1="231.121" y1="231.822" x2="236.48" y2="78.3705" gradientUnits="userSpaceOnUse">
<stop stop-color="#7938AE"/>
<stop offset="1" stop-color="#F1E4FD"/>
</linearGradient>
<linearGradient id="paint11_linear_59_195" x1="228.374" y1="232.109" x2="236.395" y2="79.0593" gradientUnits="userSpaceOnUse">
<stop stop-color="#7938AE"/>
<stop offset="1" stop-color="#F1E4FD"/>
</linearGradient>
<linearGradient id="paint12_linear_59_195" x1="225.634" y1="232.374" x2="236.305" y2="79.7723" gradientUnits="userSpaceOnUse">
<stop stop-color="#7938AE"/>
<stop offset="1" stop-color="#F1E4FD"/>
</linearGradient>
<linearGradient id="paint13_linear_59_195" x1="222.901" y1="232.617" x2="236.209" y2="80.5085" gradientUnits="userSpaceOnUse">
<stop stop-color="#7938AE"/>
<stop offset="1" stop-color="#F1E4FD"/>
</linearGradient>
<linearGradient id="paint14_linear_59_195" x1="220.174" y1="232.836" x2="236.105" y2="81.2674" gradientUnits="userSpaceOnUse">
<stop stop-color="#7938AE"/>
<stop offset="1" stop-color="#F1E4FD"/>
</linearGradient>
<linearGradient id="paint15_linear_59_195" x1="217.454" y1="233.034" x2="235.992" y2="82.0496" gradientUnits="userSpaceOnUse">
<stop stop-color="#7938AE"/>
<stop offset="1" stop-color="#F1E4FD"/>
</linearGradient>
<linearGradient id="paint16_linear_59_195" x1="214.741" y1="233.21" x2="235.872" y2="82.8548" gradientUnits="userSpaceOnUse">
<stop stop-color="#7938AE"/>
<stop offset="1" stop-color="#F1E4FD"/>
</linearGradient>
<linearGradient id="paint17_linear_59_195" x1="212.037" y1="233.364" x2="235.744" y2="83.6822" gradientUnits="userSpaceOnUse">
<stop stop-color="#7938AE"/>
<stop offset="1" stop-color="#F1E4FD"/>
</linearGradient>
<linearGradient id="paint18_linear_59_195" x1="209.34" y1="233.496" x2="235.607" y2="84.5323" gradientUnits="userSpaceOnUse">
<stop stop-color="#7938AE"/>
<stop offset="1" stop-color="#F1E4FD"/>
</linearGradient>
<linearGradient id="paint19_linear_59_195" x1="206.652" y1="233.607" x2="235.46" y2="85.4039" gradientUnits="userSpaceOnUse">
<stop stop-color="#7938AE"/>
<stop offset="1" stop-color="#F1E4FD"/>
</linearGradient>
<linearGradient id="paint20_linear_59_195" x1="203.974" y1="233.697" x2="235.305" y2="86.2985" gradientUnits="userSpaceOnUse">
<stop stop-color="#7938AE"/>
<stop offset="1" stop-color="#F1E4FD"/>
</linearGradient>
<linearGradient id="paint21_linear_59_195" x1="201.305" y1="233.765" x2="235.139" y2="87.214" gradientUnits="userSpaceOnUse">
<stop stop-color="#7938AE"/>
<stop offset="1" stop-color="#F1E4FD"/>
</linearGradient>
<linearGradient id="paint22_linear_59_195" x1="198.646" y1="233.813" x2="234.963" y2="88.1518" gradientUnits="userSpaceOnUse">
<stop stop-color="#7938AE"/>
<stop offset="1" stop-color="#F1E4FD"/>
</linearGradient>
<linearGradient id="paint23_linear_59_195" x1="195.997" y1="233.84" x2="234.777" y2="89.1108" gradientUnits="userSpaceOnUse">
<stop stop-color="#7938AE"/>
<stop offset="1" stop-color="#F1E4FD"/>
</linearGradient>
<linearGradient id="paint24_linear_59_195" x1="193.358" y1="233.847" x2="234.579" y2="90.0905" gradientUnits="userSpaceOnUse">
<stop stop-color="#7938AE"/>
<stop offset="1" stop-color="#F1E4FD"/>
</linearGradient>
<linearGradient id="paint25_linear_59_195" x1="190.73" y1="233.833" x2="234.371" y2="91.091" gradientUnits="userSpaceOnUse">
<stop stop-color="#7938AE"/>
<stop offset="1" stop-color="#F1E4FD"/>
</linearGradient>
<linearGradient id="paint26_linear_59_195" x1="188.113" y1="233.8" x2="234.15" y2="92.1126" gradientUnits="userSpaceOnUse">
<stop stop-color="#7938AE"/>
<stop offset="1" stop-color="#F1E4FD"/>
</linearGradient>
<linearGradient id="paint27_linear_59_195" x1="185.507" y1="233.747" x2="233.917" y2="93.1544" gradientUnits="userSpaceOnUse">
<stop stop-color="#7938AE"/>
<stop offset="1" stop-color="#F1E4FD"/>
</linearGradient>
<linearGradient id="paint28_linear_59_195" x1="182.913" y1="233.675" x2="233.672" y2="94.2167" gradientUnits="userSpaceOnUse">
<stop stop-color="#7938AE"/>
<stop offset="1" stop-color="#F1E4FD"/>
</linearGradient>
<linearGradient id="paint29_linear_59_195" x1="180.332" y1="233.583" x2="233.414" y2="95.2982" gradientUnits="userSpaceOnUse">
<stop stop-color="#7938AE"/>
<stop offset="1" stop-color="#F1E4FD"/>
</linearGradient>
<linearGradient id="paint30_linear_59_195" x1="177.762" y1="233.472" x2="233.143" y2="96.3999" gradientUnits="userSpaceOnUse">
<stop stop-color="#7938AE"/>
<stop offset="1" stop-color="#F1E4FD"/>
</linearGradient>
<linearGradient id="paint31_linear_59_195" x1="175.207" y1="233.342" x2="232.86" y2="97.5202" gradientUnits="userSpaceOnUse">
<stop stop-color="#7938AE"/>
<stop offset="1" stop-color="#F1E4FD"/>
</linearGradient>
<linearGradient id="paint32_linear_59_195" x1="172.663" y1="233.195" x2="232.562" y2="98.6601" gradientUnits="userSpaceOnUse">
<stop stop-color="#7938AE"/>
<stop offset="1" stop-color="#F1E4FD"/>
</linearGradient>
<linearGradient id="paint33_linear_59_195" x1="170.134" y1="233.028" x2="232.251" y2="99.8184" gradientUnits="userSpaceOnUse">
<stop stop-color="#7938AE"/>
<stop offset="1" stop-color="#F1E4FD"/>
</linearGradient>
<linearGradient id="paint34_linear_59_195" x1="167.616" y1="232.845" x2="231.924" y2="100.996" gradientUnits="userSpaceOnUse">
<stop stop-color="#7938AE"/>
<stop offset="1" stop-color="#F1E4FD"/>
</linearGradient>
<linearGradient id="paint35_linear_59_195" x1="165.114" y1="232.643" x2="231.583" y2="102.191" gradientUnits="userSpaceOnUse">
<stop stop-color="#7938AE"/>
<stop offset="1" stop-color="#F1E4FD"/>
</linearGradient>
<linearGradient id="paint36_linear_59_195" x1="162.626" y1="232.425" x2="231.227" y2="103.404" gradientUnits="userSpaceOnUse">
<stop stop-color="#7938AE"/>
<stop offset="1" stop-color="#F1E4FD"/>
</linearGradient>
<linearGradient id="paint37_linear_59_195" x1="160.152" y1="232.189" x2="230.857" y2="104.635" gradientUnits="userSpaceOnUse">
<stop stop-color="#7938AE"/>
<stop offset="1" stop-color="#F1E4FD"/>
</linearGradient>
<linearGradient id="paint38_linear_59_195" x1="157.693" y1="231.936" x2="230.47" y2="105.883" gradientUnits="userSpaceOnUse">
<stop stop-color="#7938AE"/>
<stop offset="1" stop-color="#F1E4FD"/>
</linearGradient>
<linearGradient id="paint39_linear_59_195" x1="155.249" y1="231.667" x2="230.068" y2="107.147" gradientUnits="userSpaceOnUse">
<stop stop-color="#7938AE"/>
<stop offset="1" stop-color="#F1E4FD"/>
</linearGradient>
<linearGradient id="paint40_linear_59_195" x1="152.822" y1="231.382" x2="229.651" y2="108.429" gradientUnits="userSpaceOnUse">
<stop stop-color="#7938AE"/>
<stop offset="1" stop-color="#F1E4FD"/>
</linearGradient>
<linearGradient id="paint41_linear_59_195" x1="150.408" y1="231.081" x2="229.216" y2="109.727" gradientUnits="userSpaceOnUse">
<stop stop-color="#7938AE"/>
<stop offset="1" stop-color="#F1E4FD"/>
</linearGradient>
<linearGradient id="paint42_linear_59_195" x1="148.011" y1="230.764" x2="228.765" y2="111.041" gradientUnits="userSpaceOnUse">
<stop stop-color="#7938AE"/>
<stop offset="1" stop-color="#F1E4FD"/>
</linearGradient>
<linearGradient id="paint43_linear_59_195" x1="145.63" y1="230.432" x2="228.298" y2="112.37" gradientUnits="userSpaceOnUse">
<stop stop-color="#7938AE"/>
<stop offset="1" stop-color="#F1E4FD"/>
</linearGradient>
<linearGradient id="paint44_linear_59_195" x1="143.264" y1="230.086" x2="227.812" y2="113.716" gradientUnits="userSpaceOnUse">
<stop stop-color="#7938AE"/>
<stop offset="1" stop-color="#F1E4FD"/>
</linearGradient>
<linearGradient id="paint45_linear_59_195" x1="140.916" y1="229.725" x2="227.31" y2="115.076" gradientUnits="userSpaceOnUse">
<stop stop-color="#7938AE"/>
<stop offset="1" stop-color="#F1E4FD"/>
</linearGradient>
<linearGradient id="paint46_linear_59_195" x1="138.585" y1="229.349" x2="226.791" y2="116.45" gradientUnits="userSpaceOnUse">
<stop stop-color="#7938AE"/>
<stop offset="1" stop-color="#F1E4FD"/>
</linearGradient>
<linearGradient id="paint47_linear_59_195" x1="136.27" y1="228.96" x2="226.253" y2="117.839" gradientUnits="userSpaceOnUse">
<stop stop-color="#7938AE"/>
<stop offset="1" stop-color="#F1E4FD"/>
</linearGradient>
<linearGradient id="paint48_linear_59_195" x1="133.974" y1="228.556" x2="225.699" y2="119.242" gradientUnits="userSpaceOnUse">
<stop stop-color="#7938AE"/>
<stop offset="1" stop-color="#F1E4FD"/>
</linearGradient>
<linearGradient id="paint49_linear_59_195" x1="131.694" y1="228.14" x2="225.127" y2="120.659" gradientUnits="userSpaceOnUse">
<stop stop-color="#7938AE"/>
<stop offset="1" stop-color="#F1E4FD"/>
</linearGradient>
<linearGradient id="paint50_linear_59_195" x1="129.431" y1="227.711" x2="224.534" y2="122.089" gradientUnits="userSpaceOnUse">
<stop stop-color="#7938AE"/>
<stop offset="1" stop-color="#F1E4FD"/>
</linearGradient>
<linearGradient id="paint51_linear_59_195" x1="127.186" y1="227.269" x2="223.923" y2="123.531" gradientUnits="userSpaceOnUse">
<stop stop-color="#7938AE"/>
<stop offset="1" stop-color="#F1E4FD"/>
</linearGradient>
<linearGradient id="paint52_linear_59_195" x1="124.96" y1="226.816" x2="223.295" y2="124.987" gradientUnits="userSpaceOnUse">
<stop stop-color="#7938AE"/>
<stop offset="1" stop-color="#F1E4FD"/>
</linearGradient>
<linearGradient id="paint53_linear_59_195" x1="122.751" y1="226.35" x2="222.647" y2="126.454" gradientUnits="userSpaceOnUse">
<stop stop-color="#7938AE"/>
<stop offset="1" stop-color="#F1E4FD"/>
</linearGradient>
<linearGradient id="paint54_linear_59_195" x1="120.561" y1="225.872" x2="221.979" y2="127.934" gradientUnits="userSpaceOnUse">
<stop stop-color="#7938AE"/>
<stop offset="1" stop-color="#F1E4FD"/>
</linearGradient>
<linearGradient id="paint55_linear_59_195" x1="118.39" y1="225.384" x2="221.293" y2="129.425" gradientUnits="userSpaceOnUse">
<stop stop-color="#7938AE"/>
<stop offset="1" stop-color="#F1E4FD"/>
</linearGradient>
<linearGradient id="paint56_linear_59_195" x1="116.237" y1="224.884" x2="220.587" y2="130.927" gradientUnits="userSpaceOnUse">
<stop stop-color="#7938AE"/>
<stop offset="1" stop-color="#F1E4FD"/>
</linearGradient>
<linearGradient id="paint57_linear_59_195" x1="114.102" y1="224.374" x2="219.861" y2="132.44" gradientUnits="userSpaceOnUse">
<stop stop-color="#7938AE"/>
<stop offset="1" stop-color="#F1E4FD"/>
</linearGradient>
<linearGradient id="paint58_linear_59_195" x1="111.987" y1="223.854" x2="219.116" y2="133.963" gradientUnits="userSpaceOnUse">
<stop stop-color="#7938AE"/>
<stop offset="1" stop-color="#F1E4FD"/>
</linearGradient>
<linearGradient id="paint59_linear_59_195" x1="109.892" y1="223.324" x2="218.351" y2="135.496" gradientUnits="userSpaceOnUse">
<stop stop-color="#7938AE"/>
<stop offset="1" stop-color="#F1E4FD"/>
</linearGradient>
<linearGradient id="paint60_linear_59_195" x1="107.816" y1="222.785" x2="217.567" y2="137.039" gradientUnits="userSpaceOnUse">
<stop stop-color="#7938AE"/>
<stop offset="1" stop-color="#F1E4FD"/>
</linearGradient>
<linearGradient id="paint61_linear_59_195" x1="105.758" y1="222.237" x2="216.76" y2="138.591" gradientUnits="userSpaceOnUse">
<stop stop-color="#7938AE"/>
<stop offset="1" stop-color="#F1E4FD"/>
</linearGradient>
<linearGradient id="paint62_linear_59_195" x1="103.72" y1="221.681" x2="215.935" y2="140.152" gradientUnits="userSpaceOnUse">
<stop stop-color="#7938AE"/>
<stop offset="1" stop-color="#F1E4FD"/>
</linearGradient>
<linearGradient id="paint63_linear_59_195" x1="101.703" y1="221.115" x2="215.089" y2="141.721" gradientUnits="userSpaceOnUse">
<stop stop-color="#7938AE"/>
<stop offset="1" stop-color="#F1E4FD"/>
</linearGradient>
<linearGradient id="paint64_linear_59_195" x1="99.7031" y1="220.542" x2="214.221" y2="143.299" gradientUnits="userSpaceOnUse">
<stop stop-color="#7938AE"/>
<stop offset="1" stop-color="#F1E4FD"/>
</linearGradient>
<linearGradient id="paint65_linear_59_195" x1="97.7245" y1="219.961" x2="213.334" y2="144.884" gradientUnits="userSpaceOnUse">
<stop stop-color="#7938AE"/>
<stop offset="1" stop-color="#F1E4FD"/>
</linearGradient>
<linearGradient id="paint66_linear_59_195" x1="95.7664" y1="219.374" x2="212.426" y2="146.476" gradientUnits="userSpaceOnUse">
<stop stop-color="#7938AE"/>
<stop offset="1" stop-color="#F1E4FD"/>
</linearGradient>
<linearGradient id="paint67_linear_59_195" x1="93.8263" y1="218.779" x2="211.496" y2="148.076" gradientUnits="userSpaceOnUse">
<stop stop-color="#7938AE"/>
<stop offset="1" stop-color="#F1E4FD"/>
</linearGradient>
<linearGradient id="paint68_linear_59_195" x1="91.9078" y1="218.178" x2="210.546" y2="149.681" gradientUnits="userSpaceOnUse">
<stop stop-color="#7938AE"/>
<stop offset="1" stop-color="#F1E4FD"/>
</linearGradient>
<linearGradient id="paint69_linear_59_195" x1="90.0095" y1="217.571" x2="209.576" y2="151.294" gradientUnits="userSpaceOnUse">
<stop stop-color="#7938AE"/>
<stop offset="1" stop-color="#F1E4FD"/>
</linearGradient>
<linearGradient id="paint70_linear_59_195" x1="88.131" y1="216.958" x2="208.584" y2="152.912" gradientUnits="userSpaceOnUse">
<stop stop-color="#7938AE"/>
<stop offset="1" stop-color="#F1E4FD"/>
</linearGradient>
<linearGradient id="paint71_linear_59_195" x1="86.273" y1="216.339" x2="207.571" y2="154.535" gradientUnits="userSpaceOnUse">
<stop stop-color="#7938AE"/>
<stop offset="1" stop-color="#F1E4FD"/>
</linearGradient>
<linearGradient id="paint72_linear_59_195" x1="84.435" y1="215.716" x2="206.537" y2="156.163" gradientUnits="userSpaceOnUse">
<stop stop-color="#7938AE"/>
<stop offset="1" stop-color="#F1E4FD"/>
</linearGradient>
<linearGradient id="paint73_linear_59_195" x1="82.6177" y1="215.089" x2="205.481" y2="157.797" gradientUnits="userSpaceOnUse">
<stop stop-color="#7938AE"/>
<stop offset="1" stop-color="#F1E4FD"/>
</linearGradient>
<linearGradient id="paint74_linear_59_195" x1="80.8217" y1="214.456" x2="204.406" y2="159.433" gradientUnits="userSpaceOnUse">
<stop stop-color="#7938AE"/>
<stop offset="1" stop-color="#F1E4FD"/>
</linearGradient>
<linearGradient id="paint75_linear_59_195" x1="79.0447" y1="213.821" x2="203.308" y2="161.074" gradientUnits="userSpaceOnUse">
<stop stop-color="#7938AE"/>
<stop offset="1" stop-color="#F1E4FD"/>
</linearGradient>
<linearGradient id="paint76_linear_59_195" x1="77.2883" y1="213.182" x2="202.188" y2="162.719" gradientUnits="userSpaceOnUse">
<stop stop-color="#7938AE"/>
<stop offset="1" stop-color="#F1E4FD"/>
</linearGradient>
<linearGradient id="paint77_linear_59_195" x1="75.5531" y1="212.54" x2="201.048" y2="164.367" gradientUnits="userSpaceOnUse">
<stop stop-color="#7938AE"/>
<stop offset="1" stop-color="#F1E4FD"/>
</linearGradient>
<linearGradient id="paint78_linear_59_195" x1="73.8378" y1="211.894" x2="199.886" y2="166.016" gradientUnits="userSpaceOnUse">
<stop stop-color="#7938AE"/>
<stop offset="1" stop-color="#F1E4FD"/>
</linearGradient>
<linearGradient id="paint79_linear_59_195" x1="72.144" y1="211.247" x2="198.704" y2="167.669" gradientUnits="userSpaceOnUse">
<stop stop-color="#7938AE"/>
<stop offset="1" stop-color="#F1E4FD"/>
</linearGradient>
<linearGradient id="paint80_linear_59_195" x1="70.4685" y1="210.598" x2="197.499" y2="169.323" gradientUnits="userSpaceOnUse">
<stop stop-color="#7938AE"/>
<stop offset="1" stop-color="#F1E4FD"/>
</linearGradient>
<linearGradient id="paint81_linear_59_195" x1="68.8157" y1="209.947" x2="196.274" y2="170.979" gradientUnits="userSpaceOnUse">
<stop stop-color="#7938AE"/>
<stop offset="1" stop-color="#F1E4FD"/>
</linearGradient>
<linearGradient id="paint82_linear_59_195" x1="67.1835" y1="209.294" x2="195.028" y2="172.636" gradientUnits="userSpaceOnUse">
<stop stop-color="#7938AE"/>
<stop offset="1" stop-color="#F1E4FD"/>
</linearGradient>
<linearGradient id="paint83_linear_59_195" x1="65.5695" y1="208.642" x2="193.759" y2="174.294" gradientUnits="userSpaceOnUse">
<stop stop-color="#7938AE"/>
<stop offset="1" stop-color="#F1E4FD"/>
</linearGradient>
<linearGradient id="paint84_linear_59_195" x1="63.9784" y1="207.988" x2="192.47" y2="175.951" gradientUnits="userSpaceOnUse">
<stop stop-color="#7938AE"/>
<stop offset="1" stop-color="#F1E4FD"/>
</linearGradient>
<linearGradient id="paint85_linear_59_195" x1="62.4058" y1="207.334" x2="191.159" y2="177.609" gradientUnits="userSpaceOnUse">
<stop stop-color="#7938AE"/>
<stop offset="1" stop-color="#F1E4FD"/>
</linearGradient>
<linearGradient id="paint86_linear_59_195" x1="60.8544" y1="206.681" x2="189.828" y2="179.267" gradientUnits="userSpaceOnUse">
<stop stop-color="#7938AE"/>
<stop offset="1" stop-color="#F1E4FD"/>
</linearGradient>
<linearGradient id="paint87_linear_59_195" x1="59.3219" y1="206.028" x2="188.474" y2="180.924" gradientUnits="userSpaceOnUse">
<stop stop-color="#7938AE"/>
<stop offset="1" stop-color="#F1E4FD"/>
</linearGradient>
<linearGradient id="paint88_linear_59_195" x1="57.8119" y1="205.376" x2="187.101" y2="182.579" gradientUnits="userSpaceOnUse">
<stop stop-color="#7938AE"/>
<stop offset="1" stop-color="#F1E4FD"/>
</linearGradient>
<linearGradient id="paint89_linear_59_195" x1="56.3212" y1="204.727" x2="185.707" y2="184.234" gradientUnits="userSpaceOnUse">
<stop stop-color="#7938AE"/>
<stop offset="1" stop-color="#F1E4FD"/>
</linearGradient>
<linearGradient id="paint90_linear_59_195" x1="54.8504" y1="204.077" x2="184.292" y2="185.886" gradientUnits="userSpaceOnUse">
<stop stop-color="#7938AE"/>
<stop offset="1" stop-color="#F1E4FD"/>
</linearGradient>
<linearGradient id="paint91_linear_59_195" x1="53.3993" y1="203.431" x2="182.855" y2="187.536" gradientUnits="userSpaceOnUse">
<stop stop-color="#7938AE"/>
<stop offset="1" stop-color="#F1E4FD"/>
</linearGradient>
<linearGradient id="paint92_linear_59_195" x1="51.9684" y1="202.787" x2="181.398" y2="189.183" gradientUnits="userSpaceOnUse">
<stop stop-color="#7938AE"/>
<stop offset="1" stop-color="#F1E4FD"/>
</linearGradient>
<linearGradient id="paint93_linear_59_195" x1="50.5585" y1="202.146" x2="179.921" y2="190.828" gradientUnits="userSpaceOnUse">
<stop stop-color="#7938AE"/>
<stop offset="1" stop-color="#F1E4FD"/>
</linearGradient>
<linearGradient id="paint94_linear_59_195" x1="49.1673" y1="201.507" x2="178.423" y2="192.468" gradientUnits="userSpaceOnUse">
<stop stop-color="#7938AE"/>
<stop offset="1" stop-color="#F1E4FD"/>
</linearGradient>
<linearGradient id="paint95_linear_59_195" x1="47.7945" y1="200.872" x2="176.904" y2="194.106" gradientUnits="userSpaceOnUse">
<stop stop-color="#7938AE"/>
<stop offset="1" stop-color="#F1E4FD"/>
</linearGradient>
<linearGradient id="paint96_linear_59_195" x1="46.4437" y1="200.24" x2="175.366" y2="195.738" gradientUnits="userSpaceOnUse">
<stop stop-color="#7938AE"/>
<stop offset="1" stop-color="#F1E4FD"/>
</linearGradient>
<linearGradient id="paint97_linear_59_195" x1="45.1116" y1="199.614" x2="173.807" y2="197.367" gradientUnits="userSpaceOnUse">
<stop stop-color="#7938AE"/>
<stop offset="1" stop-color="#F1E4FD"/>
</linearGradient>
<linearGradient id="paint98_linear_59_195" x1="43.7979" y1="198.991" x2="172.228" y2="198.991" gradientUnits="userSpaceOnUse">
<stop stop-color="#7938AE"/>
<stop offset="1" stop-color="#F1E4FD"/>
</linearGradient>
</defs>
</svg>
