<svg width="305" height="352" viewBox="0 0 305 352" fill="none" xmlns="http://www.w3.org/2000/svg">
<path opacity="0.010101" d="M194.472 107.712C188.904 101.947 187.682 93.2521 191.445 86.1755L282.827 -85.6883C286.589 -92.7649 294.481 -96.6138 302.374 -95.222L494.064 -61.4218C501.957 -60.0301 508.056 -53.7142 509.172 -45.7775L536.262 146.976C537.377 154.913 533.255 162.665 526.051 166.178L351.103 251.506C343.9 255.02 335.253 253.495 329.685 247.73L194.472 107.712Z" stroke="url(#paint0_linear_37_1047)" stroke-width="3"/>
<path opacity="0.020202" d="M192.133 105.264C186.667 99.4029 185.597 90.6883 189.483 83.6785L283.652 -86.2072C287.538 -93.217 295.495 -96.9276 303.362 -95.3984L494.033 -58.3357C501.901 -56.8065 507.889 -50.3851 508.865 -42.4302L532.537 150.362C533.514 158.317 529.257 165.996 521.994 169.383L345.953 251.472C338.689 254.859 330.07 253.184 324.604 247.322L192.133 105.264Z" stroke="url(#paint1_linear_37_1047)" stroke-width="3"/>
<path opacity="0.030303" d="M189.85 102.819C184.487 96.8633 183.569 88.1313 187.576 81.1904L284.492 -86.6724C288.5 -93.6133 296.52 -97.1845 304.36 -95.5182L493.956 -55.2184C501.795 -53.5521 507.67 -47.0272 508.508 -39.0564L528.769 153.713C529.607 161.684 525.217 169.288 517.895 172.547L340.821 251.386C333.499 254.646 324.911 252.82 319.548 246.864L189.85 102.819Z" stroke="url(#paint2_linear_37_1047)" stroke-width="3"/>
<path opacity="0.040404" d="M187.622 100.378C182.364 94.329 181.599 85.5824 185.727 78.7125L285.347 -87.0835C289.475 -93.9534 297.557 -97.3841 305.366 -95.5812L493.832 -52.0705C501.641 -50.2675 507.402 -43.6411 508.1 -35.657L524.958 157.03C525.657 165.014 521.135 172.54 513.757 175.672L335.71 251.248C328.333 254.38 319.778 252.405 314.519 246.356L187.622 100.378Z" stroke="url(#paint3_linear_37_1047)" stroke-width="3"/>
<path opacity="0.050505" d="M185.451 97.94C180.3 91.8004 179.687 83.0418 183.934 76.2449L286.217 -87.441C290.464 -94.2378 298.604 -97.5269 306.381 -95.588L493.662 -48.8934C501.439 -46.9545 507.083 -40.2286 507.642 -32.2334L521.106 160.311C521.665 168.306 517.012 175.752 509.581 178.755L330.621 251.059C323.19 254.062 314.671 251.938 309.519 245.798L185.451 97.94Z" stroke="url(#paint4_linear_37_1047)" stroke-width="3"/>
<path opacity="0.0606061" d="M183.332 95.5066C178.289 89.2781 177.829 80.5101 182.194 73.7884L287.095 -87.7451C291.46 -94.4668 299.657 -97.6133 307.399 -95.5389L493.443 -45.6887C501.184 -43.6143 506.71 -36.791 507.129 -28.7873L517.209 163.555C517.629 171.559 512.847 178.923 505.364 181.795L325.551 250.819C318.068 253.691 309.587 251.419 304.544 245.19L183.332 95.5066Z" stroke="url(#paint5_linear_37_1047)" stroke-width="3"/>
<path opacity="0.0707071" d="M181.272 93.0791C176.338 86.7635 176.032 77.9888 180.513 71.3444L287.989 -87.9954C292.471 -94.6399 300.722 -97.6428 308.426 -95.4337L493.179 -42.4566C500.883 -40.2474 506.289 -33.3287 506.568 -25.3189L513.276 166.762C513.556 174.772 508.646 182.051 501.115 184.792L320.507 250.528C312.976 253.269 304.536 250.849 299.602 244.534L181.272 93.0791Z" stroke="url(#paint6_linear_37_1047)" stroke-width="3"/>
<path opacity="0.0808081" d="M179.264 90.6595C174.44 84.2587 174.287 75.48 178.884 68.9148L288.891 -88.1906C293.488 -94.7559 301.789 -97.6143 309.454 -95.2711L492.864 -39.197C500.528 -36.8538 505.812 -29.8417 505.952 -21.8283L509.299 169.933C509.439 177.946 504.403 185.138 496.825 187.748L315.484 250.189C307.906 252.798 299.509 250.231 294.686 243.83L179.264 90.6595Z" stroke="url(#paint7_linear_37_1047)" stroke-width="3"/>
<path opacity="0.0909091" d="M177.311 88.2472C172.6 81.7632 172.6 72.9831 177.311 66.4991L289.803 -88.3322C294.514 -94.8162 302.864 -97.5294 310.486 -95.0527L492.501 -35.9124C500.124 -33.4357 505.285 -26.3325 505.285 -18.3178V173.064C505.285 181.079 500.124 188.182 492.501 190.659L310.486 249.799C302.864 252.276 294.514 249.562 289.803 243.078L177.311 88.2472Z" stroke="url(#paint8_linear_37_1047)" stroke-width="3"/>
<path opacity="0.10101" d="M175.412 85.8431C170.815 79.2779 170.968 70.4992 175.791 64.0984L290.722 -88.42C295.546 -94.8208 303.942 -97.3879 311.52 -94.7786L492.089 -32.6036C499.667 -29.9942 504.703 -22.8021 504.564 -14.7886L501.231 176.156C501.091 184.17 495.807 191.182 488.142 193.525L305.513 249.36C297.849 251.703 289.547 248.845 284.95 242.28L175.412 85.8431Z" stroke="url(#paint9_linear_37_1047)" stroke-width="3"/>
<path opacity="0.111111" d="M173.566 83.45C169.084 76.8055 169.391 68.0308 174.325 61.7152L291.649 -88.4525C296.583 -94.7681 305.023 -97.1883 312.554 -94.4471L491.627 -29.2699C499.159 -26.5287 504.068 -19.2497 503.789 -11.2399L497.138 179.21C496.858 187.219 491.453 194.138 483.749 196.347L300.565 248.874C292.861 251.083 284.611 248.08 280.129 241.436L173.566 83.45Z" stroke="url(#paint10_linear_37_1047)" stroke-width="3"/>
<path opacity="0.121212" d="M171.773 81.0663C167.408 74.3446 167.868 65.5766 172.912 59.348L292.581 -88.4319C297.625 -94.6605 306.106 -96.9329 313.588 -94.0607L491.116 -25.9145C498.598 -23.0423 503.38 -15.6787 502.96 -7.67499L493.008 182.222C492.589 190.225 487.063 197.049 479.322 199.123L295.644 248.339C287.902 250.414 279.706 247.267 275.34 240.546L171.773 81.0663Z" stroke="url(#paint11_linear_37_1047)" stroke-width="3"/>
<path opacity="0.131313" d="M170.036 78.6953C165.789 71.8984 166.402 63.1398 171.553 57.0002L293.522 -88.356C298.673 -94.4956 307.193 -96.6197 314.624 -93.6174L490.556 -22.5362C497.987 -19.5338 502.64 -12.0879 502.081 -4.09274L488.844 185.194C488.285 193.189 482.642 199.915 474.865 201.854L290.752 247.759C282.976 249.697 274.835 246.408 270.588 239.612L170.036 78.6953Z" stroke="url(#paint12_linear_37_1047)" stroke-width="3"/>
<path opacity="0.141414" d="M168.352 76.3364C164.224 69.4665 164.989 60.7199 170.247 54.6711L294.466 -88.2262C299.724 -94.275 308.279 -96.25 315.656 -93.1185L489.946 -19.1371C497.323 -16.0055 501.845 -8.47956 501.147 -0.495375L484.644 188.125C483.946 196.109 478.186 202.735 470.376 204.538L285.888 247.131C278.079 248.934 269.997 245.503 265.869 238.633L168.352 76.3364Z" stroke="url(#paint13_linear_37_1047)" stroke-width="3"/>
<path opacity="0.151515" d="M166.718 73.9907C162.711 67.0497 163.629 58.3178 168.992 52.3617L295.412 -88.0426C300.775 -93.9986 309.363 -95.8241 316.685 -92.5643L489.284 -15.7185C496.605 -12.4586 500.995 -4.85484 500.158 3.11594L480.409 191.014C479.571 198.984 473.696 205.509 465.857 207.176L281.053 246.457C273.213 248.123 265.192 244.552 261.185 237.611L166.718 73.9907Z" stroke="url(#paint14_linear_37_1047)" stroke-width="3"/>
<path opacity="0.161616" d="M165.137 71.6596C161.251 64.6498 162.321 55.9352 167.787 50.0737L296.361 -87.8043C301.827 -93.6659 310.445 -95.3412 317.709 -91.9541L488.57 -12.2802C495.834 -8.89308 500.091 -1.21387 499.114 6.74107L476.139 193.86C475.162 201.815 469.174 208.236 461.307 209.766L276.246 245.738C268.378 247.267 260.421 243.557 256.535 236.547L165.137 71.6596Z" stroke="url(#paint15_linear_37_1047)" stroke-width="3"/>
<path opacity="0.171717" d="M163.609 69.3441C159.847 62.2676 161.069 53.573 166.636 47.8077L297.313 -87.5117C302.88 -93.277 311.527 -94.8016 318.73 -91.2882L487.808 -8.82355C495.011 -5.31013 499.133 2.44219 498.018 10.3789L471.837 196.664C470.722 204.601 464.623 210.917 456.73 212.309L271.472 244.975C263.579 246.366 255.687 242.517 251.925 235.441L163.609 69.3441Z" stroke="url(#paint16_linear_37_1047)" stroke-width="3"/>
<path opacity="0.181818" d="M162.133 67.0443C158.494 59.9032 159.868 51.2312 165.535 45.564L298.264 -87.1655C303.932 -92.8328 312.604 -94.2063 319.745 -90.5677L486.994 -5.35009C494.135 -1.71149 498.121 6.11159 496.867 14.0276L467.503 199.425C466.249 207.341 460.041 213.549 452.125 214.803L266.728 244.167C258.812 245.42 250.989 241.434 247.35 234.293L162.133 67.0443Z" stroke="url(#paint17_linear_37_1047)" stroke-width="3"/>
<path opacity="0.191919" d="M160.706 64.7619C157.193 57.5584 158.717 48.9117 164.483 43.3443L299.215 -86.765C304.98 -92.3325 313.675 -93.5544 320.751 -89.7918L486.127 -1.85995C493.203 1.90272 497.052 9.79418 495.661 17.6871L463.136 202.141C461.745 210.034 455.429 216.133 447.492 217.249L262.015 243.316C254.079 244.431 246.326 240.309 242.813 233.106L160.706 64.7619Z" stroke="url(#paint18_linear_37_1047)" stroke-width="3"/>
<path opacity="0.20202" d="M159.332 62.4962C155.944 55.2324 157.62 46.6137 163.481 41.1477L300.165 -86.312C306.027 -91.778 314.741 -92.848 321.751 -88.9624L485.21 1.64436C492.22 5.52996 495.93 13.4874 494.401 21.3548L458.74 204.813C457.211 212.68 450.79 218.668 442.835 219.645L257.337 242.421C249.382 243.398 241.702 239.141 238.315 231.877L159.332 62.4962Z" stroke="url(#paint19_linear_37_1047)" stroke-width="3"/>
<path opacity="0.212121" d="M158.007 60.2508C154.747 52.9291 156.573 44.3409 162.529 38.978L301.113 -85.8036C307.069 -91.1665 315.801 -92.0842 322.742 -88.0769L484.241 5.16468C491.182 9.17203 494.753 17.193 493.087 25.0325L454.315 207.441C452.649 215.28 446.124 221.155 438.153 221.993L252.691 241.486C244.721 242.324 237.117 237.934 233.857 230.612L158.007 60.2508Z" stroke="url(#paint20_linear_37_1047)" stroke-width="3"/>
<path opacity="0.222222" d="M156.733 58.0239C153.601 50.6463 155.576 42.0913 161.625 36.8332L302.058 -85.243C308.106 -90.5011 316.853 -91.2663 323.723 -87.1385L483.22 8.69723C490.09 12.8251 493.521 20.9072 491.718 28.7164L449.86 210.022C448.057 217.832 441.431 223.592 433.447 224.29L248.08 240.508C240.096 241.206 232.57 236.684 229.438 229.307L156.733 58.0239Z" stroke="url(#paint21_linear_37_1047)" stroke-width="3"/>
<path opacity="0.232323" d="M155.508 55.8182C152.505 48.3871 154.629 39.8679 160.769 34.7162L302.998 -84.6281C309.138 -89.7798 317.896 -90.3923 324.693 -86.1452L482.147 12.2432C488.944 16.4903 492.233 24.6311 490.294 32.4077L445.378 212.559C443.439 220.336 436.713 225.98 428.718 226.539L243.503 239.49C235.508 240.049 228.062 235.397 225.06 227.965L155.508 55.8182Z" stroke="url(#paint22_linear_37_1047)" stroke-width="3"/>
<path opacity="0.242424" d="M154.331 53.6338C151.458 46.1515 153.731 37.6706 159.959 32.6268L303.932 -83.9601C310.161 -89.004 318.929 -89.4635 325.651 -85.0984L481.022 15.8007C487.743 20.1658 490.89 28.3626 488.815 36.1042L440.867 215.05C438.792 222.792 431.969 228.317 423.965 228.737L238.961 238.432C230.957 238.852 223.594 234.07 220.721 226.588L154.331 53.6338Z" stroke="url(#paint23_linear_37_1047)" stroke-width="3"/>
<path opacity="0.252525" d="M153.204 51.4709C150.462 43.9396 152.882 35.4997 159.198 30.5653L304.862 -83.2399C311.178 -88.1742 319.953 -88.4807 326.597 -83.9989L479.845 19.3681C486.489 23.8498 489.492 32.1004 487.283 39.8046L436.331 217.494C434.122 225.198 427.204 230.604 419.194 230.884L234.456 237.335C226.446 237.614 219.167 232.705 216.426 225.173L153.204 51.4709Z" stroke="url(#paint24_linear_37_1047)" stroke-width="3"/>
<path opacity="0.262626" d="M152.124 49.3308C149.514 41.7528 152.081 33.3564 158.482 28.5331L305.784 -82.4669C312.185 -87.2903 320.964 -87.4435 327.529 -82.8465L478.615 22.9451C485.18 27.5422 488.039 35.8438 485.696 43.5083L431.77 219.891C429.427 227.556 422.415 232.84 414.401 232.979L229.987 236.198C221.974 236.338 214.782 231.302 212.172 223.724L152.124 49.3308Z" stroke="url(#paint25_linear_37_1047)" stroke-width="3"/>
<path opacity="0.272727" d="M151.092 47.2151C148.615 39.5927 151.328 31.2424 157.812 26.5315L306.699 -81.6409C313.183 -86.3518 321.963 -86.3518 328.447 -81.6409L477.333 26.5315C483.817 31.2424 486.53 39.5927 484.054 47.2151L427.184 222.242C424.707 229.864 417.604 235.025 409.59 235.025L225.556 235.025C217.541 235.025 210.438 229.864 207.961 222.242L151.092 47.2151Z" stroke="url(#paint26_linear_37_1047)" stroke-width="3"/>
<path opacity="0.282828" d="M150.106 45.1237C147.763 37.4592 150.621 29.1575 157.187 24.5605L307.604 -80.7628C314.169 -85.3599 322.948 -85.2066 329.349 -80.3833L475.999 30.1254C482.399 34.9487 484.966 43.3451 482.357 50.9232L422.574 224.545C419.965 232.123 412.773 237.159 404.759 237.019L221.162 233.814C213.148 233.674 206.136 228.39 203.793 220.726L150.106 45.1237Z" stroke="url(#paint27_linear_37_1047)" stroke-width="3"/>
<path opacity="0.292929" d="M149.167 43.0581C146.957 35.3539 149.96 27.1033 156.605 22.6216L308.499 -79.8323C315.143 -84.314 323.918 -84.0076 330.234 -79.0733L474.611 33.7266C480.927 38.661 483.347 47.1009 480.606 54.6322L417.942 226.8C415.2 234.332 407.921 239.241 399.912 238.962L216.806 232.567C208.796 232.288 201.877 226.882 199.668 219.178L149.167 43.0581Z" stroke="url(#paint28_linear_37_1047)" stroke-width="3"/>
<path opacity="0.30303" d="M148.273 41.0175C146.199 33.276 149.345 25.0791 156.067 20.714L309.384 -78.851C316.105 -83.2161 324.873 -82.7566 331.102 -77.7128L473.171 37.3327C479.4 42.3765 481.672 50.8574 478.8 58.3397L413.287 229.007C410.415 236.489 403.052 241.271 395.048 240.852L212.489 231.284C204.486 230.865 197.662 225.339 195.588 217.598L148.273 41.0175Z" stroke="url(#paint29_linear_37_1047)" stroke-width="3"/>
<path opacity="0.313131" d="M147.425 39.0048C145.486 31.2282 148.775 23.0875 155.572 18.8404L310.256 -77.8174C317.053 -82.0646 325.812 -81.4521 331.951 -76.3004L471.679 40.9447C477.818 46.0965 479.942 54.6157 476.94 62.0468L408.611 231.166C405.609 238.597 398.163 243.25 390.168 242.691L208.211 229.967C200.216 229.408 193.49 223.764 191.551 215.988L147.425 39.0048Z" stroke="url(#paint30_linear_37_1047)" stroke-width="3"/>
<path opacity="0.323232" d="M146.623 37.0186C144.82 29.2093 148.251 21.1272 155.12 16.9994L311.119 -76.7338C317.989 -80.8617 326.735 -80.0965 332.784 -74.8384L470.136 44.5596C476.184 49.8177 478.159 58.3727 475.028 65.7503L403.918 233.275C400.786 240.653 393.26 245.175 385.276 244.477L203.976 228.615C195.992 227.916 189.365 222.156 187.562 214.347L146.623 37.0186Z" stroke="url(#paint31_linear_37_1047)" stroke-width="3"/>
<path opacity="0.333333" d="M145.864 35.0616C144.198 27.222 147.769 19.2011 154.71 15.1937L311.967 -75.5985C318.908 -79.6059 327.64 -78.6881 333.596 -73.3253L468.539 48.1785C474.495 53.5414 476.321 62.1295 473.061 69.4513L399.204 235.337C395.944 242.659 388.34 247.049 380.369 246.211L199.78 227.23C191.809 226.393 185.284 220.518 183.618 212.678L145.864 35.0616Z" stroke="url(#paint32_linear_37_1047)" stroke-width="3"/>
<path opacity="0.343434" d="M145.15 33.133C143.621 25.2655 147.331 17.3081 154.341 13.4225L312.801 -74.4135C319.811 -78.2991 328.526 -77.2291 334.387 -71.7631L466.891 51.7988C472.753 57.2648 474.428 65.8836 471.041 73.1473L394.473 237.349C391.085 244.613 383.406 248.869 375.451 247.892L195.626 225.813C187.671 224.836 181.249 218.848 179.72 210.981L145.15 33.133Z" stroke="url(#paint33_linear_37_1047)" stroke-width="3"/>
<path opacity="0.353535" d="M144.477 31.235C143.085 23.342 146.934 15.4506 154.01 11.6879L313.619 -73.1775C320.696 -76.9402 329.39 -75.7183 335.155 -70.1508L465.189 55.4212C470.954 60.9887 472.479 69.6353 468.966 76.8389L389.722 239.312C386.209 246.516 378.456 250.638 370.52 249.522L191.511 224.364C183.574 223.249 177.258 217.15 175.867 209.257L144.477 31.235Z" stroke="url(#paint34_linear_37_1047)" stroke-width="3"/>
<path opacity="0.363636" d="M143.846 29.3667C142.593 21.4507 146.579 13.6276 153.72 9.989L314.422 -71.8926C321.563 -75.5312 330.235 -74.1577 335.902 -68.4905L463.436 59.0431C469.103 64.7103 470.476 73.3823 466.838 80.5234L384.956 241.225C381.317 248.366 373.494 252.352 365.578 251.099L187.439 222.884C179.523 221.63 173.315 215.422 172.061 207.506L143.846 29.3667Z" stroke="url(#paint35_linear_37_1047)" stroke-width="3"/>
<path opacity="0.373737" d="M143.259 27.5302C142.143 19.5935 146.265 11.8412 153.469 8.32777L315.208 -70.5578C322.412 -74.0712 331.058 -72.5466 336.626 -66.7813L461.631 62.665C467.198 68.4303 468.42 77.1249 464.657 84.2014L380.175 243.089C376.413 250.166 368.521 254.015 360.628 252.623L183.411 221.375C175.518 219.983 169.419 213.667 168.303 205.73L143.259 27.5302Z" stroke="url(#paint36_linear_37_1047)" stroke-width="3"/>
<path opacity="0.383838" d="M142.711 25.7246C141.734 17.7697 145.991 10.0905 153.255 6.70336L315.976 -69.1749C323.24 -72.5621 331.859 -70.8868 337.325 -65.0252L459.773 66.2844C465.239 72.146 466.309 80.8606 462.423 87.8704L375.379 244.903C371.494 251.912 363.536 255.623 355.669 254.094L179.424 219.835C171.557 218.306 165.569 211.885 164.592 203.93L142.711 25.7246Z" stroke="url(#paint37_linear_37_1047)" stroke-width="3"/>
<path opacity="0.393939" d="M142.205 23.9521C141.367 15.9813 145.757 8.37762 153.079 5.11776L316.727 -67.743C324.048 -71.0029 332.637 -69.1774 338 -63.2214L457.864 69.9019C463.227 75.858 464.145 84.59 460.138 91.5309L370.57 246.666C366.563 253.607 358.542 257.178 350.702 255.512L175.482 218.268C167.642 216.602 161.767 210.077 160.929 202.106L142.205 23.9521Z" stroke="url(#paint38_linear_37_1047)" stroke-width="3"/>
<path opacity="0.40404" d="M141.737 22.2119C141.038 14.2277 145.561 6.70174 152.938 3.57016L317.457 -66.264C324.835 -69.3956 333.39 -67.4205 338.648 -61.3717L455.903 73.5151C461.161 79.5639 461.926 88.3105 457.798 95.1804L365.747 248.379C361.62 255.249 353.537 258.68 345.728 256.877L171.582 216.672C163.773 214.869 158.013 208.243 157.314 200.259L141.737 22.2119Z" stroke="url(#paint39_linear_37_1047)" stroke-width="3"/>
<path opacity="0.414141" d="M141.31 20.5065C140.751 12.5113 145.404 5.06542 152.835 2.06307L318.169 -64.7363C325.6 -67.7386 334.12 -65.6145 339.271 -59.475L453.892 77.1251C459.044 83.2647 459.657 92.0233 455.409 98.8201L360.915 250.043C356.668 256.84 348.527 260.129 340.751 258.19L167.729 215.051C159.952 213.112 154.308 206.386 153.749 198.391L141.31 20.5065Z" stroke="url(#paint40_linear_37_1047)" stroke-width="3"/>
<path opacity="0.424242" d="M140.921 18.8351C140.501 10.8314 145.283 3.46789 152.765 0.595691L318.859 -63.1617C326.341 -66.0339 334.822 -63.7615 339.866 -57.5329L451.829 80.7294C456.873 86.958 457.332 95.726 452.967 102.448L356.07 251.656C351.705 258.378 343.508 261.524 335.766 259.45L163.918 213.403C156.177 211.329 150.651 204.505 150.232 196.502L140.921 18.8351Z" stroke="url(#paint41_linear_37_1047)" stroke-width="3"/>
<path opacity="0.434343" d="M140.569 17.1984C140.289 9.18863 145.199 1.90966 152.73 -0.831518L319.528 -61.5409C327.059 -64.2821 335.499 -61.8619 340.433 -55.5463L449.715 84.3274C454.649 90.643 454.955 99.4177 450.474 106.062L351.216 253.218C346.734 259.863 338.483 262.866 330.779 260.656L160.153 211.73C152.449 209.521 147.043 202.602 146.764 194.593L140.569 17.1984Z" stroke="url(#paint42_linear_37_1047)" stroke-width="3"/>
<path opacity="0.444444" d="M140.254 15.5977C140.114 7.58425 145.15 0.392071 152.728 -2.21725L320.173 -59.8734C327.751 -62.4827 336.148 -59.9157 340.971 -53.5149L447.549 87.9186C452.372 94.3194 452.526 103.098 447.928 109.663L346.352 254.73C341.755 261.296 333.453 264.154 325.788 261.811L156.433 210.033C148.768 207.69 143.484 200.678 143.344 192.665L140.254 15.5977Z" stroke="url(#paint43_linear_37_1047)" stroke-width="3"/>
<path opacity="0.454545" d="M139.973 14.0334C139.973 6.01871 145.134 -1.08449 152.757 -3.56115L320.795 -58.1601C328.417 -60.6367 336.767 -57.9236 341.478 -51.4395L445.332 91.5022C450.042 97.9862 450.042 106.766 445.332 113.25L341.478 256.192C336.767 262.676 328.417 265.389 320.795 262.913L152.757 208.314C145.134 205.837 139.973 198.734 139.973 190.719L139.973 14.0334Z" stroke="url(#paint44_linear_37_1047)" stroke-width="3"/>
<path opacity="0.464646" d="M139.731 12.5054C139.871 4.49194 145.154 -2.5201 152.819 -4.86336L321.394 -56.4019C329.059 -58.7452 337.36 -55.8867 341.957 -49.3215L443.066 95.0766C447.663 101.642 447.51 110.421 442.686 116.821L336.6 257.603C331.776 264.004 323.38 266.571 315.802 263.961L149.128 206.571C141.55 203.962 136.514 196.77 136.654 188.756L139.731 12.5054Z" stroke="url(#paint45_linear_37_1047)" stroke-width="3"/>
<path opacity="0.474747" d="M139.523 11.0143C139.803 3.00453 145.208 -3.91422 152.912 -6.12336L321.969 -54.5995C329.673 -56.8086 337.924 -53.8057 342.405 -47.1612L440.75 98.641C445.232 105.285 444.926 114.06 439.991 120.376L331.715 258.963C326.781 265.278 318.341 267.698 310.81 264.957L145.547 204.806C138.015 202.065 133.106 194.786 133.385 186.776L139.523 11.0143Z" stroke="url(#paint46_linear_37_1047)" stroke-width="3"/>
<path opacity="0.484848" d="M139.348 9.56127C139.767 1.55758 145.293 -5.26577 153.035 -7.34012L322.517 -52.7528C330.258 -54.8271 338.455 -51.6806 342.82 -44.959L438.383 102.195C442.748 108.917 442.289 117.685 437.245 123.913L326.824 260.272C321.78 266.501 313.299 268.773 305.817 265.901L142.01 203.021C134.528 200.149 129.746 192.786 130.165 184.782L139.348 9.56127Z" stroke="url(#paint47_linear_37_1047)" stroke-width="3"/>
<path opacity="0.494949" d="M139.208 8.14617C139.767 0.151022 145.411 -6.57487 153.188 -8.51379L323.041 -50.8629C330.817 -52.8019 338.958 -49.5128 343.205 -42.716L435.969 105.737C440.216 112.534 439.604 121.293 434.452 127.432L321.93 261.531C316.778 267.67 308.259 269.794 300.828 266.792L138.522 201.216C131.091 198.214 126.438 190.768 126.997 182.773L139.208 8.14617Z" stroke="url(#paint48_linear_37_1047)" stroke-width="3"/>
<path opacity="0.50505" d="M139.101 6.77088C139.8 -1.2133 145.56 -7.83966 153.369 -9.64256L323.538 -48.9291C331.347 -50.732 339.429 -47.3013 343.557 -40.4314L433.505 109.268C437.633 116.138 436.868 124.885 431.61 130.934L317.033 262.739C311.775 268.788 303.22 270.763 295.842 267.632L135.081 199.393C127.703 196.261 123.181 188.735 123.88 180.751L139.101 6.77088Z" stroke="url(#paint49_linear_37_1047)" stroke-width="3"/>
<path opacity="0.515152" d="M139.023 5.43461C139.861 -2.53617 145.736 -9.06102 153.576 -10.7274L324.005 -46.9531C331.844 -48.6195 339.865 -45.0483 343.872 -38.1074L430.991 112.786C434.998 119.727 434.08 128.459 428.717 134.415L312.13 263.898C306.768 269.854 298.179 271.679 290.858 268.419L131.685 197.551C124.363 194.291 119.973 186.687 120.811 178.716L139.023 5.43461Z" stroke="url(#paint50_linear_37_1047)" stroke-width="3"/>
<path opacity="0.525253" d="M138.978 4.13778C139.954 -3.81716 145.942 -10.2385 153.81 -11.7677L324.444 -44.9357C332.312 -46.465 340.269 -42.7544 344.155 -35.7446L428.428 116.289C432.314 123.299 431.244 132.013 425.778 137.875L307.227 265.005C301.761 270.866 293.143 272.542 285.879 269.154L128.337 195.691C121.073 192.304 116.817 184.625 117.793 176.67L138.978 4.13778Z" stroke="url(#paint51_linear_37_1047)" stroke-width="3"/>
<path opacity="0.535354" d="M138.962 2.88154C140.078 -5.05515 146.177 -11.371 154.07 -12.7627L324.855 -42.8768C332.748 -44.2685 340.64 -40.4196 344.402 -33.3431L425.818 119.778C429.581 126.854 428.359 135.549 422.791 141.314L302.324 266.062C296.756 271.827 288.109 273.352 280.906 269.838L125.037 193.816C117.834 190.303 113.712 182.55 114.827 174.614L138.962 2.88154Z" stroke="url(#paint52_linear_37_1047)" stroke-width="3"/>
<path opacity="0.545455" d="M138.977 1.6658C140.231 -6.2502 146.44 -12.4586 154.356 -13.7124L325.237 -40.7774C333.153 -42.0312 340.976 -38.0451 344.615 -30.904L423.161 123.251C426.799 130.392 425.426 139.064 419.758 144.731L297.421 267.069C291.753 272.736 283.082 274.109 275.94 270.471L121.786 191.925C114.645 188.286 110.659 180.463 111.912 172.547L138.977 1.6658Z" stroke="url(#paint53_linear_37_1047)" stroke-width="3"/>
<path opacity="0.555556" d="M139.02 0.491062C140.412 -7.40186 146.728 -13.501 154.665 -14.6164L325.588 -38.6382C333.525 -39.7536 341.277 -35.6316 344.791 -28.4281L420.455 126.707C423.968 133.91 422.444 142.557 416.678 148.125L292.518 268.025C286.753 273.592 278.058 274.814 270.982 271.052L118.582 190.019C111.505 186.257 107.656 178.365 109.048 170.472L139.02 0.491062Z" stroke="url(#paint54_linear_37_1047)" stroke-width="3"/>
<path opacity="0.565657" d="M139.091 -0.641591C140.62 -8.50902 147.041 -14.497 154.996 -15.4737L325.908 -36.4591C333.863 -37.4358 341.542 -33.1791 344.929 -25.9154L417.702 130.146C421.089 137.41 419.414 146.029 413.552 151.495L287.617 268.932C281.755 274.398 273.041 275.468 266.031 271.582L115.425 188.1C108.416 184.215 104.705 176.257 106.234 168.39L139.091 -0.641591Z" stroke="url(#paint55_linear_37_1047)" stroke-width="3"/>
<path opacity="0.575758" d="M139.189 -1.73292C140.856 -9.57247 147.381 -15.4475 155.351 -16.2852L326.197 -34.2419C334.168 -35.0796 341.772 -30.6896 345.032 -23.3678L414.904 133.567C418.164 140.889 416.338 149.477 410.382 154.84L282.719 269.788C276.763 275.151 268.031 276.069 261.09 272.061L112.319 186.168C105.378 182.161 101.806 174.14 103.473 166.3L139.189 -1.73292Z" stroke="url(#paint56_linear_37_1047)" stroke-width="3"/>
<path opacity="0.585859" d="M139.313 -2.78117C141.116 -10.5904 147.742 -16.3507 155.726 -17.0492L326.453 -31.9858C334.437 -32.6843 341.963 -28.1623 345.095 -20.7848L412.058 136.97C415.189 144.348 413.214 152.903 407.166 158.161L277.824 270.595C271.776 275.854 263.029 276.619 256.159 272.491L109.259 184.224C102.389 180.097 98.9582 172.014 100.761 164.205L139.313 -2.78117Z" stroke="url(#paint57_linear_37_1047)" stroke-width="3"/>
<path opacity="0.59596" d="M139.462 -3.78726C141.401 -11.5639 148.127 -17.2076 156.122 -17.7666L326.676 -29.693C334.671 -30.252 342.117 -25.5993 345.12 -18.1683L409.166 140.353C412.169 147.784 410.045 156.303 403.905 161.455L272.934 271.353C266.794 276.504 258.036 277.117 251.239 272.87L106.248 182.269C99.4508 178.022 96.1618 169.881 98.1007 162.105L139.462 -3.78726Z" stroke="url(#paint58_linear_37_1047)" stroke-width="3"/>
<path opacity="0.606061" d="M139.638 -4.74991C141.712 -12.4915 148.536 -18.017 156.539 -18.4364L326.868 -27.3629C334.872 -27.7824 342.235 -23.0005 345.107 -15.5181L406.231 143.715C409.104 151.198 406.831 159.679 400.602 164.723L268.051 272.061C261.822 277.105 253.054 277.564 246.332 273.199L103.287 180.304C96.5652 175.939 93.4187 167.742 95.4931 160.001L139.638 -4.74991Z" stroke="url(#paint59_linear_37_1047)" stroke-width="3"/>
<path opacity="0.616162" d="M139.837 -5.6695C142.046 -13.3737 148.965 -18.7792 156.974 -19.0589L327.025 -24.9972C335.035 -25.2769 342.314 -20.3672 345.055 -12.8359L403.251 147.057C405.992 154.588 403.572 163.028 397.256 167.962L263.173 272.72C256.857 277.654 248.083 277.96 241.438 273.479L100.374 178.33C93.7297 173.848 90.7267 165.597 92.9359 157.893L139.837 -5.6695Z" stroke="url(#paint60_linear_37_1047)" stroke-width="3"/>
<path opacity="0.626263" d="M140.058 -6.54472C142.401 -14.2092 149.413 -19.4931 157.426 -19.633L327.146 -22.5955C335.16 -22.7354 342.352 -17.6994 344.961 -10.1213L400.225 150.377C402.834 157.955 400.267 166.351 393.867 171.174L258.302 273.33C251.901 278.153 243.122 278.307 236.557 273.709L97.5091 176.347C90.9439 171.75 88.0854 163.449 90.4286 155.784L140.058 -6.54472Z" stroke="url(#paint61_linear_37_1047)" stroke-width="3"/>
<path opacity="0.636364" d="M140.301 -7.37583C142.778 -14.9982 149.881 -20.159 157.896 -20.159L327.233 -20.159C335.248 -20.159 342.351 -14.9983 344.828 -7.37583L397.156 153.674C399.633 161.296 396.919 169.647 390.435 174.357L253.438 273.892C246.954 278.603 238.174 278.603 231.69 273.892L94.6934 174.357C88.2093 169.647 85.4962 161.296 87.9728 153.674L140.301 -7.37583Z" stroke="url(#paint62_linear_37_1047)" stroke-width="3"/>
<path opacity="0.646465" d="M140.566 -8.16317C143.175 -15.7412 150.368 -20.7772 158.381 -20.6373L327.285 -17.6891C335.298 -17.5492 342.31 -12.2653 344.654 -4.60082L394.044 156.947C396.387 164.612 393.529 172.913 386.963 177.51L248.584 274.404C242.019 279.001 233.24 278.848 226.84 274.025L91.9266 172.361C85.5258 167.537 82.9588 159.141 85.5681 151.563L140.566 -8.16317Z" stroke="url(#paint63_linear_37_1047)" stroke-width="3"/>
<path opacity="0.656566" d="M140.851 -8.90538C143.592 -16.4367 150.871 -21.3464 158.881 -21.0667L327.299 -15.1854C335.309 -14.9057 342.228 -9.50019 344.437 -1.79599L390.888 160.197C393.097 167.901 390.094 176.152 383.449 180.633L243.739 274.869C237.094 279.351 228.32 279.045 222.004 274.11L89.2076 170.358C82.8919 165.424 80.4718 156.984 83.213 149.453L140.851 -8.90538Z" stroke="url(#paint64_linear_37_1047)" stroke-width="3"/>
<path opacity="0.666667" d="M141.155 -9.60354C144.028 -17.0859 151.391 -21.8678 159.395 -21.4484L327.277 -12.65C335.281 -12.2306 342.104 -6.70512 344.179 1.03647L387.69 163.421C389.764 171.163 386.617 179.36 379.896 183.725L238.904 275.285C232.183 279.651 223.415 279.191 217.186 274.147L86.5379 168.35C80.3093 163.307 78.0369 154.826 80.9091 147.343L141.155 -9.60354Z" stroke="url(#paint65_linear_37_1047)" stroke-width="3"/>
<path opacity="0.676768" d="M141.48 -10.2558C144.483 -17.6869 151.928 -22.3396 159.924 -21.7805L327.22 -10.082C335.215 -9.52295 341.941 -3.87926 343.88 3.89735L384.451 166.62C386.39 174.397 383.101 182.538 376.304 186.785L234.083 275.655C227.286 279.902 218.527 279.29 212.387 274.138L83.9182 166.339C77.7786 161.188 75.6546 152.668 78.6569 145.237L141.48 -10.2558Z" stroke="url(#paint66_linear_37_1047)" stroke-width="3"/>
<path opacity="0.686869" d="M141.821 -10.863C144.953 -18.2406 152.479 -22.7626 160.463 -22.0641L327.123 -7.48325C335.107 -6.78472 341.733 -1.02451 343.536 6.78475L381.17 169.793C382.973 177.603 379.542 185.685 372.672 189.813L229.271 275.977C222.401 280.105 213.654 279.339 207.606 274.081L81.3453 164.325C75.2966 159.067 73.3215 150.512 76.4531 143.134L141.821 -10.863Z" stroke="url(#paint67_linear_37_1047)" stroke-width="3"/>
<path opacity="0.69697" d="M142.18 -11.4248C145.44 -18.7465 153.043 -23.1366 161.014 -22.2988L326.988 -4.85422C334.959 -4.01647 341.484 1.85851 343.15 9.69806L377.848 172.939C379.514 180.779 375.943 188.8 369.002 192.807L224.473 276.251C217.532 280.259 208.8 279.341 202.844 273.978L78.8218 162.308C72.8658 156.945 71.0403 148.357 74.3002 141.035L142.18 -11.4248Z" stroke="url(#paint68_linear_37_1047)" stroke-width="3"/>
<path opacity="0.707071" d="M142.555 -11.9399C145.942 -19.2037 153.622 -23.4603 161.576 -22.4836L326.816 -2.19477C334.77 -1.21802 341.192 4.76996 342.721 12.6374L374.487 176.059C376.016 183.926 372.306 191.884 365.296 195.769L219.689 276.48C212.679 280.366 203.965 279.296 198.103 273.83L76.3474 160.291C70.4859 154.825 68.8105 146.206 72.1977 138.942L142.555 -11.9399Z" stroke="url(#paint69_linear_37_1047)" stroke-width="3"/>
<path opacity="0.717172" d="M142.945 -12.4101C146.459 -19.6136 154.211 -23.7356 162.148 -22.6202L326.603 0.492542C334.54 1.60797 340.856 7.70709 342.248 15.6L371.086 179.149C372.477 187.042 368.629 194.933 361.552 198.696L214.919 276.662C207.843 280.424 199.148 279.203 193.383 273.635L73.9208 158.272C68.1556 152.704 66.6309 144.058 70.1443 136.854L142.945 -12.4101Z" stroke="url(#paint70_linear_37_1047)" stroke-width="3"/>
<path opacity="0.727273" d="M143.35 -12.8333C146.989 -19.9745 154.812 -23.9605 162.728 -22.7068L326.352 3.20872C334.268 4.4625 340.476 10.6709 341.73 18.5869L367.646 182.211C368.899 190.127 364.913 197.95 357.772 201.589L210.165 276.798C203.024 280.437 194.352 279.063 188.685 273.396L71.5428 156.254C65.8755 150.587 64.502 141.915 68.1406 134.774L143.35 -12.8333Z" stroke="url(#paint71_linear_37_1047)" stroke-width="3"/>
<path opacity="0.737374" d="M143.77 -13.2106C147.532 -20.2872 155.424 -24.1361 163.317 -22.7444L326.061 5.95192C333.954 7.34366 340.054 13.6595 341.169 21.5962L364.168 185.243C365.283 193.18 361.162 200.932 353.958 204.446L205.428 276.889C198.224 280.402 189.577 278.878 184.01 273.112L69.2139 154.238C63.6464 148.472 62.4245 139.778 66.1871 132.701L143.77 -13.2106Z" stroke="url(#paint72_linear_37_1047)" stroke-width="3"/>
<path opacity="0.747475" d="M144.201 -13.5409C148.087 -20.5507 156.044 -24.2614 163.911 -22.7321L325.73 8.72224C333.597 10.2515 339.585 16.6728 340.562 24.6277L360.652 188.246C361.628 196.201 357.372 203.88 350.108 207.267L200.706 276.935C193.442 280.322 184.823 278.647 179.357 272.785L66.9319 152.224C61.4659 146.362 60.3959 137.647 64.2815 130.638L144.201 -13.5409Z" stroke="url(#paint73_linear_37_1047)" stroke-width="3"/>
<path opacity="0.757576" d="M144.646 -13.8257C148.653 -20.7667 156.674 -24.3378 164.514 -22.6715L325.359 11.5173C333.199 13.1837 339.074 19.7085 339.911 27.6792L357.1 191.217C357.938 199.188 353.548 206.792 346.226 210.052L196.003 276.935C188.682 280.195 180.094 278.369 174.731 272.413L64.6996 150.211C59.3367 144.255 58.4189 135.523 62.4263 128.583L144.646 -13.8257Z" stroke="url(#paint74_linear_37_1047)" stroke-width="3"/>
<path opacity="0.767677" d="M145.1 -14.0632C149.228 -20.9331 157.31 -24.3637 165.119 -22.5608L324.946 14.3381C332.755 16.141 338.515 22.7673 339.214 30.7515L353.51 194.158C354.209 202.142 349.687 209.668 342.309 212.8L191.318 276.892C183.94 280.023 175.385 278.048 170.127 271.999L62.5136 148.204C57.2555 142.155 56.4902 133.408 60.6181 126.539L145.1 -14.0632Z" stroke="url(#paint75_linear_37_1047)" stroke-width="3"/>
<path opacity="0.777778" d="M145.565 -14.2535C149.812 -21.0503 157.953 -24.3394 165.73 -22.4005L324.492 17.1834C332.268 19.1223 337.912 25.8482 338.471 33.8433L349.885 197.067C350.444 205.062 345.791 212.508 338.36 215.511L186.652 276.805C179.221 279.807 170.702 277.683 165.55 271.543L60.3756 146.201C55.2239 140.062 54.6114 131.303 58.8585 124.506L145.565 -14.2535Z" stroke="url(#paint76_linear_37_1047)" stroke-width="3"/>
<path opacity="0.787879" d="M146.04 -14.3971C150.405 -21.1188 158.602 -24.2653 166.344 -22.1909L323.996 20.052C331.738 22.1264 337.263 28.9497 337.683 36.9534L346.225 199.944C346.644 207.948 341.862 215.311 334.38 218.183L182.006 276.674C174.524 279.546 166.043 277.274 160.999 271.045L58.2854 144.204C53.2416 137.975 52.7821 129.207 57.1472 122.486L146.04 -14.3971Z" stroke="url(#paint77_linear_37_1047)" stroke-width="3"/>
<path opacity="0.79798" d="M146.523 -14.4946C151.004 -21.1391 159.255 -24.142 166.959 -21.9329L323.458 22.9425C331.162 25.1517 336.568 32.0704 336.848 40.0802L342.529 202.787C342.809 210.797 337.899 218.076 330.368 220.817L177.381 276.5C169.849 279.241 161.409 276.821 156.475 270.505L56.2417 142.212C51.3073 135.897 51.0009 127.122 55.4827 120.478L146.523 -14.4946Z" stroke="url(#paint78_linear_37_1047)" stroke-width="3"/>
<path opacity="0.808081" d="M147.014 -14.5443C151.611 -21.1095 159.913 -23.968 167.577 -21.6248L322.879 25.8557C330.543 28.199 335.827 35.211 335.967 43.2245L338.802 205.597C338.941 213.611 333.905 220.803 326.327 223.412L172.777 276.284C165.199 278.893 156.803 276.326 151.98 269.925L54.2462 140.229C49.4228 133.828 49.2696 125.049 53.8666 118.484L147.014 -14.5443Z" stroke="url(#paint79_linear_37_1047)" stroke-width="3"/>
<path opacity="0.818182" d="M147.511 -14.5477C152.221 -21.0317 160.572 -23.7449 168.194 -21.2682L322.255 28.7893C329.878 31.2659 335.039 38.3691 335.039 46.3838L335.039 208.373C335.039 216.388 329.878 223.491 322.255 225.968L168.194 276.025C160.572 278.502 152.222 275.789 147.511 269.305L52.2956 138.253C47.5846 131.769 47.5846 122.989 52.2955 116.505L147.511 -14.5477Z" stroke="url(#paint80_linear_37_1047)" stroke-width="3"/>
<path opacity="0.828283" d="M148.015 -14.5037C152.838 -20.9046 161.235 -23.4716 168.813 -20.8623L321.591 31.7435C329.169 34.3528 334.205 41.545 334.065 49.5584L331.245 211.115C331.105 219.129 325.821 226.141 318.157 228.484L163.636 275.726C155.971 278.069 147.67 275.21 143.073 268.645L50.3935 136.286C45.7965 129.72 45.9497 120.942 50.7731 114.541L148.015 -14.5037Z" stroke="url(#paint81_linear_37_1047)" stroke-width="3"/>
<path opacity="0.838384" d="M148.525 -14.4133C153.459 -20.729 161.899 -23.1491 169.43 -20.4079L320.884 34.7165C328.415 37.4577 333.325 44.7367 333.045 52.7465L327.42 213.821C327.14 221.831 321.735 228.75 314.031 230.959L159.101 275.384C151.397 277.593 143.146 274.591 138.665 267.946L48.5378 134.328C44.0561 127.683 44.3625 118.908 49.2968 112.593L148.525 -14.4133Z" stroke="url(#paint82_linear_37_1047)" stroke-width="3"/>
<path opacity="0.848485" d="M149.037 -14.2752C154.081 -20.5038 162.562 -22.7762 170.044 -19.904L320.131 37.7089C327.613 40.5811 332.395 47.9447 331.976 55.9484L323.562 216.493C323.143 224.497 317.617 231.32 309.876 233.394L154.589 275.003C146.847 277.078 138.65 273.931 134.285 267.209L46.7263 132.381C42.3612 125.659 42.8207 116.891 47.8645 110.663L149.037 -14.2752Z" stroke="url(#paint83_linear_37_1047)" stroke-width="3"/>
<path opacity="0.858586" d="M149.555 -14.091C154.706 -20.2306 163.226 -22.3546 170.657 -19.3523L319.337 40.7184C326.768 43.7207 331.421 51.1666 330.862 59.1618L319.676 219.128C319.117 227.123 313.473 233.849 305.696 235.788L150.103 274.581C142.326 276.52 134.186 273.231 129.938 266.434L44.9624 130.444C40.7153 123.648 41.3278 114.889 46.4795 108.749L149.555 -14.091Z" stroke="url(#paint84_linear_37_1047)" stroke-width="3"/>
<path opacity="0.868687" d="M150.073 -13.8594C155.331 -19.9081 163.886 -21.8832 171.264 -18.7516L318.497 43.7452C325.875 46.8768 330.397 54.4027 329.698 62.3869L315.758 221.727C315.059 229.711 309.299 236.337 301.49 238.14L145.641 274.121C137.832 275.924 129.75 272.493 125.622 265.623L43.2422 128.52C39.1143 121.651 39.8795 112.904 45.1376 106.855L150.073 -13.8594Z" stroke="url(#paint85_linear_37_1047)" stroke-width="3"/>
<path opacity="0.878788" d="M150.594 -13.5807C155.957 -19.5368 164.546 -21.3622 171.867 -18.1024L317.614 46.7884C324.936 50.0483 329.326 57.652 328.488 65.6228L311.812 224.289C310.974 232.26 305.099 238.785 297.26 240.451L141.206 273.621C133.366 275.287 125.345 271.716 121.338 264.775L41.5681 126.61C37.5607 119.669 38.4785 110.937 43.8413 104.981L150.594 -13.5807Z" stroke="url(#paint86_linear_37_1047)" stroke-width="3"/>
<path opacity="0.888889" d="M151.115 -13.2558C156.581 -19.1174 165.2 -20.7927 172.464 -17.4055L316.686 49.8465C323.95 53.2337 328.206 60.9129 327.23 68.8678L307.836 226.814C306.86 234.769 300.872 241.19 293.004 242.719L136.796 273.083C128.929 274.612 120.971 270.902 117.086 263.892L39.9369 124.712C36.0513 117.702 37.1213 108.987 42.5873 103.126L151.115 -13.2558Z" stroke="url(#paint87_linear_37_1047)" stroke-width="3"/>
<path opacity="0.89899" d="M151.638 -12.884C157.205 -18.6493 165.852 -20.174 173.055 -16.6606L315.715 52.9193C322.919 56.4327 327.041 64.185 325.925 72.1217L303.835 229.301C302.72 237.237 296.621 243.553 288.728 244.945L132.416 272.507C124.523 273.899 116.631 270.05 112.869 262.973L38.3524 122.829C34.5897 115.752 35.8117 107.057 41.3791 101.292L151.638 -12.884Z" stroke="url(#paint88_linear_37_1047)" stroke-width="3"/>
<path opacity="0.909091" d="M152.159 -12.4651C157.826 -18.1323 166.498 -19.5058 173.64 -15.8672L314.7 56.0065C321.841 59.6451 325.827 67.4681 324.573 75.3841L299.807 231.75C298.553 239.666 292.345 245.875 284.429 247.129L128.063 271.895C120.147 273.148 112.324 269.162 108.685 262.021L36.8112 120.961C33.1726 113.82 34.5461 105.148 40.2134 99.4808L152.159 -12.4651Z" stroke="url(#paint89_linear_37_1047)" stroke-width="3"/>
<path opacity="0.919192" d="M152.679 -12.0011C158.444 -17.5685 167.138 -18.7905 174.215 -15.0278L313.639 59.1051C320.715 62.8678 324.564 70.7592 323.173 78.6521L295.752 234.16C294.36 242.053 288.045 248.152 280.108 249.268L123.738 271.244C115.801 272.36 108.049 268.238 104.535 261.034L35.3132 119.108C31.7997 111.905 33.3244 103.258 39.0897 97.6905L152.679 -12.0011Z" stroke="url(#paint90_linear_37_1047)" stroke-width="3"/>
<path opacity="0.929293" d="M153.196 -11.4901C159.058 -16.9561 167.772 -18.0261 174.782 -14.1405L312.534 62.2165C319.543 66.1021 323.254 74.0595 321.725 81.9269L291.673 236.532C290.143 244.4 283.722 250.388 275.767 251.364L119.442 270.559C111.487 271.535 103.808 267.279 100.421 260.015L33.8589 117.272C30.4717 110.009 32.147 101.39 38.0086 95.9239L153.196 -11.4901Z" stroke="url(#paint91_linear_37_1047)" stroke-width="3"/>
<path opacity="0.939394" d="M153.709 -10.933C159.665 -16.2958 168.397 -17.2136 175.338 -13.2063L311.382 65.3391C318.323 69.3464 321.895 77.3674 320.228 85.207L287.567 238.865C285.901 246.704 279.376 252.579 271.405 253.417L115.175 269.838C107.204 270.675 99.6005 266.285 96.3407 258.964L32.4461 115.454C29.1862 108.132 31.0117 99.5441 36.9678 94.1813L153.709 -10.933Z" stroke="url(#paint92_linear_37_1047)" stroke-width="3"/>
<path opacity="0.949495" d="M154.221 -10.3292C160.269 -15.5873 169.016 -16.3525 175.886 -12.2247L310.189 68.4728C317.059 72.6007 320.489 80.6827 318.687 88.492L283.441 241.159C281.638 248.968 275.011 254.728 267.027 255.427L110.941 269.083C102.957 269.781 95.4308 265.259 92.2992 257.881L31.0785 113.654C27.9469 106.277 29.922 97.7219 35.9707 92.4638L154.221 -10.3292Z" stroke="url(#paint93_linear_37_1047)" stroke-width="3"/>
<path opacity="0.959596" d="M154.726 -9.68092C160.866 -14.8327 169.624 -15.4451 176.421 -11.198L308.949 71.6148C315.746 75.8619 319.035 84.0026 317.096 91.7792L279.29 243.411C277.351 251.188 270.625 256.832 262.63 257.391L106.737 268.292C98.7414 268.851 91.2955 264.198 88.2932 256.767L29.7518 111.872C26.7494 104.441 28.8735 95.922 35.0131 90.7703L154.726 -9.68092Z" stroke="url(#paint94_linear_37_1047)" stroke-width="3"/>
<path opacity="0.969697" d="M155.224 -8.98629C161.453 -14.0301 170.221 -14.4896 176.942 -10.1245L307.663 74.7662C314.384 79.1313 317.531 87.3282 315.457 95.0698L275.115 245.625C273.041 253.366 266.218 258.892 258.214 259.311L102.562 267.469C94.5579 267.888 87.1944 263.106 84.3222 255.624L28.4648 110.11C25.5925 102.628 27.865 94.1472 34.0936 89.1034L155.224 -8.98629Z" stroke="url(#paint95_linear_37_1047)" stroke-width="3"/>
<path opacity="0.979798" d="M155.718 -8.24743C162.034 -13.1818 170.808 -13.4882 177.453 -9.00642L306.333 77.9245C312.978 82.4062 315.981 90.6568 313.771 98.361L270.921 247.797C268.712 255.501 261.794 260.906 253.784 261.186L98.4206 266.611C90.4108 266.891 83.1319 261.981 80.3907 254.45L27.221 108.368C24.4798 100.836 26.8999 92.3963 33.2156 87.462L155.718 -8.24743Z" stroke="url(#paint96_linear_37_1047)" stroke-width="3"/>
<path opacity="0.989899" d="M156.205 -7.46239C162.606 -12.2858 171.384 -12.439 177.95 -7.84195L304.959 81.0908C311.524 85.6879 314.383 93.9896 312.039 101.654L266.707 249.929C264.364 257.593 257.352 262.877 249.338 263.017L94.3124 265.723C86.2989 265.863 79.1068 260.827 76.4974 253.249L26.0182 106.647C23.4089 99.0685 25.9759 90.6721 32.3767 85.8488L156.205 -7.46239Z" stroke="url(#paint97_linear_37_1047)" stroke-width="3"/>
<path d="M156.682 -6.6326C163.166 -11.3435 171.946 -11.3435 178.43 -6.6326L303.538 84.2633C310.022 88.9742 312.735 97.3245 310.258 104.947L262.471 252.02C259.995 259.642 252.892 264.803 244.877 264.803H90.2355C82.2209 264.803 75.1177 259.642 72.641 252.02L24.8542 104.947C22.3775 97.3245 25.0907 88.9742 31.5747 84.2633L156.682 -6.6326Z" stroke="url(#paint98_linear_37_1047)" stroke-width="3"/>
<defs>
<linearGradient id="paint0_linear_37_1047" x1="387.589" y1="181.719" x2="356.086" y2="-42.4374" gradientUnits="userSpaceOnUse">
<stop stop-color="#7938AE"/>
<stop offset="1" stop-color="#F1E4FD"/>
</linearGradient>
<linearGradient id="paint1_linear_37_1047" x1="383.559" y1="182.472" x2="356.023" y2="-41.7902" gradientUnits="userSpaceOnUse">
<stop stop-color="#7938AE"/>
<stop offset="1" stop-color="#F1E4FD"/>
</linearGradient>
<linearGradient id="paint2_linear_37_1047" x1="379.532" y1="183.19" x2="355.958" y2="-41.107" gradientUnits="userSpaceOnUse">
<stop stop-color="#7938AE"/>
<stop offset="1" stop-color="#F1E4FD"/>
</linearGradient>
<linearGradient id="paint3_linear_37_1047" x1="375.509" y1="183.876" x2="355.888" y2="-40.3877" gradientUnits="userSpaceOnUse">
<stop stop-color="#7938AE"/>
<stop offset="1" stop-color="#F1E4FD"/>
</linearGradient>
<linearGradient id="paint4_linear_37_1047" x1="371.491" y1="184.526" x2="355.816" y2="-39.6331" gradientUnits="userSpaceOnUse">
<stop stop-color="#7938AE"/>
<stop offset="1" stop-color="#F1E4FD"/>
</linearGradient>
<linearGradient id="paint5_linear_37_1047" x1="367.474" y1="185.142" x2="355.735" y2="-38.8439" gradientUnits="userSpaceOnUse">
<stop stop-color="#7938AE"/>
<stop offset="1" stop-color="#F1E4FD"/>
</linearGradient>
<linearGradient id="paint6_linear_37_1047" x1="363.467" y1="185.725" x2="355.654" y2="-38.0196" gradientUnits="userSpaceOnUse">
<stop stop-color="#7938AE"/>
<stop offset="1" stop-color="#F1E4FD"/>
</linearGradient>
<linearGradient id="paint7_linear_37_1047" x1="359.462" y1="186.274" x2="355.562" y2="-37.1594" gradientUnits="userSpaceOnUse">
<stop stop-color="#7938AE"/>
<stop offset="1" stop-color="#F1E4FD"/>
</linearGradient>
<linearGradient id="paint8_linear_37_1047" x1="355.465" y1="186.789" x2="355.465" y2="-36.265" gradientUnits="userSpaceOnUse">
<stop stop-color="#7938AE"/>
<stop offset="1" stop-color="#F1E4FD"/>
</linearGradient>
<linearGradient id="paint9_linear_37_1047" x1="351.475" y1="187.271" x2="355.361" y2="-35.3365" gradientUnits="userSpaceOnUse">
<stop stop-color="#7938AE"/>
<stop offset="1" stop-color="#F1E4FD"/>
</linearGradient>
<linearGradient id="paint10_linear_37_1047" x1="347.491" y1="187.72" x2="355.247" y2="-34.3726" gradientUnits="userSpaceOnUse">
<stop stop-color="#7938AE"/>
<stop offset="1" stop-color="#F1E4FD"/>
</linearGradient>
<linearGradient id="paint11_linear_37_1047" x1="343.516" y1="188.136" x2="355.124" y2="-33.3756" gradientUnits="userSpaceOnUse">
<stop stop-color="#7938AE"/>
<stop offset="1" stop-color="#F1E4FD"/>
</linearGradient>
<linearGradient id="paint12_linear_37_1047" x1="339.551" y1="188.519" x2="354.995" y2="-32.3436" gradientUnits="userSpaceOnUse">
<stop stop-color="#7938AE"/>
<stop offset="1" stop-color="#F1E4FD"/>
</linearGradient>
<linearGradient id="paint13_linear_37_1047" x1="335.594" y1="188.87" x2="354.855" y2="-31.2783" gradientUnits="userSpaceOnUse">
<stop stop-color="#7938AE"/>
<stop offset="1" stop-color="#F1E4FD"/>
</linearGradient>
<linearGradient id="paint14_linear_37_1047" x1="331.647" y1="189.188" x2="354.703" y2="-30.1798" gradientUnits="userSpaceOnUse">
<stop stop-color="#7938AE"/>
<stop offset="1" stop-color="#F1E4FD"/>
</linearGradient>
<linearGradient id="paint15_linear_37_1047" x1="327.709" y1="189.474" x2="354.54" y2="-29.0477" gradientUnits="userSpaceOnUse">
<stop stop-color="#7938AE"/>
<stop offset="1" stop-color="#F1E4FD"/>
</linearGradient>
<linearGradient id="paint16_linear_37_1047" x1="323.784" y1="189.729" x2="354.368" y2="-27.8824" gradientUnits="userSpaceOnUse">
<stop stop-color="#7938AE"/>
<stop offset="1" stop-color="#F1E4FD"/>
</linearGradient>
<linearGradient id="paint17_linear_37_1047" x1="319.87" y1="189.952" x2="354.182" y2="-26.6847" gradientUnits="userSpaceOnUse">
<stop stop-color="#7938AE"/>
<stop offset="1" stop-color="#F1E4FD"/>
</linearGradient>
<linearGradient id="paint18_linear_37_1047" x1="315.967" y1="190.144" x2="353.983" y2="-25.4543" gradientUnits="userSpaceOnUse">
<stop stop-color="#7938AE"/>
<stop offset="1" stop-color="#F1E4FD"/>
</linearGradient>
<linearGradient id="paint19_linear_37_1047" x1="312.078" y1="190.303" x2="353.772" y2="-24.193" gradientUnits="userSpaceOnUse">
<stop stop-color="#7938AE"/>
<stop offset="1" stop-color="#F1E4FD"/>
</linearGradient>
<linearGradient id="paint20_linear_37_1047" x1="308.201" y1="190.434" x2="353.547" y2="-22.8982" gradientUnits="userSpaceOnUse">
<stop stop-color="#7938AE"/>
<stop offset="1" stop-color="#F1E4FD"/>
</linearGradient>
<linearGradient id="paint21_linear_37_1047" x1="304.338" y1="190.532" x2="353.307" y2="-21.5731" gradientUnits="userSpaceOnUse">
<stop stop-color="#7938AE"/>
<stop offset="1" stop-color="#F1E4FD"/>
</linearGradient>
<linearGradient id="paint22_linear_37_1047" x1="300.49" y1="190.602" x2="353.053" y2="-20.2159" gradientUnits="userSpaceOnUse">
<stop stop-color="#7938AE"/>
<stop offset="1" stop-color="#F1E4FD"/>
</linearGradient>
<linearGradient id="paint23_linear_37_1047" x1="296.655" y1="190.641" x2="352.782" y2="-18.8279" gradientUnits="userSpaceOnUse">
<stop stop-color="#7938AE"/>
<stop offset="1" stop-color="#F1E4FD"/>
</linearGradient>
<linearGradient id="paint24_linear_37_1047" x1="292.836" y1="190.651" x2="352.497" y2="-17.41" gradientUnits="userSpaceOnUse">
<stop stop-color="#7938AE"/>
<stop offset="1" stop-color="#F1E4FD"/>
</linearGradient>
<linearGradient id="paint25_linear_37_1047" x1="289.033" y1="190.631" x2="352.194" y2="-15.9619" gradientUnits="userSpaceOnUse">
<stop stop-color="#7938AE"/>
<stop offset="1" stop-color="#F1E4FD"/>
</linearGradient>
<linearGradient id="paint26_linear_37_1047" x1="285.245" y1="190.583" x2="351.875" y2="-14.4833" gradientUnits="userSpaceOnUse">
<stop stop-color="#7938AE"/>
<stop offset="1" stop-color="#F1E4FD"/>
</linearGradient>
<linearGradient id="paint27_linear_37_1047" x1="281.474" y1="190.506" x2="351.538" y2="-12.9755" gradientUnits="userSpaceOnUse">
<stop stop-color="#7938AE"/>
<stop offset="1" stop-color="#F1E4FD"/>
</linearGradient>
<linearGradient id="paint28_linear_37_1047" x1="277.719" y1="190.402" x2="351.183" y2="-11.4381" gradientUnits="userSpaceOnUse">
<stop stop-color="#7938AE"/>
<stop offset="1" stop-color="#F1E4FD"/>
</linearGradient>
<linearGradient id="paint29_linear_37_1047" x1="273.983" y1="190.268" x2="350.81" y2="-9.87289" gradientUnits="userSpaceOnUse">
<stop stop-color="#7938AE"/>
<stop offset="1" stop-color="#F1E4FD"/>
</linearGradient>
<linearGradient id="paint30_linear_37_1047" x1="270.264" y1="190.108" x2="350.417" y2="-8.27837" gradientUnits="userSpaceOnUse">
<stop stop-color="#7938AE"/>
<stop offset="1" stop-color="#F1E4FD"/>
</linearGradient>
<linearGradient id="paint31_linear_37_1047" x1="266.565" y1="189.921" x2="350.007" y2="-6.65699" gradientUnits="userSpaceOnUse">
<stop stop-color="#7938AE"/>
<stop offset="1" stop-color="#F1E4FD"/>
</linearGradient>
<linearGradient id="paint32_linear_37_1047" x1="262.884" y1="189.707" x2="349.576" y2="-5.00706" gradientUnits="userSpaceOnUse">
<stop stop-color="#7938AE"/>
<stop offset="1" stop-color="#F1E4FD"/>
</linearGradient>
<linearGradient id="paint33_linear_37_1047" x1="259.223" y1="189.466" x2="349.126" y2="-3.33064" gradientUnits="userSpaceOnUse">
<stop stop-color="#7938AE"/>
<stop offset="1" stop-color="#F1E4FD"/>
</linearGradient>
<linearGradient id="paint34_linear_37_1047" x1="255.58" y1="189.201" x2="348.653" y2="-1.62662" gradientUnits="userSpaceOnUse">
<stop stop-color="#7938AE"/>
<stop offset="1" stop-color="#F1E4FD"/>
</linearGradient>
<linearGradient id="paint35_linear_37_1047" x1="251.958" y1="188.909" x2="348.159" y2="0.102991" gradientUnits="userSpaceOnUse">
<stop stop-color="#7938AE"/>
<stop offset="1" stop-color="#F1E4FD"/>
</linearGradient>
<linearGradient id="paint36_linear_37_1047" x1="248.357" y1="188.593" x2="347.645" y2="1.85915" gradientUnits="userSpaceOnUse">
<stop stop-color="#7938AE"/>
<stop offset="1" stop-color="#F1E4FD"/>
</linearGradient>
<linearGradient id="paint37_linear_37_1047" x1="244.777" y1="188.251" x2="347.108" y2="3.63992" gradientUnits="userSpaceOnUse">
<stop stop-color="#7938AE"/>
<stop offset="1" stop-color="#F1E4FD"/>
</linearGradient>
<linearGradient id="paint38_linear_37_1047" x1="241.218" y1="187.885" x2="346.549" y2="5.44626" gradientUnits="userSpaceOnUse">
<stop stop-color="#7938AE"/>
<stop offset="1" stop-color="#F1E4FD"/>
</linearGradient>
<linearGradient id="paint39_linear_37_1047" x1="237.681" y1="187.495" x2="345.967" y2="7.2763" gradientUnits="userSpaceOnUse">
<stop stop-color="#7938AE"/>
<stop offset="1" stop-color="#F1E4FD"/>
</linearGradient>
<linearGradient id="paint40_linear_37_1047" x1="234.167" y1="187.083" x2="345.363" y2="9.13153" gradientUnits="userSpaceOnUse">
<stop stop-color="#7938AE"/>
<stop offset="1" stop-color="#F1E4FD"/>
</linearGradient>
<linearGradient id="paint41_linear_37_1047" x1="230.674" y1="186.647" x2="344.735" y2="11.0101" gradientUnits="userSpaceOnUse">
<stop stop-color="#7938AE"/>
<stop offset="1" stop-color="#F1E4FD"/>
</linearGradient>
<linearGradient id="paint42_linear_37_1047" x1="227.205" y1="186.189" x2="344.082" y2="12.9115" gradientUnits="userSpaceOnUse">
<stop stop-color="#7938AE"/>
<stop offset="1" stop-color="#F1E4FD"/>
</linearGradient>
<linearGradient id="paint43_linear_37_1047" x1="223.758" y1="185.709" x2="343.405" y2="14.836" gradientUnits="userSpaceOnUse">
<stop stop-color="#7938AE"/>
<stop offset="1" stop-color="#F1E4FD"/>
</linearGradient>
<linearGradient id="paint44_linear_37_1047" x1="220.334" y1="185.208" x2="342.702" y2="16.783" gradientUnits="userSpaceOnUse">
<stop stop-color="#7938AE"/>
<stop offset="1" stop-color="#F1E4FD"/>
</linearGradient>
<linearGradient id="paint45_linear_37_1047" x1="216.936" y1="184.685" x2="341.976" y2="18.7514" gradientUnits="userSpaceOnUse">
<stop stop-color="#7938AE"/>
<stop offset="1" stop-color="#F1E4FD"/>
</linearGradient>
<linearGradient id="paint46_linear_37_1047" x1="213.562" y1="184.141" x2="341.225" y2="20.7406" gradientUnits="userSpaceOnUse">
<stop stop-color="#7938AE"/>
<stop offset="1" stop-color="#F1E4FD"/>
</linearGradient>
<linearGradient id="paint47_linear_37_1047" x1="210.212" y1="183.577" x2="340.446" y2="22.7508" gradientUnits="userSpaceOnUse">
<stop stop-color="#7938AE"/>
<stop offset="1" stop-color="#F1E4FD"/>
</linearGradient>
<linearGradient id="paint48_linear_37_1047" x1="206.888" y1="182.994" x2="339.644" y2="24.7809" gradientUnits="userSpaceOnUse">
<stop stop-color="#7938AE"/>
<stop offset="1" stop-color="#F1E4FD"/>
</linearGradient>
<linearGradient id="paint49_linear_37_1047" x1="203.589" y1="182.392" x2="338.815" y2="26.8317" gradientUnits="userSpaceOnUse">
<stop stop-color="#7938AE"/>
<stop offset="1" stop-color="#F1E4FD"/>
</linearGradient>
<linearGradient id="paint50_linear_37_1047" x1="200.313" y1="181.771" x2="337.958" y2="28.9013" gradientUnits="userSpaceOnUse">
<stop stop-color="#7938AE"/>
<stop offset="1" stop-color="#F1E4FD"/>
</linearGradient>
<linearGradient id="paint51_linear_37_1047" x1="197.065" y1="181.131" x2="337.074" y2="30.9894" gradientUnits="userSpaceOnUse">
<stop stop-color="#7938AE"/>
<stop offset="1" stop-color="#F1E4FD"/>
</linearGradient>
<linearGradient id="paint52_linear_37_1047" x1="193.842" y1="180.474" x2="336.163" y2="33.096" gradientUnits="userSpaceOnUse">
<stop stop-color="#7938AE"/>
<stop offset="1" stop-color="#F1E4FD"/>
</linearGradient>
<linearGradient id="paint53_linear_37_1047" x1="190.646" y1="179.8" x2="335.226" y2="35.22" gradientUnits="userSpaceOnUse">
<stop stop-color="#7938AE"/>
<stop offset="1" stop-color="#F1E4FD"/>
</linearGradient>
<linearGradient id="paint54_linear_37_1047" x1="187.477" y1="179.109" x2="334.26" y2="37.3611" gradientUnits="userSpaceOnUse">
<stop stop-color="#7938AE"/>
<stop offset="1" stop-color="#F1E4FD"/>
</linearGradient>
<linearGradient id="paint55_linear_37_1047" x1="184.333" y1="178.402" x2="333.266" y2="39.5192" gradientUnits="userSpaceOnUse">
<stop stop-color="#7938AE"/>
<stop offset="1" stop-color="#F1E4FD"/>
</linearGradient>
<linearGradient id="paint56_linear_37_1047" x1="181.218" y1="177.679" x2="332.245" y2="41.6928" gradientUnits="userSpaceOnUse">
<stop stop-color="#7938AE"/>
<stop offset="1" stop-color="#F1E4FD"/>
</linearGradient>
<linearGradient id="paint57_linear_37_1047" x1="178.129" y1="176.941" x2="331.195" y2="43.8827" gradientUnits="userSpaceOnUse">
<stop stop-color="#7938AE"/>
<stop offset="1" stop-color="#F1E4FD"/>
</linearGradient>
<linearGradient id="paint58_linear_37_1047" x1="175.067" y1="176.188" x2="330.115" y2="46.087" gradientUnits="userSpaceOnUse">
<stop stop-color="#7938AE"/>
<stop offset="1" stop-color="#F1E4FD"/>
</linearGradient>
<linearGradient id="paint59_linear_37_1047" x1="172.035" y1="175.421" x2="329.009" y2="48.3061" gradientUnits="userSpaceOnUse">
<stop stop-color="#7938AE"/>
<stop offset="1" stop-color="#F1E4FD"/>
</linearGradient>
<linearGradient id="paint60_linear_37_1047" x1="169.029" y1="174.641" x2="327.873" y2="50.5388" gradientUnits="userSpaceOnUse">
<stop stop-color="#7938AE"/>
<stop offset="1" stop-color="#F1E4FD"/>
</linearGradient>
<linearGradient id="paint61_linear_37_1047" x1="166.051" y1="173.848" x2="326.707" y2="52.7854" gradientUnits="userSpaceOnUse">
<stop stop-color="#7938AE"/>
<stop offset="1" stop-color="#F1E4FD"/>
</linearGradient>
<linearGradient id="paint62_linear_37_1047" x1="163.102" y1="173.042" x2="325.511" y2="55.0449" gradientUnits="userSpaceOnUse">
<stop stop-color="#7938AE"/>
<stop offset="1" stop-color="#F1E4FD"/>
</linearGradient>
<linearGradient id="paint63_linear_37_1047" x1="160.181" y1="172.224" x2="324.287" y2="57.3161" gradientUnits="userSpaceOnUse">
<stop stop-color="#7938AE"/>
<stop offset="1" stop-color="#F1E4FD"/>
</linearGradient>
<linearGradient id="paint64_linear_37_1047" x1="157.288" y1="171.395" x2="323.032" y2="59.5995" gradientUnits="userSpaceOnUse">
<stop stop-color="#7938AE"/>
<stop offset="1" stop-color="#F1E4FD"/>
</linearGradient>
<linearGradient id="paint65_linear_37_1047" x1="154.424" y1="170.554" x2="321.747" y2="61.8931" gradientUnits="userSpaceOnUse">
<stop stop-color="#7938AE"/>
<stop offset="1" stop-color="#F1E4FD"/>
</linearGradient>
<linearGradient id="paint66_linear_37_1047" x1="151.59" y1="169.703" x2="320.434" y2="64.1982" gradientUnits="userSpaceOnUse">
<stop stop-color="#7938AE"/>
<stop offset="1" stop-color="#F1E4FD"/>
</linearGradient>
<linearGradient id="paint67_linear_37_1047" x1="148.783" y1="168.843" x2="319.088" y2="66.5129" gradientUnits="userSpaceOnUse">
<stop stop-color="#7938AE"/>
<stop offset="1" stop-color="#F1E4FD"/>
</linearGradient>
<linearGradient id="paint68_linear_37_1047" x1="146.006" y1="167.972" x2="317.713" y2="68.837" gradientUnits="userSpaceOnUse">
<stop stop-color="#7938AE"/>
<stop offset="1" stop-color="#F1E4FD"/>
</linearGradient>
<linearGradient id="paint69_linear_37_1047" x1="143.258" y1="167.094" x2="316.309" y2="71.1708" gradientUnits="userSpaceOnUse">
<stop stop-color="#7938AE"/>
<stop offset="1" stop-color="#F1E4FD"/>
</linearGradient>
<linearGradient id="paint70_linear_37_1047" x1="140.54" y1="166.206" x2="314.873" y2="73.5119" gradientUnits="userSpaceOnUse">
<stop stop-color="#7938AE"/>
<stop offset="1" stop-color="#F1E4FD"/>
</linearGradient>
<linearGradient id="paint71_linear_37_1047" x1="137.85" y1="165.312" x2="313.406" y2="75.8616" gradientUnits="userSpaceOnUse">
<stop stop-color="#7938AE"/>
<stop offset="1" stop-color="#F1E4FD"/>
</linearGradient>
<linearGradient id="paint72_linear_37_1047" x1="135.191" y1="164.41" x2="311.91" y2="78.2181" gradientUnits="userSpaceOnUse">
<stop stop-color="#7938AE"/>
<stop offset="1" stop-color="#F1E4FD"/>
</linearGradient>
<linearGradient id="paint73_linear_37_1047" x1="132.56" y1="163.502" x2="310.382" y2="80.5819" gradientUnits="userSpaceOnUse">
<stop stop-color="#7938AE"/>
<stop offset="1" stop-color="#F1E4FD"/>
</linearGradient>
<linearGradient id="paint74_linear_37_1047" x1="129.96" y1="162.587" x2="308.825" y2="82.9508" gradientUnits="userSpaceOnUse">
<stop stop-color="#7938AE"/>
<stop offset="1" stop-color="#F1E4FD"/>
</linearGradient>
<linearGradient id="paint75_linear_37_1047" x1="127.389" y1="161.667" x2="307.236" y2="85.3258" gradientUnits="userSpaceOnUse">
<stop stop-color="#7938AE"/>
<stop offset="1" stop-color="#F1E4FD"/>
</linearGradient>
<linearGradient id="paint76_linear_37_1047" x1="124.847" y1="160.742" x2="305.617" y2="87.7062" gradientUnits="userSpaceOnUse">
<stop stop-color="#7938AE"/>
<stop offset="1" stop-color="#F1E4FD"/>
</linearGradient>
<linearGradient id="paint77_linear_37_1047" x1="122.335" y1="159.813" x2="303.966" y2="90.0909" gradientUnits="userSpaceOnUse">
<stop stop-color="#7938AE"/>
<stop offset="1" stop-color="#F1E4FD"/>
</linearGradient>
<linearGradient id="paint78_linear_37_1047" x1="119.853" y1="158.878" x2="302.285" y2="92.4787" gradientUnits="userSpaceOnUse">
<stop stop-color="#7938AE"/>
<stop offset="1" stop-color="#F1E4FD"/>
</linearGradient>
<linearGradient id="paint79_linear_37_1047" x1="117.401" y1="157.942" x2="300.573" y2="94.8706" gradientUnits="userSpaceOnUse">
<stop stop-color="#7938AE"/>
<stop offset="1" stop-color="#F1E4FD"/>
</linearGradient>
<linearGradient id="paint80_linear_37_1047" x1="114.977" y1="157.002" x2="298.829" y2="97.2646" gradientUnits="userSpaceOnUse">
<stop stop-color="#7938AE"/>
<stop offset="1" stop-color="#F1E4FD"/>
</linearGradient>
<linearGradient id="paint81_linear_37_1047" x1="112.584" y1="156.06" x2="297.056" y2="99.6611" gradientUnits="userSpaceOnUse">
<stop stop-color="#7938AE"/>
<stop offset="1" stop-color="#F1E4FD"/>
</linearGradient>
<linearGradient id="paint82_linear_37_1047" x1="110.221" y1="155.116" x2="295.253" y2="102.059" gradientUnits="userSpaceOnUse">
<stop stop-color="#7938AE"/>
<stop offset="1" stop-color="#F1E4FD"/>
</linearGradient>
<linearGradient id="paint83_linear_37_1047" x1="107.886" y1="154.171" x2="293.416" y2="104.458" gradientUnits="userSpaceOnUse">
<stop stop-color="#7938AE"/>
<stop offset="1" stop-color="#F1E4FD"/>
</linearGradient>
<linearGradient id="paint84_linear_37_1047" x1="105.583" y1="153.225" x2="291.551" y2="106.858" gradientUnits="userSpaceOnUse">
<stop stop-color="#7938AE"/>
<stop offset="1" stop-color="#F1E4FD"/>
</linearGradient>
<linearGradient id="paint85_linear_37_1047" x1="103.307" y1="152.279" x2="289.654" y2="109.257" gradientUnits="userSpaceOnUse">
<stop stop-color="#7938AE"/>
<stop offset="1" stop-color="#F1E4FD"/>
</linearGradient>
<linearGradient id="paint86_linear_37_1047" x1="101.062" y1="151.333" x2="287.727" y2="111.656" gradientUnits="userSpaceOnUse">
<stop stop-color="#7938AE"/>
<stop offset="1" stop-color="#F1E4FD"/>
</linearGradient>
<linearGradient id="paint87_linear_37_1047" x1="98.8444" y1="150.388" x2="285.768" y2="114.054" gradientUnits="userSpaceOnUse">
<stop stop-color="#7938AE"/>
<stop offset="1" stop-color="#F1E4FD"/>
</linearGradient>
<linearGradient id="paint88_linear_37_1047" x1="96.6583" y1="149.445" x2="283.781" y2="116.45" gradientUnits="userSpaceOnUse">
<stop stop-color="#7938AE"/>
<stop offset="1" stop-color="#F1E4FD"/>
</linearGradient>
<linearGradient id="paint89_linear_37_1047" x1="94.5007" y1="148.504" x2="281.763" y2="118.845" gradientUnits="userSpaceOnUse">
<stop stop-color="#7938AE"/>
<stop offset="1" stop-color="#F1E4FD"/>
</linearGradient>
<linearGradient id="paint90_linear_37_1047" x1="92.3718" y1="147.565" x2="279.714" y2="121.236" gradientUnits="userSpaceOnUse">
<stop stop-color="#7938AE"/>
<stop offset="1" stop-color="#F1E4FD"/>
</linearGradient>
<linearGradient id="paint91_linear_37_1047" x1="90.2723" y1="146.629" x2="277.635" y2="123.624" gradientUnits="userSpaceOnUse">
<stop stop-color="#7938AE"/>
<stop offset="1" stop-color="#F1E4FD"/>
</linearGradient>
<linearGradient id="paint92_linear_37_1047" x1="88.2003" y1="145.697" x2="275.526" y2="126.008" gradientUnits="userSpaceOnUse">
<stop stop-color="#7938AE"/>
<stop offset="1" stop-color="#F1E4FD"/>
</linearGradient>
<linearGradient id="paint93_linear_37_1047" x1="86.1599" y1="144.769" x2="273.389" y2="128.389" gradientUnits="userSpaceOnUse">
<stop stop-color="#7938AE"/>
<stop offset="1" stop-color="#F1E4FD"/>
</linearGradient>
<linearGradient id="paint94_linear_37_1047" x1="84.1469" y1="143.844" x2="271.221" y2="130.763" gradientUnits="userSpaceOnUse">
<stop stop-color="#7938AE"/>
<stop offset="1" stop-color="#F1E4FD"/>
</linearGradient>
<linearGradient id="paint95_linear_37_1047" x1="82.1605" y1="142.926" x2="269.022" y2="133.133" gradientUnits="userSpaceOnUse">
<stop stop-color="#7938AE"/>
<stop offset="1" stop-color="#F1E4FD"/>
</linearGradient>
<linearGradient id="paint96_linear_37_1047" x1="80.2045" y1="142.012" x2="266.796" y2="135.496" gradientUnits="userSpaceOnUse">
<stop stop-color="#7938AE"/>
<stop offset="1" stop-color="#F1E4FD"/>
</linearGradient>
<linearGradient id="paint97_linear_37_1047" x1="78.277" y1="141.104" x2="264.54" y2="137.853" gradientUnits="userSpaceOnUse">
<stop stop-color="#7938AE"/>
<stop offset="1" stop-color="#F1E4FD"/>
</linearGradient>
<linearGradient id="paint98_linear_37_1047" x1="76.376" y1="140.204" x2="262.255" y2="140.204" gradientUnits="userSpaceOnUse">
<stop stop-color="#7938AE"/>
<stop offset="1" stop-color="#F1E4FD"/>
</linearGradient>
</defs>
</svg>
